<svg width="16" height="16" viewBox="0 0 16 16" fill="none" xmlns="http://www.w3.org/2000/svg">
<path d="M4.09602 15.7742C4.46161 16.0753 4.8272 16.0753 5.19279 15.7742C5.49387 15.4086 5.49387 15.043 5.19279 14.6774L3.4186 12.9032H14.4509C14.924 12.8602 15.182 12.6022 15.225 12.129C15.182 11.6559 14.924 11.3978 14.4509 11.3548H3.4186L5.19279 9.58065C5.49387 9.21505 5.49387 8.84946 5.19279 8.48387C4.8272 8.1828 4.46161 8.1828 4.09602 8.48387L0.999244 11.5806C0.698169 11.9462 0.698169 12.3118 0.999244 12.6774L4.09602 15.7742ZM14.9992 4.41935C15.3003 4.05376 15.3003 3.68817 14.9992 3.32258L11.9025 0.225806C11.5369 -0.0752688 11.1713 -0.0752688 10.8057 0.225806C10.5046 0.591398 10.5046 0.956989 10.8057 1.32258L12.5799 3.09677H1.54763C1.07451 3.13979 0.816448 3.39785 0.773438 3.87097C0.816448 4.34409 1.07451 4.60215 1.54763 4.64516H12.5799L10.8057 6.41935C10.5046 6.78495 10.5046 7.15054 10.8057 7.51613C11.1713 7.8172 11.5369 7.8172 11.9025 7.51613L14.9992 4.41935Z" fill="#C8C9CC"/>
</svg>
