<svg width="16" height="12" viewBox="0 0 16 12" fill="none" xmlns="http://www.w3.org/2000/svg">
<path d="M6.6875 0C6.40625 0.3125 6.22656 0.6875 6.14844 1.125H2C1.76562 1.14062 1.64062 1.26562 1.625 1.5V10.5C1.64062 10.7344 1.76562 10.8594 2 10.875H6.14844C6.22656 11.3125 6.40625 11.6875 6.6875 12H2C1.57812 11.9844 1.22656 11.8359 0.945312 11.5547C0.664062 11.2734 0.515625 10.9219 0.5 10.5V1.5C0.515625 1.07812 0.664062 0.726562 0.945312 0.445312C1.22656 0.164062 1.57812 0.015625 2 0H6.6875ZM5.75 5.4375V6.77344C5.5 6.52344 5.1875 6.39062 4.8125 6.375C4.4375 6.39062 4.125 6.51562 3.875 6.75C3.64062 7 3.51562 7.3125 3.5 7.6875C3.51562 8.0625 3.64062 8.375 3.875 8.625C4.125 8.85938 4.4375 8.98438 4.8125 9C5.1875 8.98438 5.5 8.85156 5.75 8.60156V9.9375C5.45312 10.0625 5.14062 10.125 4.8125 10.125C4.125 10.1094 3.54688 9.875 3.07812 9.42188C2.625 8.95312 2.39062 8.375 2.375 7.6875C2.39062 7 2.625 6.42188 3.07812 5.95312C3.54688 5.5 4.125 5.26562 4.8125 5.25C5.14062 5.25 5.45312 5.3125 5.75 5.4375ZM4.8125 1.875C5.17188 1.89062 5.44531 2.04688 5.63281 2.34375C5.78906 2.65625 5.78906 2.96875 5.63281 3.28125C5.44531 3.57812 5.17188 3.73438 4.8125 3.75C4.45312 3.73438 4.17969 3.57812 3.99219 3.28125C3.83594 2.96875 3.83594 2.65625 3.99219 2.34375C4.17969 2.04688 4.45312 1.89062 4.8125 1.875ZM8.375 1.125C8.14062 1.14062 8.01562 1.26562 8 1.5V10.5C8.01562 10.7344 8.14062 10.8594 8.375 10.875H14C14.2344 10.8594 14.3594 10.7344 14.375 10.5V1.5C14.3594 1.26562 14.2344 1.14062 14 1.125H8.375ZM6.875 1.5C6.89062 1.07812 7.03906 0.726562 7.32031 0.445312C7.60156 0.164062 7.95312 0.015625 8.375 0H14C14.4219 0.015625 14.7734 0.164062 15.0547 0.445312C15.3359 0.726562 15.4844 1.07812 15.5 1.5V10.5C15.4844 10.9219 15.3359 11.2734 15.0547 11.5547C14.7734 11.8359 14.4219 11.9844 14 12H8.375C7.95312 11.9844 7.60156 11.8359 7.32031 11.5547C7.03906 11.2734 6.89062 10.9219 6.875 10.5V1.5ZM11.1875 1.875C11.5469 1.89062 11.8203 2.04688 12.0078 2.34375C12.1641 2.65625 12.1641 2.96875 12.0078 3.28125C11.8203 3.57812 11.5469 3.73438 11.1875 3.75C10.8281 3.73438 10.5547 3.57812 10.3672 3.28125C10.2109 2.96875 10.2109 2.65625 10.3672 2.34375C10.5547 2.04688 10.8281 1.89062 11.1875 1.875ZM8.75 7.6875C8.75 7.25 8.85938 6.84375 9.07812 6.46875C9.29688 6.09375 9.59375 5.79688 9.96875 5.57812C10.3594 5.35938 10.7656 5.25 11.1875 5.25C11.6094 5.25 12.0156 5.35938 12.4062 5.57812C12.7812 5.79688 13.0781 6.09375 13.2969 6.46875C13.5156 6.84375 13.625 7.25 13.625 7.6875C13.625 8.125 13.5156 8.53125 13.2969 8.90625C13.0781 9.28125 12.7812 9.57812 12.4062 9.79688C12.0156 10.0156 11.6094 10.125 11.1875 10.125C10.7656 10.125 10.3594 10.0156 9.96875 9.79688C9.59375 9.57812 9.29688 9.28125 9.07812 8.90625C8.85938 8.53125 8.75 8.125 8.75 7.6875ZM11.1875 9C11.6875 8.98438 12.0625 8.76562 12.3125 8.34375C12.5625 7.90625 12.5625 7.46875 12.3125 7.03125C12.0625 6.60938 11.6875 6.39062 11.1875 6.375C10.6875 6.39062 10.3125 6.60938 10.0625 7.03125C9.8125 7.46875 9.8125 7.90625 10.0625 8.34375C10.3125 8.76562 10.6875 8.98438 11.1875 9Z" fill="#7D7E80"/>
</svg>
