<svg width="14" height="12" viewBox="0 0 14 12" fill="none" xmlns="http://www.w3.org/2000/svg">
<path d="M1.5625 1.125C1.45312 1.14062 1.39062 1.20312 1.375 1.3125V3.1875C1.34375 3.53125 1.15625 3.71875 0.8125 3.75C0.46875 3.71875 0.28125 3.53125 0.25 3.1875V1.3125C0.265625 0.9375 0.390625 0.625 0.625 0.375C0.875 0.140625 1.1875 0.015625 1.5625 0H3.4375C3.78125 0.03125 3.96875 0.21875 4 0.5625C3.96875 0.90625 3.78125 1.09375 3.4375 1.125H1.5625ZM3.0625 3C3.40625 3.03125 3.59375 3.21875 3.625 3.5625V8.4375C3.59375 8.78125 3.40625 8.96875 3.0625 9C2.71875 8.96875 2.53125 8.78125 2.5 8.4375V3.5625C2.53125 3.21875 2.71875 3.03125 3.0625 3ZM4.375 3.375C4.39062 3.14062 4.51562 3.01562 4.75 3C4.98438 3.01562 5.10938 3.14062 5.125 3.375V8.625C5.10938 8.85938 4.98438 8.98438 4.75 9C4.51562 8.98438 4.39062 8.85938 4.375 8.625V3.375ZM10.75 3.375C10.7656 3.14062 10.8906 3.01562 11.125 3C11.3594 3.01562 11.4844 3.14062 11.5 3.375V8.625C11.4844 8.85938 11.3594 8.98438 11.125 9C10.8906 8.98438 10.7656 8.85938 10.75 8.625V3.375ZM5.875 3.5625C5.90625 3.21875 6.09375 3.03125 6.4375 3C6.78125 3.03125 6.96875 3.21875 7 3.5625V8.4375C6.96875 8.78125 6.78125 8.96875 6.4375 9C6.09375 8.96875 5.90625 8.78125 5.875 8.4375V3.5625ZM9.4375 3C9.78125 3.03125 9.96875 3.21875 10 3.5625V8.4375C9.96875 8.78125 9.78125 8.96875 9.4375 9C9.09375 8.96875 8.90625 8.78125 8.875 8.4375V3.5625C8.90625 3.21875 9.09375 3.03125 9.4375 3ZM12.625 1.3125C12.6094 1.20312 12.5469 1.14062 12.4375 1.125H10.5625C10.2188 1.09375 10.0312 0.90625 10 0.5625C10.0312 0.21875 10.2188 0.03125 10.5625 0H12.4375C12.8125 0.015625 13.125 0.140625 13.375 0.375C13.6094 0.625 13.7344 0.9375 13.75 1.3125V3.1875C13.7188 3.53125 13.5312 3.71875 13.1875 3.75C12.8438 3.71875 12.6562 3.53125 12.625 3.1875V1.3125ZM1.5625 10.875H3.4375C3.78125 10.9062 3.96875 11.0938 4 11.4375C3.96875 11.7812 3.78125 11.9688 3.4375 12H1.5625C1.1875 11.9844 0.875 11.8594 0.625 11.625C0.390625 11.375 0.265625 11.0625 0.25 10.6875V8.8125C0.28125 8.46875 0.46875 8.28125 0.8125 8.25C1.15625 8.28125 1.34375 8.46875 1.375 8.8125V10.6875C1.39062 10.7969 1.45312 10.8594 1.5625 10.875ZM12.625 10.6875V8.8125C12.6562 8.46875 12.8438 8.28125 13.1875 8.25C13.5312 8.28125 13.7188 8.46875 13.75 8.8125V10.6875C13.7344 11.0625 13.6094 11.375 13.375 11.625C13.125 11.8594 12.8125 11.9844 12.4375 12H10.5625C10.2188 11.9688 10.0312 11.7812 10 11.4375C10.0312 11.0938 10.2188 10.9062 10.5625 10.875H12.4375C12.5469 10.8594 12.6094 10.7969 12.625 10.6875Z" fill="#7D7E80"/>
</svg>
