<svg width="28" height="25" viewBox="0 0 28 25" fill="none" xmlns="http://www.w3.org/2000/svg">
<path d="M4.30273 0.5C4.67773 0.53125 4.92773 0.71875 5.05273 1.0625L5.24023 2H25.959C26.459 2.03125 26.8496 2.23438 27.1309 2.60938C27.4121 2.98438 27.5059 3.42188 27.4121 3.92188L24.8809 12.9219C24.6309 13.6094 24.1465 13.9688 23.4277 14H7.95898L8.66211 17H23.8027C24.2715 17.0312 24.5215 17.2812 24.5527 17.75C24.5215 18.2188 24.2715 18.4688 23.8027 18.5H8.05273C7.67773 18.4688 7.42773 18.2812 7.30273 17.9375L3.69336 2H1.30273C0.833984 1.96875 0.583984 1.71875 0.552734 1.25C0.583984 0.78125 0.833984 0.53125 1.30273 0.5H4.30273ZM5.56836 3.5L7.58398 12.5H23.4277L25.959 3.5H5.56836ZM6.55273 21.875C6.58398 21.125 6.83398 20.5 7.30273 20C7.80273 19.5312 8.42773 19.2812 9.17773 19.25C9.92773 19.2812 10.5527 19.5312 11.0527 20C11.5215 20.5 11.7715 21.125 11.8027 21.875C11.7715 22.625 11.5215 23.25 11.0527 23.75C10.5527 24.2188 9.92773 24.4688 9.17773 24.5C8.42773 24.4688 7.80273 24.2188 7.30273 23.75C6.83398 23.25 6.58398 22.625 6.55273 21.875ZM9.17773 23C9.86523 22.9375 10.2402 22.5625 10.3027 21.875C10.2402 21.1875 9.86523 20.8125 9.17773 20.75C8.49023 20.8125 8.11523 21.1875 8.05273 21.875C8.11523 22.5625 8.49023 22.9375 9.17773 23ZM24.5527 21.875C24.5215 22.625 24.2715 23.25 23.8027 23.75C23.3027 24.2188 22.6777 24.4688 21.9277 24.5C21.1777 24.4688 20.5527 24.2188 20.0527 23.75C19.584 23.25 19.334 22.625 19.3027 21.875C19.334 21.125 19.584 20.5 20.0527 20C20.5527 19.5312 21.1777 19.2812 21.9277 19.25C22.6777 19.2812 23.3027 19.5312 23.8027 20C24.2715 20.5 24.5215 21.125 24.5527 21.875ZM21.9277 20.75C21.2402 20.8125 20.8652 21.1875 20.8027 21.875C20.8652 22.5625 21.2402 22.9375 21.9277 23C22.6152 22.9375 22.9902 22.5625 23.0527 21.875C22.9902 21.1875 22.6152 20.8125 21.9277 20.75Z" fill="#2B2E33"/>
</svg>
