<svg width="48" height="50" viewBox="0 0 48 50" fill="none" xmlns="http://www.w3.org/2000/svg">
<path d="M24 0C19.638 0.0651042 15.6992 1.13932 12.1836 3.22266C8.66797 5.30599 5.86849 8.10547 3.78516 11.6211C1.70182 15.1367 0.627604 19.0755 0.5625 23.4375V30.4688C0.627604 30.9245 0.855469 31.1849 1.24609 31.25C1.70182 31.1849 1.99479 30.9245 2.125 30.4688V23.4375C2.1901 19.401 3.19922 15.7227 5.15234 12.4023C7.10547 9.14714 9.70964 6.54297 12.9648 4.58984C16.2852 2.63672 19.9635 1.6276 24 1.5625C28.0365 1.6276 31.7148 2.63672 35.0352 4.58984C38.2904 6.54297 40.8945 9.14714 42.8477 12.4023C44.8008 15.7227 45.8099 19.401 45.875 23.4375V39.0625C45.8099 40.625 45.2891 41.9271 44.3125 42.9688C43.2708 43.9453 41.9688 44.4661 40.4062 44.5312H30.25C30.1849 44.5312 30.1523 44.5312 30.1523 44.5312C29.957 43.4245 29.4362 42.513 28.5898 41.7969C27.7435 41.0156 26.7344 40.625 25.5625 40.625H22.4375C21.1354 40.6901 20.0286 41.1458 19.1172 41.9922C18.2708 42.9036 17.8151 44.0104 17.75 45.3125C17.8151 46.6146 18.2708 47.7214 19.1172 48.6328C19.9635 49.4792 21.0378 49.9349 22.3398 50H25.5625C26.7344 50 27.7435 49.6094 28.5898 48.8281C29.4362 48.112 29.957 47.2005 30.1523 46.0938C30.1523 46.0938 30.1849 46.0938 30.25 46.0938H40.4062C42.4245 46.0286 44.0846 45.3451 45.3867 44.043C46.6888 42.7409 47.3724 41.0807 47.4375 39.0625V23.4375C47.3724 19.0755 46.2982 15.1367 44.2148 11.6211C42.1315 8.10547 39.332 5.30599 35.8164 3.22266C32.3008 1.13932 28.362 0.0651042 24 0ZM25.5625 48.4375H22.4375C21.526 48.4375 20.7773 48.1445 20.1914 47.5586C19.6055 46.9727 19.3125 46.224 19.3125 45.3125C19.3125 44.401 19.6055 43.6523 20.1914 43.0664C20.7773 42.4805 21.526 42.1875 22.4375 42.1875H25.5625C26.474 42.1875 27.2227 42.4805 27.8086 43.0664C28.3945 43.6523 28.6875 44.401 28.6875 45.3125C28.6875 46.224 28.3945 46.9727 27.8086 47.5586C27.2227 48.1445 26.474 48.4375 25.5625 48.4375ZM13.0625 18.75H11.4023C9.64453 18.8151 8.17969 19.4336 7.00781 20.6055C5.83594 21.7773 5.21745 23.2096 5.15234 24.9023L5.25 31.25C5.3151 33.0078 5.93359 34.4727 7.10547 35.6445C8.27734 36.8164 9.74219 37.4349 11.5 37.5H13.0625C13.974 37.5 14.7227 37.207 15.3086 36.6211C15.8945 36.0352 16.1875 35.2865 16.1875 34.375V21.875C16.1875 20.9635 15.8945 20.2148 15.3086 19.6289C14.7227 19.043 13.974 18.75 13.0625 18.75ZM14.625 34.375C14.5599 35.3516 14.0391 35.8724 13.0625 35.9375H11.5C10.1979 35.8724 9.09115 35.4167 8.17969 34.5703C7.33333 33.6589 6.8776 32.5521 6.8125 31.25V25C6.8776 23.6979 7.33333 22.5911 8.17969 21.6797C9.09115 20.8333 10.1979 20.3776 11.5 20.3125H13.0625C14.0391 20.3776 14.5599 20.8984 14.625 21.875V34.375ZM36.5 37.5C38.2578 37.4349 39.7227 36.8164 40.8945 35.6445C42.0664 34.4727 42.6849 33.0078 42.75 31.25V25.0977C42.6849 23.3398 42.0664 21.875 40.8945 20.7031C39.7227 19.5312 38.2578 18.9453 36.5 18.9453L34.9375 18.75C34.026 18.75 33.2773 19.043 32.6914 19.6289C32.1055 20.2148 31.8125 20.9635 31.8125 21.875V34.375C31.8125 35.2865 32.1055 36.0352 32.6914 36.6211C33.2773 37.207 34.026 37.5 34.9375 37.5H36.5ZM33.375 34.375V21.9727C33.4401 20.931 33.9609 20.3776 34.9375 20.3125H36.5C37.8021 20.3776 38.9089 20.8333 39.8203 21.6797C40.6667 22.5911 41.1224 23.6979 41.1875 25V31.25C41.1224 32.5521 40.6667 33.6589 39.8203 34.5703C38.9089 35.4167 37.8021 35.8724 36.5 35.9375H34.9375C33.9609 35.8724 33.4401 35.3516 33.375 34.375Z" fill="#366CD9"/>
</svg>
