<svg width="14" height="14" viewBox="0 0 14 14" fill="none" xmlns="http://www.w3.org/2000/svg">
<path d="M1.54004 5.50154L5.50098 7.1656C5.5166 7.1656 5.53223 7.17341 5.54785 7.18904L7.7041 8.07966L11.4541 5.57185L3.41504 2.22029L1.54004 5.50154ZM4.58691 8.00935L0.719727 6.39216C0.516602 6.29841 0.375977 6.14216 0.297852 5.92341C0.219727 5.72029 0.235352 5.51716 0.344727 5.31404L2.59473 1.37654C2.8291 1.03279 3.1416 0.923413 3.53223 1.04841L12.5322 4.79841C12.7979 4.92341 12.9541 5.13435 13.001 5.43123C13.0166 5.7281 12.9072 5.96248 12.6729 6.13435L8.17285 9.13435C7.93848 9.27498 7.7041 9.29841 7.46973 9.20466L5.6416 8.43123L4.5166 11.3375C4.42285 11.5562 4.25098 11.6734 4.00098 11.689H1.37598V12.439C1.34473 12.7828 1.15723 12.9703 0.813477 13.0015C0.469727 12.9703 0.282227 12.7828 0.250977 12.439V9.81404C0.282227 9.47029 0.469727 9.28279 0.813477 9.25154C1.15723 9.28279 1.34473 9.47029 1.37598 9.81404V10.564H3.62598L4.58691 8.00935ZM9.55566 9.11091L12.6729 7.02498L13.54 7.39998C13.7275 7.50935 13.79 7.67341 13.7275 7.89216L12.79 10.1422C12.7432 10.2359 12.6729 10.3062 12.5791 10.3531C12.4854 10.3844 12.3916 10.3844 12.2979 10.3531L9.55566 9.11091Z" fill="#7D7E80"/>
</svg>
