<svg width="24" height="22" viewBox="0 0 24 22" fill="none" xmlns="http://www.w3.org/2000/svg">
<path d="M10.0392 6.98431C10.0671 6.56601 10.2902 6.34292 10.7085 6.31503H12.7163V4.30719C12.7442 3.88889 12.9673 3.6658 13.3856 3.63791C13.8039 3.6658 14.027 3.88889 14.0549 4.30719V6.31503H16.0627C16.481 6.34292 16.7041 6.56601 16.732 6.98431C16.7041 7.40262 16.481 7.62571 16.0627 7.6536H14.0549V9.66144C14.027 10.0797 13.8039 10.3028 13.3856 10.3307C12.9673 10.3028 12.7442 10.0797 12.7163 9.66144V7.6536H10.7085C10.2902 7.62571 10.0671 7.40262 10.0392 6.98431ZM3.34641 0.291504C3.68105 0.319391 3.90414 0.486711 4.01569 0.793465L4.18301 1.63007H22.6719C23.1181 1.65795 23.4667 1.83922 23.7176 2.17386C23.9686 2.5085 24.0523 2.89891 23.9686 3.3451L21.7098 11.3765C21.4867 11.99 21.0545 12.3107 20.4131 12.3386H6.60915L7.2366 15.0157H20.7477C21.166 15.0436 21.3891 15.2667 21.417 15.685C21.3891 16.1033 21.166 16.3264 20.7477 16.3542H6.69281C6.35817 16.3264 6.13508 16.159 6.02353 15.8523L2.80261 1.63007H0.669281C0.25098 1.60218 0.0278867 1.37909 0 0.960785C0.0278867 0.542484 0.25098 0.319391 0.669281 0.291504H3.34641ZM4.47582 2.96863L6.27451 11H20.4131L22.6719 2.96863H4.47582ZM5.35425 19.366C5.38213 18.6967 5.60523 18.139 6.02353 17.6928C6.46972 17.2745 7.02745 17.0514 7.69673 17.0235C8.36601 17.0514 8.92375 17.2745 9.36993 17.6928C9.78823 18.139 10.0113 18.6967 10.0392 19.366C10.0113 20.0353 9.78823 20.593 9.36993 21.0392C8.92375 21.4575 8.36601 21.6806 7.69673 21.7085C7.02745 21.6806 6.46972 21.4575 6.02353 21.0392C5.60523 20.593 5.38213 20.0353 5.35425 19.366ZM7.69673 20.3699C8.31024 20.3142 8.64488 19.9795 8.70065 19.366C8.64488 18.7525 8.31024 18.4179 7.69673 18.3621C7.08322 18.4179 6.74858 18.7525 6.69281 19.366C6.74858 19.9795 7.08322 20.3142 7.69673 20.3699ZM21.417 19.366C21.3891 20.0353 21.166 20.593 20.7477 21.0392C20.3015 21.4575 19.7438 21.6806 19.0745 21.7085C18.4052 21.6806 17.8475 21.4575 17.4013 21.0392C16.983 20.593 16.7599 20.0353 16.732 19.366C16.7599 18.6967 16.983 18.139 17.4013 17.6928C17.8475 17.2745 18.4052 17.0514 19.0745 17.0235C19.7438 17.0514 20.3015 17.2745 20.7477 17.6928C21.166 18.139 21.3891 18.6967 21.417 19.366ZM19.0745 18.3621C18.461 18.4179 18.1264 18.7525 18.0706 19.366C18.1264 19.9795 18.461 20.3142 19.0745 20.3699C19.688 20.3142 20.0227 19.9795 20.0784 19.366C20.0227 18.7525 19.688 18.4179 19.0745 18.3621Z" fill="white"/>
</svg>
