<svg width="12" height="12" viewBox="0 0 12 12" fill="none" xmlns="http://www.w3.org/2000/svg">
<path d="M1.5 0C1.28125 0 1.10156 0.0703125 0.960938 0.210938C0.820312 0.351562 0.75 0.53125 0.75 0.75V2.25C0.75 2.46875 0.820312 2.64844 0.960938 2.78906C1.10156 2.92969 1.28125 3 1.5 3H3.375V3.75H2.0625C1.67188 3.75 1.34375 3.875 1.07812 4.125C0.796875 4.35938 0.625 4.66406 0.5625 5.03906L0.0234375 8.90625C0.0078125 8.9375 0 8.96875 0 9C0 9.03125 0 9.07031 0 9.11719V10.5C0.015625 10.9219 0.164062 11.2734 0.445312 11.5547C0.726562 11.8359 1.07812 11.9844 1.5 12H10.5C10.9219 11.9844 11.2734 11.8359 11.5547 11.5547C11.8359 11.2734 11.9844 10.9219 12 10.5V9.11719C12 9.03906 11.9922 8.96875 11.9766 8.90625L11.4375 5.03906C11.375 4.66406 11.2031 4.35938 10.9219 4.125C10.6562 3.875 10.3281 3.75 9.9375 3.75H4.875V3H6.75C6.96875 3 7.14844 2.92969 7.28906 2.78906C7.42969 2.64844 7.5 2.46875 7.5 2.25V0.75C7.5 0.53125 7.42969 0.351562 7.28906 0.210938C7.14844 0.0703125 6.96875 0 6.75 0H1.5ZM2.25 1.125H6C6.23438 1.14062 6.35938 1.26562 6.375 1.5C6.35938 1.73438 6.23438 1.85938 6 1.875H2.25C2.01562 1.85938 1.89062 1.73438 1.875 1.5C1.89062 1.26562 2.01562 1.14062 2.25 1.125ZM1.125 10.5V10.125H10.875V10.5C10.8594 10.7344 10.7344 10.8594 10.5 10.875H1.5C1.26562 10.8594 1.14062 10.7344 1.125 10.5ZM10.3125 5.20312L10.875 9H1.14844L1.6875 5.20312C1.71875 5 1.84375 4.89062 2.0625 4.875H9.96094C10.1641 4.89062 10.2812 5 10.3125 5.20312ZM2.625 5.4375C2.28125 5.46875 2.09375 5.65625 2.0625 6C2.09375 6.34375 2.28125 6.53125 2.625 6.5625C2.96875 6.53125 3.15625 6.34375 3.1875 6C3.15625 5.65625 2.96875 5.46875 2.625 5.4375ZM4.3125 6C4.34375 6.34375 4.53125 6.53125 4.875 6.5625C5.21875 6.53125 5.40625 6.34375 5.4375 6C5.40625 5.65625 5.21875 5.46875 4.875 5.4375C4.53125 5.46875 4.34375 5.65625 4.3125 6ZM3.75 7.3125C3.40625 7.34375 3.21875 7.53125 3.1875 7.875C3.21875 8.21875 3.40625 8.40625 3.75 8.4375C4.09375 8.40625 4.28125 8.21875 4.3125 7.875C4.28125 7.53125 4.09375 7.34375 3.75 7.3125ZM6.5625 6C6.59375 6.34375 6.78125 6.53125 7.125 6.5625C7.46875 6.53125 7.65625 6.34375 7.6875 6C7.65625 5.65625 7.46875 5.46875 7.125 5.4375C6.78125 5.46875 6.59375 5.65625 6.5625 6ZM6 7.3125C5.65625 7.34375 5.46875 7.53125 5.4375 7.875C5.46875 8.21875 5.65625 8.40625 6 8.4375C6.34375 8.40625 6.53125 8.21875 6.5625 7.875C6.53125 7.53125 6.34375 7.34375 6 7.3125ZM8.8125 6C8.84375 6.34375 9.03125 6.53125 9.375 6.5625C9.71875 6.53125 9.90625 6.34375 9.9375 6C9.90625 5.65625 9.71875 5.46875 9.375 5.4375C9.03125 5.46875 8.84375 5.65625 8.8125 6ZM8.25 7.3125C7.90625 7.34375 7.71875 7.53125 7.6875 7.875C7.71875 8.21875 7.90625 8.40625 8.25 8.4375C8.59375 8.40625 8.78125 8.21875 8.8125 7.875C8.78125 7.53125 8.59375 7.34375 8.25 7.3125Z" fill="#7D7E80"/>
</svg>
