<svg width="25" height="17" viewBox="0 0 25 17" fill="none" xmlns="http://www.w3.org/2000/svg">
<path d="M24.3877 15.0747L20.29 10.977C21.187 9.85572 21.6457 8.54078 21.6661 7.03216C21.6253 5.23813 21.0035 3.73971 19.8007 2.53689C18.5979 1.33408 17.0995 0.712282 15.3055 0.671509C13.5114 0.712282 12.013 1.33408 10.8102 2.53689C9.62777 3.73971 9.01617 5.23813 8.97539 7.03216C9.01617 8.82619 9.63796 10.3246 10.8408 11.5274C12.0232 12.7302 13.5114 13.352 15.3055 13.3928C16.8345 13.3724 18.1494 12.9137 19.2503 12.0167L23.348 16.1144C23.5315 16.2571 23.715 16.3285 23.8985 16.3285C24.1023 16.3285 24.2756 16.2571 24.4183 16.1144C24.7037 15.7679 24.6935 15.4213 24.3877 15.0747ZM10.4432 7.03216C10.484 5.64586 10.9631 4.49402 11.8805 3.57661C12.7979 2.65921 13.9497 2.18012 15.336 2.13935C16.7223 2.18012 17.8742 2.65921 18.7916 3.57661C19.709 4.49402 20.1881 5.64586 20.2289 7.03216C20.1881 8.41846 19.709 9.5703 18.7916 10.4877C17.8742 11.4051 16.7223 11.8842 15.336 11.925C13.9497 11.8842 12.7979 11.4051 11.8805 10.4877C10.9631 9.5703 10.484 8.41846 10.4432 7.03216Z" fill="#366CD9"/>
<path d="M0.625 3.80291C0.625 3.37055 0.975494 3.02006 1.40785 3.02006H6.10495C6.5373 3.02006 6.8878 3.37055 6.8878 3.80291C6.8878 4.23526 6.5373 4.58576 6.10495 4.58576H1.40785C0.975493 4.58576 0.625 4.23526 0.625 3.80291Z" fill="#366CD9"/>
<path d="M0.625 8.5C0.625 8.06765 0.975494 7.71715 1.40785 7.71715H6.10495C6.5373 7.71715 6.8878 8.06765 6.8878 8.5C6.8878 8.93236 6.5373 9.28285 6.10495 9.28285H1.40785C0.975493 9.28285 0.625 8.93236 0.625 8.5Z" fill="#366CD9"/>
<path d="M0.625 13.1971C0.625 12.7647 0.975494 12.4143 1.40785 12.4143H8.19254C8.6249 12.4143 8.97539 12.7647 8.97539 13.1971C8.97539 13.6295 8.6249 13.9799 8.19254 13.9799H1.40785C0.975494 13.9799 0.625 13.6295 0.625 13.1971Z" fill="#366CD9"/>
</svg>
