<svg width="20" height="18" viewBox="0 0 20 18" fill="none" xmlns="http://www.w3.org/2000/svg">
<path d="M10 16.5C11.875 16.474 13.5547 16.1094 15.0391 15.4062C16.5495 14.6771 17.7474 13.7005 18.6328 12.4766C19.5182 11.2526 19.974 9.88542 20 8.375C19.974 6.86458 19.5182 5.4974 18.6328 4.27344C17.7474 3.04948 16.5495 2.07292 15.0391 1.34375C13.5547 0.640625 11.875 0.276042 10 0.25C8.125 0.276042 6.44531 0.640625 4.96094 1.34375C3.45052 2.07292 2.2526 3.04948 1.36719 4.27344C0.481771 5.4974 0.0260417 6.86458 0 8.375C0.0260417 10.1719 0.651042 11.7474 1.875 13.1016C1.74479 14.0651 1.45833 14.8854 1.01562 15.5625C0.807292 15.9271 0.611979 16.2005 0.429688 16.3828C0.351562 16.487 0.286458 16.5651 0.234375 16.6172C0.234375 16.6432 0.221354 16.6562 0.195312 16.6562C0.195312 16.6562 0.195312 16.6693 0.195312 16.6953C0.0130208 16.8776 -0.0390625 17.099 0.0390625 17.3594C0.169271 17.6198 0.364583 17.75 0.625 17.75C1.77083 17.6979 2.83854 17.4505 3.82812 17.0078C4.73958 16.5911 5.44271 16.1875 5.9375 15.7969C7.1875 16.2656 8.54167 16.5 10 16.5ZM6.64062 4.82031C6.79688 4.3776 7.05729 4.02604 7.42188 3.76562C7.78646 3.50521 8.21615 3.375 8.71094 3.375H10.9766C11.6797 3.40104 12.2656 3.64844 12.7344 4.11719C13.1771 4.5599 13.4115 5.13281 13.4375 5.83594C13.4115 6.77344 12.9948 7.48958 12.1875 7.98438L10.9375 8.6875C10.8854 9.26042 10.5729 9.57292 10 9.625C9.42708 9.57292 9.11458 9.26042 9.0625 8.6875V8.17969C9.0625 7.8151 9.21875 7.54167 9.53125 7.35938L11.25 6.34375C11.4583 6.23958 11.5625 6.07031 11.5625 5.83594C11.5365 5.47135 11.3411 5.27604 10.9766 5.25H8.71094C8.55469 5.25 8.45052 5.3151 8.39844 5.44531V5.52344C8.13802 6.04427 7.73438 6.22656 7.1875 6.07031C6.66667 5.83594 6.48438 5.44531 6.64062 4.89844V4.82031ZM11.25 12.125C11.25 12.4896 11.1328 12.7891 10.8984 13.0234C10.6641 13.2578 10.3646 13.375 10 13.375C9.63542 13.375 9.33594 13.2578 9.10156 13.0234C8.86719 12.7891 8.75 12.4896 8.75 12.125C8.75 11.7604 8.86719 11.4609 9.10156 11.2266C9.33594 10.9922 9.63542 10.875 10 10.875C10.3646 10.875 10.6641 10.9922 10.8984 11.2266C11.1328 11.4609 11.25 11.7604 11.25 12.125Z" fill="white"/>
</svg>
