<svg width="14" height="10" viewBox="0 0 14 10" fill="none" xmlns="http://www.w3.org/2000/svg">
<path d="M12.8789 0.871094C13.043 1.05339 13.125 1.26302 13.125 1.5C13.125 1.73698 13.043 1.94661 12.8789 2.12891L5.87891 9.12891C5.69661 9.29297 5.48698 9.375 5.25 9.375C5.01302 9.375 4.80339 9.29297 4.62109 9.12891L1.12109 5.62891C0.957031 5.44661 0.875 5.23698 0.875 5C0.875 4.76302 0.957031 4.55339 1.12109 4.37109C1.30339 4.20703 1.51302 4.125 1.75 4.125C1.98698 4.125 2.19661 4.20703 2.37891 4.37109L5.25 7.26953L11.6211 0.871094C11.8034 0.707031 12.013 0.625 12.25 0.625C12.487 0.625 12.6966 0.707031 12.8789 0.871094Z" fill="#04B700"/>
</svg>
