<svg width="12" height="12" viewBox="0 0 12 12" fill="none" xmlns="http://www.w3.org/2000/svg">
<path d="M11.7375 1.5375C12.0875 1.1125 12.0875 0.6875 11.7375 0.2625C11.3125 -0.0875 10.8875 -0.0875 10.4625 0.2625L6 4.725L1.5375 0.2625C1.1125 -0.0875 0.6875 -0.0875 0.2625 0.2625C-0.0875 0.6875 -0.0875 1.1125 0.2625 1.5375L4.725 6L0.2625 10.4625C-0.0875 10.8875 -0.0875 11.3125 0.2625 11.7375C0.6875 12.0875 1.1125 12.0875 1.5375 11.7375L6 7.275L10.4625 11.7375C10.8875 12.0875 11.3125 12.0875 11.7375 11.7375C12.0875 11.3125 12.0875 10.8875 11.7375 10.4625L7.275 6L11.7375 1.5375Z" fill="#C8C9CC"/>
</svg>
