<svg width="18" height="14" viewBox="0 0 18 14" fill="none" xmlns="http://www.w3.org/2000/svg">
<path d="M11.3906 0.25C11.6719 0.25 11.9062 0.34375 12.0938 0.53125C12.2812 0.71875 12.375 0.953125 12.375 1.23438C12.375 1.46875 12.293 1.67969 12.1289 1.86719L8.4375 6.08594V12.9062C8.39062 13.4219 8.10938 13.7031 7.59375 13.75C7.38281 13.75 7.20703 13.6914 7.06641 13.5742L4.39453 11.5703C4.08984 11.3359 3.9375 11.0312 3.9375 10.6562V6.08594L0.246094 1.86719C0.0820313 1.67969 0 1.46875 0 1.23438C0 0.953125 0.09375 0.71875 0.28125 0.53125C0.46875 0.34375 0.703125 0.25 0.984375 0.25H11.3906ZM5.0625 5.875V10.6562L7.3125 12.3438V5.83984C7.3125 5.72266 7.34766 5.61719 7.41797 5.52344L11.0742 1.33984H1.30078L4.92188 5.52344C5.01562 5.61719 5.05078 5.72266 5.02734 5.83984L5.0625 5.875ZM17.4375 12.0625C17.7891 12.0859 17.9766 12.2734 18 12.625C17.9766 12.9766 17.7891 13.1641 17.4375 13.1875H11.8125C11.4609 13.1641 11.2734 12.9766 11.25 12.625C11.2734 12.2734 11.4609 12.0859 11.8125 12.0625H17.4375ZM11.25 7C11.2734 6.64844 11.4609 6.46094 11.8125 6.4375H17.4375C17.7891 6.46094 17.9766 6.64844 18 7C17.9766 7.35156 17.7891 7.53906 17.4375 7.5625H11.8125C11.4609 7.53906 11.2734 7.35156 11.25 7ZM17.4375 0.8125C17.7891 0.835938 17.9766 1.02344 18 1.375C17.9766 1.72656 17.7891 1.91406 17.4375 1.9375H14.0625C13.7109 1.91406 13.5234 1.72656 13.5 1.375C13.5234 1.02344 13.7109 0.835938 14.0625 0.8125H17.4375Z" fill="#2B2E33"/>
</svg>
