<svg width="16" height="14" viewBox="0 0 16 14" fill="none" xmlns="http://www.w3.org/2000/svg">
<path fill-rule="evenodd" clip-rule="evenodd" d="M2.18342 7.48353L2.18448 7.48452L7.80406 12.7607C7.87153 12.8216 7.92291 12.8386 8 12.8386C8.07708 12.8386 8.12846 12.8216 8.19592 12.7607L13.8166 7.48353C14.5938 6.75595 14.9817 5.88173 15 4.79924V4.6295C14.9815 3.72465 14.7028 2.99963 14.1825 2.40049L14.1741 2.3908C13.6447 1.76515 12.9727 1.36971 12.116 1.20017C11.5378 1.12081 10.986 1.16391 10.4504 1.32557C9.9481 1.48326 9.49396 1.7588 9.08211 2.17066L8 3.25277L6.91789 2.17066C6.50603 1.7588 6.05189 1.48326 5.54956 1.32556C5.01399 1.16391 4.46224 1.12081 3.88396 1.20017C3.02732 1.36971 2.35528 1.76509 1.82589 2.39074L1.8176 2.40054C1.29729 2.99969 1.01847 3.72466 1 4.62951V4.79924C1.01833 5.88173 1.40624 6.75595 2.18342 7.48353ZM0 4.8073V4.6198C0.0208333 3.4948 0.375 2.53647 1.0625 1.7448C1.75 0.932302 2.63542 0.421885 3.71875 0.213552C4.44792 0.109385 5.15625 0.161469 5.84375 0.369802C6.51042 0.578135 7.10417 0.942719 7.625 1.46355L8 1.83855L8.375 1.46355C8.37555 1.463 8.37609 1.46246 8.37664 1.46191C8.89708 0.941953 9.49028 0.577916 10.1562 0.369802C10.8437 0.161469 11.5521 0.109385 12.2812 0.213552C13.3646 0.421885 14.25 0.932302 14.9375 1.7448C15.625 2.53647 15.9792 3.4948 16 4.6198V4.8073C15.9792 6.16147 15.4792 7.29689 14.5 8.21355L8.875 13.4948C8.625 13.724 8.33333 13.8386 8 13.8386C7.66667 13.8386 7.375 13.724 7.125 13.4948L1.5 8.21355C0.520833 7.29689 0.0208333 6.16147 0 4.8073Z" fill="#7D7E80"/>
</svg>
