<svg width="24" height="21" viewBox="0 0 24 21" fill="none" xmlns="http://www.w3.org/2000/svg">
<path d="M22.6797 10.0312C22.9401 10.2917 22.9401 10.5911 22.6797 10.9297C22.4453 11.1901 22.1589 11.1901 21.8203 10.9297L20.375 9.64062V17.375C20.349 18.2604 20.0495 19.0026 19.4766 19.6016C18.8776 20.1745 18.1354 20.474 17.25 20.5H6C5.11458 20.474 4.3724 20.1745 3.77344 19.6016C3.20052 19.0026 2.90104 18.2604 2.875 17.375V9.64062L1.42969 10.9297C1.11719 11.1901 0.817708 11.1901 0.53125 10.9297C0.296875 10.5911 0.309896 10.2917 0.570312 10.0312L11.1953 0.65625C11.4818 0.447917 11.7682 0.447917 12.0547 0.65625L22.6797 10.0312ZM6 19.25H8.5V13C8.5 12.6354 8.61719 12.3359 8.85156 12.1016C9.08594 11.8672 9.38542 11.75 9.75 11.75H13.5C13.8646 11.75 14.1641 11.8672 14.3984 12.1016C14.6328 12.3359 14.75 12.6354 14.75 13V19.25H17.25C17.7708 19.224 18.2135 19.0417 18.5781 18.7031C18.9167 18.3385 19.099 17.8958 19.125 17.375V8.58594L11.625 1.94531L4.125 8.58594V17.375C4.15104 17.8958 4.33333 18.3385 4.67188 18.7031C5.03646 19.0417 5.47917 19.224 6 19.25ZM9.75 19.25H13.5V13H9.75V19.25Z" fill="#2B2E33"/>
</svg>
