<svg width="20" height="16" viewBox="0 0 20 16" fill="none" xmlns="http://www.w3.org/2000/svg">
<path d="M1.875 0.5C1.35417 0.526042 0.911458 0.708333 0.546875 1.04688C0.208333 1.41146 0.0260417 1.85417 0 2.375C0.0260417 3 0.273438 3.49479 0.742188 3.85938L9.25781 10.2656C9.7526 10.5781 10.2474 10.5781 10.7422 10.2656L19.2578 3.85938C19.7266 3.49479 19.974 3 20 2.375C19.974 1.85417 19.7917 1.41146 19.4531 1.04688C19.0885 0.708333 18.6458 0.526042 18.125 0.5H1.875ZM0 4.875V13C0.0260417 13.7031 0.273438 14.2891 0.742188 14.7578C1.21094 15.2266 1.79688 15.474 2.5 15.5H17.5C18.2031 15.474 18.7891 15.2266 19.2578 14.7578C19.7266 14.2891 19.974 13.7031 20 13V4.875L11.4844 11.2422C11.0417 11.5807 10.5469 11.75 10 11.75C9.45312 11.75 8.95833 11.5807 8.51562 11.2422L0 4.875Z" fill="white"/>
</svg>
