<svg width="10" height="12" viewBox="0 0 10 12" fill="none" xmlns="http://www.w3.org/2000/svg">
<path d="M1.625 5.25V8.25C1.64062 9 1.89844 9.61719 2.39844 10.1016C2.88281 10.6016 3.5 10.8594 4.25 10.875H5.75C6.5 10.8594 7.11719 10.6016 7.60156 10.1016C8.10156 9.61719 8.35938 9 8.375 8.25V5.25H1.625ZM9.5 8.25C9.46875 9.3125 9.10156 10.1953 8.39844 10.8984C7.69531 11.6016 6.8125 11.9688 5.75 12H4.25C3.1875 11.9688 2.30469 11.6016 1.60156 10.8984C0.898438 10.1953 0.53125 9.3125 0.5 8.25V3.75C0.53125 2.6875 0.898438 1.80469 1.60156 1.10156C2.30469 0.398438 3.1875 0.03125 4.25 0H5.75C6.8125 0.03125 7.69531 0.398438 8.39844 1.10156C9.10156 1.80469 9.46875 2.6875 9.5 3.75V8.25ZM5.5625 1.125V4.125H8.375V3.75C8.35938 3 8.10156 2.38281 7.60156 1.89844C7.11719 1.39844 6.5 1.14062 5.75 1.125H5.5625ZM4.4375 1.125H4.25C3.5 1.14062 2.88281 1.39844 2.39844 1.89844C1.89844 2.38281 1.64062 3 1.625 3.75V4.125H4.4375V1.125Z" fill="#7D7E80"/>
</svg>
