<svg width="12" height="12" viewBox="0 0 12 12" fill="none" xmlns="http://www.w3.org/2000/svg">
<path d="M4.3125 0.5625C4.28125 0.21875 4.09375 0.03125 3.75 0C3.40625 0.03125 3.21875 0.21875 3.1875 0.5625V1.5H3C2.57812 1.51562 2.22656 1.66406 1.94531 1.94531C1.66406 2.22656 1.51562 2.57812 1.5 3V3.1875H0.5625C0.21875 3.21875 0.03125 3.40625 0 3.75C0.03125 4.09375 0.21875 4.28125 0.5625 4.3125H1.5V5.4375H0.5625C0.21875 5.46875 0.03125 5.65625 0 6C0.03125 6.34375 0.21875 6.53125 0.5625 6.5625H1.5V7.6875H0.5625C0.21875 7.71875 0.03125 7.90625 0 8.25C0.03125 8.59375 0.21875 8.78125 0.5625 8.8125H1.5V9C1.51562 9.42188 1.66406 9.77344 1.94531 10.0547C2.22656 10.3359 2.57812 10.4844 3 10.5H3.1875V11.4375C3.21875 11.7812 3.40625 11.9688 3.75 12C4.09375 11.9688 4.28125 11.7812 4.3125 11.4375V10.5H5.4375V11.4375C5.46875 11.7812 5.65625 11.9688 6 12C6.34375 11.9688 6.53125 11.7812 6.5625 11.4375V10.5H7.6875V11.4375C7.71875 11.7812 7.90625 11.9688 8.25 12C8.59375 11.9688 8.78125 11.7812 8.8125 11.4375V10.5H9C9.42188 10.4844 9.77344 10.3359 10.0547 10.0547C10.3359 9.77344 10.4844 9.42188 10.5 9V8.8125H11.4375C11.7812 8.78125 11.9688 8.59375 12 8.25C11.9688 7.90625 11.7812 7.71875 11.4375 7.6875H10.5V6.5625H11.4375C11.7812 6.53125 11.9688 6.34375 12 6C11.9688 5.65625 11.7812 5.46875 11.4375 5.4375H10.5V4.3125H11.4375C11.7812 4.28125 11.9688 4.09375 12 3.75C11.9688 3.40625 11.7812 3.21875 11.4375 3.1875H10.5V3C10.4844 2.57812 10.3359 2.22656 10.0547 1.94531C9.77344 1.66406 9.42188 1.51562 9 1.5H8.8125V0.5625C8.78125 0.21875 8.59375 0.03125 8.25 0C7.90625 0.03125 7.71875 0.21875 7.6875 0.5625V1.5H6.5625V0.5625C6.53125 0.21875 6.34375 0.03125 6 0C5.65625 0.03125 5.46875 0.21875 5.4375 0.5625V1.5H4.3125V0.5625ZM2.625 3C2.64062 2.76562 2.76562 2.64062 3 2.625H9C9.23438 2.64062 9.35938 2.76562 9.375 3V9C9.35938 9.23438 9.23438 9.35938 9 9.375H3C2.76562 9.35938 2.64062 9.23438 2.625 9V3ZM7.875 4.03125C7.59375 4.0625 7.4375 4.21875 7.40625 4.5V7.5C7.4375 7.78125 7.59375 7.9375 7.875 7.96875C8.15625 7.9375 8.3125 7.78125 8.34375 7.5V4.5C8.3125 4.21875 8.15625 4.0625 7.875 4.03125ZM5.48438 4.3125C5.40625 4.14062 5.26562 4.04688 5.0625 4.03125C4.85938 4.04688 4.71875 4.14062 4.64062 4.3125L3.32812 7.3125C3.23438 7.57812 3.3125 7.78125 3.5625 7.92188C3.82812 8.01562 4.03125 7.9375 4.17188 7.6875L4.3125 7.40625H5.8125L5.95312 7.6875C6.09375 7.9375 6.29688 8.01562 6.5625 7.92188C6.8125 7.78125 6.89062 7.57812 6.79688 7.3125L5.48438 4.3125ZM5.0625 5.67188L5.41406 6.46875H4.71094L5.0625 5.67188Z" fill="#7D7E80"/>
</svg>
