<svg width="16" height="12" viewBox="0 0 16 12" fill="none" xmlns="http://www.w3.org/2000/svg">
<path d="M12.5 1.875H3.5C3.26562 1.89062 3.14062 2.01562 3.125 2.25V7.5H2V2.25C2.01562 1.82812 2.16406 1.47656 2.44531 1.19531C2.72656 0.914062 3.07812 0.765625 3.5 0.75H12.5C12.9219 0.765625 13.2734 0.914062 13.5547 1.19531C13.8359 1.47656 13.9844 1.82812 14 2.25V7.5H12.875V2.25C12.8594 2.01562 12.7344 1.89062 12.5 1.875ZM2.75 10.125H13.25C13.7656 10.0938 14.1172 9.84375 14.3047 9.375H1.69531C1.88281 9.84375 2.23438 10.0938 2.75 10.125ZM0.5 9C0.5 8.78125 0.570312 8.60156 0.710938 8.46094C0.851562 8.32031 1.03125 8.25 1.25 8.25H14.75C14.9688 8.25 15.1484 8.32031 15.2891 8.46094C15.4297 8.60156 15.5 8.78125 15.5 9C15.4844 9.64062 15.2656 10.1719 14.8438 10.5938C14.4219 11.0156 13.8906 11.2344 13.25 11.25H2.75C2.10938 11.2344 1.57812 11.0156 1.15625 10.5938C0.734375 10.1719 0.515625 9.64062 0.5 9Z" fill="#7D7E80"/>
</svg>
