<svg width="16" height="12" viewBox="0 0 16 12" fill="none" xmlns="http://www.w3.org/2000/svg">
<path d="M9.5 1.875C9.73438 1.89062 9.85938 2.01562 9.875 2.25V7.5C9.85938 7.73438 9.73438 7.85938 9.5 7.875H2C1.76562 7.85938 1.64062 7.73438 1.625 7.5V2.25C1.64062 2.01562 1.76562 1.89062 2 1.875H9.5ZM2 9H4.03906L3.66406 10.125H2.5625C2.21875 10.1562 2.03125 10.3438 2 10.6875C2.03125 11.0312 2.21875 11.2188 2.5625 11.25H8.9375C9.28125 11.2188 9.46875 11.0312 9.5 10.6875C9.46875 10.3438 9.28125 10.1562 8.9375 10.125H7.83594L7.46094 9H9.5C9.92188 8.98438 10.2734 8.83594 10.5547 8.55469C10.8359 8.27344 10.9844 7.92188 11 7.5V2.25C10.9844 1.82812 10.8359 1.47656 10.5547 1.19531C10.2734 0.914062 9.92188 0.765625 9.5 0.75H2C1.57812 0.765625 1.22656 0.914062 0.945312 1.19531C0.664062 1.47656 0.515625 1.82812 0.5 2.25V7.5C0.515625 7.92188 0.664062 8.27344 0.945312 8.55469C1.22656 8.83594 1.57812 8.98438 2 9ZM4.83594 10.125L5.21094 9H6.28906L6.66406 10.125H4.83594ZM12.875 1.875H14.375V2.625H12.875V1.875ZM12.875 3.75H14.375V4.5H12.875V3.75ZM14.375 5.625V10.125H12.875V5.625H14.375ZM11.75 1.875V10.125C11.7656 10.4375 11.875 10.7031 12.0781 10.9219C12.2969 11.125 12.5625 11.2344 12.875 11.25H14.375C14.6875 11.2344 14.9531 11.125 15.1719 10.9219C15.375 10.7031 15.4844 10.4375 15.5 10.125V1.875C15.4844 1.5625 15.375 1.29688 15.1719 1.07812C14.9531 0.875 14.6875 0.765625 14.375 0.75H12.875C12.5625 0.765625 12.2969 0.875 12.0781 1.07812C11.875 1.29688 11.7656 1.5625 11.75 1.875ZM13.625 8.4375C13.9688 8.40625 14.1562 8.21875 14.1875 7.875C14.1562 7.53125 13.9688 7.34375 13.625 7.3125C13.2812 7.34375 13.0938 7.53125 13.0625 7.875C13.0938 8.21875 13.2812 8.40625 13.625 8.4375Z" fill="#7D7E80"/>
</svg>
