<svg width="26" height="19" viewBox="0 0 26 19" fill="none" xmlns="http://www.w3.org/2000/svg">
<path d="M0.5 12V3.25C0.526042 2.54688 0.773438 1.96094 1.24219 1.49219C1.71094 1.02344 2.29688 0.776042 3 0.75H15.5C16.2031 0.776042 16.7891 1.02344 17.2578 1.49219C17.7266 1.96094 17.974 2.54688 18 3.25V12C17.974 12.7031 17.7266 13.2891 17.2578 13.7578C16.7891 14.2266 16.2031 14.474 15.5 14.5H11.6719L12.5312 17H14.875C15.2656 17.026 15.474 17.2344 15.5 17.625C15.474 18.0156 15.2656 18.224 14.875 18.25H3.625C3.23438 18.224 3.02604 18.0156 3 17.625C3.02604 17.2344 3.23438 17.026 3.625 17H6.00781L6.82812 14.5H3C2.29688 14.474 1.71094 14.2266 1.24219 13.7578C0.773438 13.2891 0.526042 12.7031 0.5 12ZM15.5 2H3C2.63542 2 2.33594 2.11719 2.10156 2.35156C1.86719 2.58594 1.75 2.88542 1.75 3.25V12C1.75 12.3646 1.86719 12.6641 2.10156 12.8984C2.33594 13.1328 2.63542 13.25 3 13.25H15.5C15.8646 13.25 16.1641 13.1328 16.3984 12.8984C16.6328 12.6641 16.75 12.3646 16.75 12V3.25C16.75 2.88542 16.6328 2.58594 16.3984 2.35156C16.1641 2.11719 15.8646 2 15.5 2ZM11.2031 17L10.3828 14.5H8.15625L7.29688 17H11.2031ZM21.4375 12.625C21.4896 12.0521 21.8021 11.7396 22.375 11.6875C22.9479 11.7396 23.2604 12.0521 23.3125 12.625C23.2604 13.1979 22.9479 13.5104 22.375 13.5625C21.8021 13.5104 21.4896 13.1979 21.4375 12.625ZM19.25 2.625C19.276 2.10417 19.4583 1.66146 19.7969 1.29688C20.1615 0.958333 20.6042 0.776042 21.125 0.75H23.625C24.1458 0.776042 24.5885 0.958333 24.9531 1.29688C25.2917 1.66146 25.474 2.10417 25.5 2.625V16.375C25.474 16.8958 25.2917 17.3385 24.9531 17.7031C24.5885 18.0417 24.1458 18.224 23.625 18.25H21.125C20.6042 18.224 20.1615 18.0417 19.7969 17.7031C19.4583 17.3385 19.276 16.8958 19.25 16.375V2.625ZM20.5 2.625V4.5H24.25V2.625C24.224 2.23438 24.0156 2.02604 23.625 2H21.125C20.7344 2.02604 20.526 2.23438 20.5 2.625ZM20.5 5.75V7H24.25V5.75H20.5ZM21.125 17H23.625C24.0156 16.974 24.224 16.7656 24.25 16.375V8.25H20.5V16.375C20.526 16.7656 20.7344 16.974 21.125 17Z" fill="#366CD9"/>
</svg>
