<svg width="20" height="18" viewBox="0 0 20 18" fill="none" xmlns="http://www.w3.org/2000/svg">
<path d="M0 4.50781C0 4.16927 0.130208 3.88281 0.390625 3.64844C0.963542 3.10156 2.07031 2.42448 3.71094 1.61719C5.35156 0.783854 7.44792 0.328125 10 0.25C12.5521 0.328125 14.6484 0.783854 16.2891 1.61719C17.9297 2.42448 19.0365 3.10156 19.6094 3.64844C19.8698 3.88281 20 4.16927 20 4.50781V5.875C20 6.23958 19.8828 6.53906 19.6484 6.77344C19.4141 7.00781 19.1146 7.125 18.75 7.125H17.1094C16.5625 7.09896 16.1719 6.83854 15.9375 6.34375L15.1953 4.42969C15.0651 4.14323 14.8568 3.9349 14.5703 3.80469C14.2057 3.64844 13.6328 3.49219 12.8516 3.33594C12.0703 3.17969 11.1198 3.08854 10 3.0625C8.88021 3.08854 7.92969 3.17969 7.14844 3.33594C6.36719 3.49219 5.79427 3.64844 5.42969 3.80469C5.14323 3.9349 4.94792 4.14323 4.84375 4.42969L4.0625 6.34375C3.82812 6.83854 3.4375 7.09896 2.89062 7.125H1.25C0.885417 7.125 0.585938 7.00781 0.351562 6.77344C0.117188 6.53906 0 6.23958 0 5.875V4.50781ZM1.25 15.875V14.6641C1.25 14.2214 1.35417 13.8047 1.5625 13.4141L5.54688 6.5C6.04167 5.69271 6.75781 5.27604 7.69531 5.25H12.3047C13.2422 5.27604 13.9714 5.69271 14.4922 6.5L18.4375 13.4141C18.6458 13.8047 18.75 14.2214 18.75 14.6641V15.875C18.724 16.3958 18.5417 16.8385 18.2031 17.2031C17.8385 17.5417 17.3958 17.724 16.875 17.75H3.125C2.60417 17.724 2.16146 17.5417 1.79688 17.2031C1.45833 16.8385 1.27604 16.3958 1.25 15.875ZM12.8125 11.1875C12.7865 10.3802 12.513 9.71615 11.9922 9.19531C11.4714 8.67448 10.8073 8.40104 10 8.375C9.19271 8.40104 8.52865 8.67448 8.00781 9.19531C7.48698 9.71615 7.21354 10.3802 7.1875 11.1875C7.21354 11.9948 7.48698 12.6589 8.00781 13.1797C8.52865 13.7005 9.19271 13.974 10 14C10.8073 13.974 11.4714 13.7005 11.9922 13.1797C12.513 12.6589 12.7865 11.9948 12.8125 11.1875Z" fill="#2B2E33"/>
</svg>
