<svg width="10" height="12" viewBox="0 0 10 12" fill="none" xmlns="http://www.w3.org/2000/svg">
<path d="M3.5 0.5625C3.46875 0.21875 3.28125 0.03125 2.9375 0C2.59375 0.03125 2.40625 0.21875 2.375 0.5625V2.625H3.5V0.5625ZM7.625 0.5625C7.59375 0.21875 7.40625 0.03125 7.0625 0C6.71875 0.03125 6.53125 0.21875 6.5 0.5625V2.625H7.625V0.5625ZM1.0625 3.375C0.71875 3.40625 0.53125 3.59375 0.5 3.9375C0.53125 4.28125 0.71875 4.46875 1.0625 4.5H1.25V6C1.26562 6.95312 1.57031 7.77344 2.16406 8.46094C2.75781 9.13281 3.51562 9.54688 4.4375 9.70312V11.4375C4.46875 11.7812 4.65625 11.9688 5 12C5.34375 11.9688 5.53125 11.7812 5.5625 11.4375V9.70312C6.48438 9.54688 7.24219 9.13281 7.83594 8.46094C8.42969 7.77344 8.73438 6.95312 8.75 6V4.5H8.9375C9.28125 4.46875 9.46875 4.28125 9.5 3.9375C9.46875 3.59375 9.28125 3.40625 8.9375 3.375H1.0625ZM5 8.625C4.25 8.60938 3.63281 8.35156 3.14844 7.85156C2.64844 7.36719 2.39062 6.75 2.375 6V4.5H7.625V6C7.60938 6.75 7.35156 7.36719 6.85156 7.85156C6.36719 8.35156 5.75 8.60938 5 8.625Z" fill="#7D7E80"/>
</svg>
