<svg width="12" height="12" viewBox="0 0 12 12" fill="none" xmlns="http://www.w3.org/2000/svg">
<path d="M2.625 3.75V1.5C2.64062 1.26562 2.76562 1.14062 3 1.125H8.39062C8.48438 1.125 8.57031 1.16406 8.64844 1.24219L9.25781 1.85156C9.33594 1.92969 9.375 2.02344 9.375 2.13281V3.75H10.5V2.13281C10.5 1.71094 10.3516 1.35156 10.0547 1.05469L9.44531 0.445312C9.14844 0.148438 8.79688 0 8.39062 0H3C2.57812 0.015625 2.22656 0.164062 1.94531 0.445312C1.66406 0.726562 1.51562 1.07812 1.5 1.5V3.75H2.625ZM3 8.625H9V10.875H3V8.625ZM2.625 7.5C2.40625 7.5 2.22656 7.57031 2.08594 7.71094C1.94531 7.85156 1.875 8.03125 1.875 8.25H1.125V6C1.14062 5.76562 1.26562 5.64062 1.5 5.625H10.5C10.7344 5.64062 10.8594 5.76562 10.875 6V8.25H10.125C10.125 8.03125 10.0547 7.85156 9.91406 7.71094C9.77344 7.57031 9.59375 7.5 9.375 7.5H2.625ZM10.125 9.375H11.25C11.4688 9.375 11.6484 9.30469 11.7891 9.16406C11.9297 9.02344 12 8.84375 12 8.625V6C11.9844 5.57812 11.8359 5.22656 11.5547 4.94531C11.2734 4.66406 10.9219 4.51562 10.5 4.5H1.5C1.07812 4.51562 0.726562 4.66406 0.445312 4.94531C0.164062 5.22656 0.015625 5.57812 0 6V8.625C0 8.84375 0.0703125 9.02344 0.210938 9.16406C0.351562 9.30469 0.53125 9.375 0.75 9.375H1.875V11.25C1.875 11.4688 1.94531 11.6484 2.08594 11.7891C2.22656 11.9297 2.40625 12 2.625 12H9.375C9.59375 12 9.77344 11.9297 9.91406 11.7891C10.0547 11.6484 10.125 11.4688 10.125 11.25V9.375Z" fill="#7D7E80"/>
</svg>
