<svg width="12" height="12" viewBox="0 0 12 12" fill="none" xmlns="http://www.w3.org/2000/svg">
<path d="M1.85205 0.117676C1.58643 -0.0541992 1.33643 -0.0385742 1.10205 0.164551L0.164551 1.10205C-0.0385742 1.33643 -0.0541992 1.58643 0.117676 1.85205L1.99268 4.28955C2.10205 4.43018 2.25049 4.50049 2.43799 4.50049H3.70361L6.2583 7.05518C6.08643 7.39893 6.03174 7.76611 6.09424 8.15674C6.14111 8.53174 6.30518 8.86768 6.58643 9.16455L9.21143 11.7896C9.36768 11.9302 9.54736 12.0005 9.75049 12.0005C9.95361 12.0005 10.1333 11.9302 10.2896 11.7896L11.7896 10.2896C11.9302 10.1333 12.0005 9.95361 12.0005 9.75049C12.0005 9.54736 11.9302 9.36768 11.7896 9.21143L9.16455 6.58643C8.86768 6.30518 8.53174 6.14111 8.15674 6.09424C7.76611 6.03174 7.39893 6.08643 7.05518 6.2583L4.50049 3.70361V2.43799C4.50049 2.25049 4.43018 2.10205 4.28955 1.99268L1.85205 0.117676ZM0.539551 8.83643C0.180176 9.1958 0.000488281 9.6333 0.000488281 10.1489C0.0161133 10.6646 0.195801 11.1021 0.539551 11.4614C0.898926 11.8052 1.33643 11.9849 1.85205 12.0005C2.36768 12.0005 2.80518 11.8208 3.16455 11.4614L5.60205 9.04736C5.3833 8.62549 5.28955 8.18018 5.3208 7.71143L2.36768 10.6646C2.22705 10.8052 2.05518 10.8755 1.85205 10.8755C1.64893 10.8755 1.47705 10.8052 1.33643 10.6646C1.1958 10.5239 1.12549 10.3521 1.12549 10.1489C1.12549 9.9458 1.1958 9.77393 1.33643 9.6333L4.54736 6.42236L3.75049 5.62549L0.539551 8.83643ZM10.8755 3.84424C10.8599 4.29736 10.7349 4.71143 10.5005 5.08643C10.2817 5.46143 9.98486 5.76611 9.60986 6.00049C9.64111 6.01611 9.66455 6.03955 9.68018 6.0708L10.4302 6.79736C10.9146 6.45361 11.2974 6.02393 11.5786 5.5083C11.8599 4.97705 12.0005 4.39111 12.0005 3.75049C12.0005 3.17236 11.8755 2.6333 11.6255 2.1333C11.4849 1.91455 11.3052 1.8833 11.0864 2.03955L9.49268 3.6333C9.41455 3.71143 9.3208 3.75049 9.21143 3.75049H8.62549C8.39111 3.73486 8.26611 3.60986 8.25049 3.37549V2.78955C8.25049 2.68018 8.28955 2.58643 8.36768 2.5083L9.96143 0.914551C10.1177 0.695801 10.0864 0.516113 9.86768 0.375488C9.36768 0.125488 8.82861 0.000488281 8.25049 0.000488281C7.57861 0.000488281 6.96143 0.164551 6.39893 0.492676C5.85205 0.805176 5.40674 1.22705 5.06299 1.7583C5.18799 1.97705 5.25049 2.20361 5.25049 2.43799V3.39893L5.62549 3.77393V3.75049C5.64111 3.01611 5.89111 2.40674 6.37549 1.92236C6.84424 1.43799 7.43799 1.17236 8.15674 1.12549L7.5708 1.71143C7.27393 2.0083 7.12549 2.36768 7.12549 2.78955V3.37549C7.14111 3.79736 7.28955 4.14893 7.5708 4.43018C7.85205 4.71143 8.20361 4.85986 8.62549 4.87549H9.21143C9.6333 4.87549 9.99268 4.72705 10.2896 4.43018L10.8755 3.84424Z" fill="#7D7E80"/>
</svg>
