<svg width="12" height="12" viewBox="0 0 12 12" fill="none" xmlns="http://www.w3.org/2000/svg">
<path d="M4.5 0.5625C4.53125 0.90625 4.71875 1.09375 5.0625 1.125C6.14062 1.14062 7.11719 1.40625 7.99219 1.92188C8.86719 2.4375 9.5625 3.13281 10.0781 4.00781C10.5938 4.88281 10.8594 5.85938 10.875 6.9375C10.9062 7.28125 11.0938 7.46875 11.4375 7.5C11.7812 7.46875 11.9688 7.28125 12 6.9375C11.9844 5.64062 11.6719 4.47656 11.0625 3.44531C10.4375 2.39844 9.60156 1.5625 8.55469 0.9375C7.52344 0.328125 6.35938 0.015625 5.0625 0C4.71875 0.03125 4.53125 0.21875 4.5 0.5625ZM5.0625 2.4375C4.71875 2.46875 4.53125 2.65625 4.5 3C4.53125 3.34375 4.71875 3.53125 5.0625 3.5625C6.01562 3.59375 6.8125 3.92188 7.45312 4.54688C8.07812 5.1875 8.40625 5.98438 8.4375 6.9375C8.46875 7.28125 8.65625 7.46875 9 7.5C9.34375 7.46875 9.53125 7.28125 9.5625 6.9375C9.53125 5.65625 9.09375 4.59375 8.25 3.75C7.40625 2.90625 6.34375 2.46875 5.0625 2.4375ZM4.89844 7.89844L5.83594 6.96094C6.05469 6.69531 6.05469 6.42969 5.83594 6.16406C5.57031 5.94531 5.30469 5.94531 5.03906 6.16406L4.10156 7.10156L1.66406 4.66406C1.49219 4.50781 1.30469 4.4375 1.10156 4.45312C0.882812 4.46875 0.71875 4.57031 0.609375 4.75781C0.21875 5.47656 0.015625 6.26562 0 7.125C0.03125 8.5 0.507812 9.64844 1.42969 10.5703C2.35156 11.4922 3.5 11.9688 4.875 12C5.73438 11.9844 6.52344 11.7812 7.24219 11.3906C7.42969 11.2812 7.53125 11.1172 7.54688 10.8984C7.5625 10.6953 7.49219 10.5078 7.33594 10.3359L4.89844 7.89844ZM1.125 7.125C1.125 6.70312 1.19531 6.29688 1.33594 5.90625L6.09375 10.6875C5.70312 10.8125 5.29688 10.875 4.875 10.875C3.8125 10.8438 2.92969 10.4766 2.22656 9.77344C1.52344 9.07031 1.15625 8.1875 1.125 7.125Z" fill="#7D7E80"/>
</svg>
