<svg width="16" height="16" viewBox="0 0 16 16" fill="none" xmlns="http://www.w3.org/2000/svg">
<path d="M15.2692 14.2988L11.3434 10.373C12.2028 9.29883 12.6422 8.03906 12.6617 6.59375C12.6227 4.875 12.027 3.43945 10.8746 2.28711C9.72229 1.13477 8.28674 0.539062 6.56799 0.5C4.84924 0.539062 3.4137 1.13477 2.26135 2.28711C1.12854 3.43945 0.542603 4.875 0.50354 6.59375C0.542603 8.3125 1.13831 9.74805 2.29065 10.9004C3.42346 12.0527 4.84924 12.6484 6.56799 12.6875C8.03284 12.668 9.2926 12.2285 10.3473 11.3691L14.2731 15.2949C14.4489 15.4316 14.6246 15.5 14.8004 15.5C14.9957 15.5 15.1617 15.4316 15.2985 15.2949C15.5719 14.9629 15.5621 14.6309 15.2692 14.2988ZM1.90979 6.59375C1.94885 5.26562 2.40784 4.16211 3.28674 3.2832C4.16565 2.4043 5.26917 1.94531 6.59729 1.90625C7.92542 1.94531 9.02893 2.4043 9.90784 3.2832C10.7867 4.16211 11.2457 5.26562 11.2848 6.59375C11.2457 7.92188 10.7867 9.02539 9.90784 9.9043C9.02893 10.7832 7.92542 11.2422 6.59729 11.2812C5.26917 11.2422 4.16565 10.7832 3.28674 9.9043C2.40784 9.02539 1.94885 7.92188 1.90979 6.59375Z" fill="#2B2E33"/>
</svg>
