<svg width="12" height="12" viewBox="0 0 12 12" fill="none" xmlns="http://www.w3.org/2000/svg">
<path d="M1.5 1.875C1.26562 1.89062 1.14062 2.01562 1.125 2.25V3.75C1.14062 3.98438 1.26562 4.10938 1.5 4.125H10.5C10.7344 4.10938 10.8594 3.98438 10.875 3.75V2.25C10.8594 2.01562 10.7344 1.89062 10.5 1.875H1.5ZM0 2.25C0.015625 1.82812 0.164062 1.47656 0.445312 1.19531C0.726562 0.914062 1.07812 0.765625 1.5 0.75H10.5C10.9219 0.765625 11.2734 0.914062 11.5547 1.19531C11.8359 1.47656 11.9844 1.82812 12 2.25V3.75C11.9844 4.17188 11.8359 4.52344 11.5547 4.80469C11.2734 5.08594 10.9219 5.23438 10.5 5.25H1.5C1.07812 5.23438 0.726562 5.08594 0.445312 4.80469C0.164062 4.52344 0.015625 4.17188 0 3.75V2.25ZM1.5 7.875C1.26562 7.89062 1.14062 8.01562 1.125 8.25V9.75C1.14062 9.98438 1.26562 10.1094 1.5 10.125H10.5C10.7344 10.1094 10.8594 9.98438 10.875 9.75V8.25C10.8594 8.01562 10.7344 7.89062 10.5 7.875H1.5ZM0 8.25C0.015625 7.82812 0.164062 7.47656 0.445312 7.19531C0.726562 6.91406 1.07812 6.76562 1.5 6.75H10.5C10.9219 6.76562 11.2734 6.91406 11.5547 7.19531C11.8359 7.47656 11.9844 7.82812 12 8.25V9.75C11.9844 10.1719 11.8359 10.5234 11.5547 10.8047C11.2734 11.0859 10.9219 11.2344 10.5 11.25H1.5C1.07812 11.2344 0.726562 11.0859 0.445312 10.8047C0.164062 10.5234 0.015625 10.1719 0 9.75V8.25ZM9.1875 9C9.21875 8.65625 9.40625 8.46875 9.75 8.4375C10.0938 8.46875 10.2812 8.65625 10.3125 9C10.2812 9.34375 10.0938 9.53125 9.75 9.5625C9.40625 9.53125 9.21875 9.34375 9.1875 9ZM9.75 2.4375C10.0938 2.46875 10.2812 2.65625 10.3125 3C10.2812 3.34375 10.0938 3.53125 9.75 3.5625C9.40625 3.53125 9.21875 3.34375 9.1875 3C9.21875 2.65625 9.40625 2.46875 9.75 2.4375ZM7.6875 9C7.71875 8.65625 7.90625 8.46875 8.25 8.4375C8.59375 8.46875 8.78125 8.65625 8.8125 9C8.78125 9.34375 8.59375 9.53125 8.25 9.5625C7.90625 9.53125 7.71875 9.34375 7.6875 9ZM8.25 2.4375C8.59375 2.46875 8.78125 2.65625 8.8125 3C8.78125 3.34375 8.59375 3.53125 8.25 3.5625C7.90625 3.53125 7.71875 3.34375 7.6875 3C7.71875 2.65625 7.90625 2.46875 8.25 2.4375Z" fill="#7D7E80"/>
</svg>
