<svg width="12" height="12" viewBox="0 0 12 12" fill="none" xmlns="http://www.w3.org/2000/svg">
<path d="M2.625 4.5V1.5C2.64062 1.26562 2.76562 1.14062 3 1.125H8.39062C8.48438 1.125 8.57031 1.16406 8.64844 1.24219L9.25781 1.85156C9.33594 1.92969 9.375 2.02344 9.375 2.13281V4.5H2.625ZM1.5 1.5V4.5C1.07812 4.51562 0.726562 4.66406 0.445312 4.94531C0.164062 5.22656 0.015625 5.57812 0 6V8.25C0 8.46875 0.0703125 8.64844 0.210938 8.78906C0.351562 8.92969 0.53125 9 0.75 9H11.25C11.4688 9 11.6484 8.92969 11.7891 8.78906C11.9297 8.64844 12 8.46875 12 8.25V6C11.9844 5.57812 11.8359 5.22656 11.5547 4.94531C11.2734 4.66406 10.9219 4.51562 10.5 4.5V2.13281C10.5 1.71094 10.3516 1.35156 10.0547 1.05469L9.44531 0.445312C9.14844 0.148438 8.79688 0 8.39062 0H3C2.57812 0.015625 2.22656 0.164062 1.94531 0.445312C1.66406 0.726562 1.51562 1.07812 1.5 1.5ZM10.5 5.625C10.7344 5.64062 10.8594 5.76562 10.875 6V7.875H1.125V6C1.14062 5.76562 1.26562 5.64062 1.5 5.625H10.5ZM0.9375 11.4375C0.96875 11.7812 1.15625 11.9688 1.5 12C1.84375 11.9688 2.03125 11.7812 2.0625 11.4375V9.75H0.9375V11.4375ZM3.1875 11.4375C3.21875 11.7812 3.40625 11.9688 3.75 12C4.09375 11.9688 4.28125 11.7812 4.3125 11.4375V9.75H3.1875V11.4375ZM5.4375 11.4375C5.46875 11.7812 5.65625 11.9688 6 12C6.34375 11.9688 6.53125 11.7812 6.5625 11.4375V9.75H5.4375V11.4375ZM7.6875 11.4375C7.71875 11.7812 7.90625 11.9688 8.25 12C8.59375 11.9688 8.78125 11.7812 8.8125 11.4375V9.75H7.6875V11.4375ZM9.9375 11.4375C9.96875 11.7812 10.1562 11.9688 10.5 12C10.8438 11.9688 11.0312 11.7812 11.0625 11.4375V9.75H9.9375V11.4375Z" fill="white"/>
</svg>
