<svg width="24" height="20" viewBox="0 0 24 20" fill="none" xmlns="http://www.w3.org/2000/svg">
<path fill-rule="evenodd" clip-rule="evenodd" d="M18.3842 19.7791C18.7062 20.0071 19.1212 20.0641 19.4912 19.9241C19.8612 19.7831 20.1332 19.4671 20.2152 19.0841C21.0842 15.0001 23.1922 4.66315 23.9832 0.948148C24.0432 0.668148 23.9432 0.377148 23.7232 0.190148C23.5032 0.00314829 23.1982 -0.0508518 22.9262 0.0501482C18.7332 1.60215 5.82015 6.44715 0.542154 8.40015C0.207154 8.52415 -0.0108463 8.84615 0.000153713 9.19915C0.0121537 9.55315 0.250154 9.86015 0.593154 9.96315C2.96015 10.6711 6.06715 11.6561 6.06715 11.6561C6.06715 11.6561 7.51915 16.0411 8.27615 18.2711C8.37115 18.5511 8.59015 18.7711 8.87915 18.8471C9.16715 18.9221 9.47515 18.8431 9.69015 18.6401C10.9062 17.4921 12.7862 15.7171 12.7862 15.7171C12.7862 15.7171 16.3582 18.3361 18.3842 19.7791ZM7.37415 11.1021L9.05315 16.6401L9.42615 13.1331C9.42615 13.1331 15.9132 7.28215 19.6112 3.94715C19.7192 3.84915 19.7342 3.68515 19.6442 3.57015C19.5552 3.45515 19.3912 3.42815 19.2682 3.50615C14.9822 6.24315 7.37415 11.1021 7.37415 11.1021Z" fill="white"/>
</svg>
