<svg width="14" height="14" viewBox="0 0 14 14" fill="none" xmlns="http://www.w3.org/2000/svg">
<path d="M7 0.875C7.41927 0.893229 7.73828 1.07552 7.95703 1.42188L13.8633 11.4844C14.0456 11.849 14.0456 12.2135 13.8633 12.5781C13.6445 12.9245 13.3255 13.1068 12.9062 13.125H1.09375C0.674479 13.1068 0.355469 12.9245 0.136719 12.5781C-0.0455729 12.2135 -0.0455729 11.849 0.136719 11.4844L6.07031 1.42188C6.28906 1.07552 6.59896 0.893229 7 0.875ZM7 4.375C6.59896 4.41146 6.38021 4.63021 6.34375 5.03125V8.09375C6.38021 8.49479 6.59896 8.71354 7 8.75C7.40104 8.71354 7.61979 8.49479 7.65625 8.09375V5.03125C7.61979 4.63021 7.40104 4.41146 7 4.375ZM7.875 10.5C7.875 10.2448 7.79297 10.0352 7.62891 9.87109C7.46484 9.70703 7.25521 9.625 7 9.625C6.74479 9.625 6.53516 9.70703 6.37109 9.87109C6.20703 10.0352 6.125 10.2448 6.125 10.5C6.125 10.7552 6.20703 10.9648 6.37109 11.1289C6.53516 11.293 6.74479 11.375 7 11.375C7.25521 11.375 7.46484 11.293 7.62891 11.1289C7.79297 10.9648 7.875 10.7552 7.875 10.5Z" fill="#E02A2A"/>
</svg>
