<svg width="16" height="8" viewBox="0 0 16 8" fill="none" xmlns="http://www.w3.org/2000/svg">
<path d="M2 1.375C1.76562 1.39062 1.64062 1.51562 1.625 1.75V6.25C1.64062 6.48438 1.76562 6.60938 2 6.625H9.875V1.375H2ZM0.5 1.75C0.515625 1.32812 0.664062 0.976562 0.945312 0.695312C1.22656 0.414062 1.57812 0.265625 2 0.25H10.25C10.4688 0.25 10.6484 0.320312 10.7891 0.460938C10.9297 0.601562 11 0.78125 11 1V7C11 7.21875 10.9297 7.39844 10.7891 7.53906C10.6484 7.67969 10.4688 7.75 10.25 7.75H2C1.57812 7.73438 1.22656 7.58594 0.945312 7.30469C0.664062 7.02344 0.515625 6.67188 0.5 6.25V1.75ZM14.75 1C14.9688 1 15.1484 1.07031 15.2891 1.21094C15.4297 1.35156 15.5 1.53125 15.5 1.75V6.25C15.5 6.46875 15.4297 6.64844 15.2891 6.78906C15.1484 6.92969 14.9688 7 14.75 7H11.75V1H14.75ZM13.625 2.3125C13.2812 2.34375 13.0938 2.53125 13.0625 2.875C13.0938 3.21875 13.2812 3.40625 13.625 3.4375C13.9688 3.40625 14.1562 3.21875 14.1875 2.875C14.1562 2.53125 13.9688 2.34375 13.625 2.3125ZM13.0625 5.125C13.0938 5.46875 13.2812 5.65625 13.625 5.6875C13.9688 5.65625 14.1562 5.46875 14.1875 5.125C14.1562 4.78125 13.9688 4.59375 13.625 4.5625C13.2812 4.59375 13.0938 4.78125 13.0625 5.125Z" fill="#7D7E80"/>
</svg>
