<svg width="24" height="24" viewBox="0 0 24 24" fill="none" xmlns="http://www.w3.org/2000/svg">
<path fill-rule="evenodd" clip-rule="evenodd" d="M12.8919 13.745C12.8919 13.745 13.3189 13.783 13.5479 13.498L13.9959 12.935C14.2119 12.655 14.7339 12.477 15.2449 12.761C15.9209 13.143 16.7949 13.743 17.3939 14.302C17.7239 14.58 17.8009 14.99 17.5759 15.423L17.5739 15.432C17.3419 15.84 17.0329 16.223 16.6419 16.58L16.6329 16.586C16.1929 16.953 15.6869 17.166 15.1459 16.99L15.1359 16.976C14.1639 16.701 11.8319 15.512 10.3459 14.327C7.91489 12.409 6.18689 9.245 5.70889 7.549L5.69388 7.539C5.51788 6.996 5.73289 6.49 6.09789 6.051L6.10489 6.043C6.46188 5.652 6.84388 5.342 7.25288 5.111L7.26189 5.109C7.69389 4.884 8.10389 4.96 8.38289 5.291C8.74989 5.67 9.43889 6.582 9.92289 7.44C10.2069 7.95 10.0289 8.473 9.74989 8.688L9.18589 9.136C8.90189 9.366 8.93889 9.793 8.93889 9.793C8.93889 9.793 9.77289 12.949 12.8919 13.745ZM17.7989 11.129C17.6319 11.129 17.4959 10.994 17.4949 10.827C17.4809 8.997 16.9309 7.539 15.8609 6.495C14.7889 5.45 13.4339 4.914 11.8339 4.903C11.6659 4.902 11.5309 4.765 11.5329 4.597C11.5339 4.43 11.6689 4.296 11.8359 4.296H11.8379C13.5999 4.308 15.0959 4.902 16.2849 6.06C17.4749 7.222 18.0869 8.825 18.1019 10.823C18.1029 10.99 17.9689 11.127 17.8009 11.129H17.7989ZM16.2039 10.505H16.1969C16.0289 10.501 15.8959 10.362 15.8999 10.195C15.9239 9.157 15.6269 8.317 14.9939 7.626C14.3639 6.937 13.4989 6.561 12.3489 6.477C12.1819 6.464 12.0559 6.319 12.0679 6.152C12.0809 5.985 12.2259 5.859 12.3929 5.871C13.6869 5.966 14.7129 6.419 15.4419 7.216C16.1749 8.016 16.5339 9.023 16.5069 10.208C16.5029 10.373 16.3679 10.505 16.2039 10.505ZM14.6459 9.983C14.4849 9.983 14.3509 9.857 14.3429 9.694C14.2919 8.664 13.8059 8.16 12.8159 8.106C12.6479 8.097 12.5199 7.954 12.5289 7.787C12.5379 7.619 12.6799 7.491 12.8479 7.5C14.1559 7.57 14.8819 8.319 14.9489 9.664C14.9579 9.831 14.8289 9.974 14.6609 9.982L14.6459 9.983ZM21.4629 13.452C20.8579 18.329 17.2909 18.637 16.6329 18.848C16.3529 18.938 13.7509 19.585 10.4809 19.372C10.4809 19.372 8.04289 22.312 7.28189 23.077C7.16289 23.196 7.02388 23.244 6.92988 23.222C6.79888 23.19 6.76289 23.034 6.76488 22.808L6.78488 18.792C2.02288 17.469 2.29989 12.496 2.35389 9.893C2.40789 7.29 2.89689 5.157 4.34989 3.723C6.95989 1.359 12.3369 1.712 12.3369 1.712C16.8779 1.732 19.0539 3.099 19.5589 3.557C21.2339 4.991 22.0869 8.424 21.4629 13.452ZM20.8109 2.339C20.2139 1.791 17.8039 0.0409988 12.4359 0.0169988C12.4359 0.0169988 6.10589 -0.365001 3.01989 2.467C1.30189 4.185 0.697885 6.698 0.633885 9.815C0.570885 12.933 0.487885 18.773 6.11789 20.357L6.12389 20.359L6.11988 22.775C6.11988 22.775 6.08489 23.754 6.72889 23.954C7.50788 24.195 7.96489 23.452 8.70989 22.65C9.11789 22.21 9.68089 21.564 10.1069 21.07C13.9579 21.392 16.9189 20.653 17.2559 20.544C18.0329 20.291 22.4329 19.728 23.1489 13.887C23.8869 7.865 22.7909 4.057 20.8109 2.339Z" fill="white"/>
</svg>
