<svg width="34" height="30" viewBox="0 0 34 30" fill="none" xmlns="http://www.w3.org/2000/svg">
<path d="M2.9375 1.875C2.35156 1.91406 2.03906 2.22656 2 2.8125V8.4375C1.96094 9.02344 1.64844 9.33594 1.0625 9.375C0.476562 9.33594 0.164062 9.02344 0.125 8.4375V2.8125C0.164062 2.03125 0.4375 1.36719 0.945312 0.820312C1.49219 0.3125 2.15625 0.0390625 2.9375 0H8.5625C9.14844 0.0390625 9.46094 0.351562 9.5 0.9375C9.46094 1.52344 9.14844 1.83594 8.5625 1.875H2.9375ZM9.5 8.4375V21.5625C9.46094 22.1484 9.14844 22.4609 8.5625 22.5C7.97656 22.4609 7.66406 22.1484 7.625 21.5625V8.4375C7.66406 7.85156 7.97656 7.53906 8.5625 7.5C9.14844 7.53906 9.46094 7.85156 9.5 8.4375ZM11.375 8.4375C11.4141 7.85156 11.7266 7.53906 12.3125 7.5C12.8984 7.53906 13.2109 7.85156 13.25 8.4375V21.5625C13.2109 22.1484 12.8984 22.4609 12.3125 22.5C11.7266 22.4609 11.4141 22.1484 11.375 21.5625V8.4375ZM24.5 8.4375C24.5391 7.85156 24.8516 7.53906 25.4375 7.5C26.0234 7.53906 26.3359 7.85156 26.375 8.4375V21.5625C26.3359 22.1484 26.0234 22.4609 25.4375 22.5C24.8516 22.4609 24.5391 22.1484 24.5 21.5625V8.4375ZM17 8.4375V21.5625C16.9609 22.1484 16.6484 22.4609 16.0625 22.5C15.4766 22.4609 15.1641 22.1484 15.125 21.5625V8.4375C15.1641 7.85156 15.4766 7.53906 16.0625 7.5C16.6484 7.53906 16.9609 7.85156 17 8.4375ZM19.8125 8.4375C19.8516 7.85156 20.1641 7.53906 20.75 7.5C21.3359 7.53906 21.6484 7.85156 21.6875 8.4375V21.5625C21.6484 22.1484 21.3359 22.4609 20.75 22.5C20.1641 22.4609 19.8516 22.1484 19.8125 21.5625V8.4375ZM32 2.8125C31.9609 2.22656 31.6484 1.91406 31.0625 1.875H25.4375C24.8516 1.83594 24.5391 1.52344 24.5 0.9375C24.5391 0.351562 24.8516 0.0390625 25.4375 0H31.0625C31.8438 0.0390625 32.5078 0.3125 33.0547 0.820312C33.5625 1.36719 33.8359 2.03125 33.875 2.8125V8.4375C33.8359 9.02344 33.5234 9.33594 32.9375 9.375C32.3516 9.33594 32.0391 9.02344 32 8.4375V2.8125ZM8.5625 28.125C9.14844 28.1641 9.46094 28.4766 9.5 29.0625C9.46094 29.6484 9.14844 29.9609 8.5625 30H2.9375C2.15625 29.9609 1.49219 29.6875 0.945312 29.1797C0.4375 28.6328 0.164062 27.9688 0.125 27.1875V21.5625C0.164062 20.9766 0.476562 20.6641 1.0625 20.625C1.64844 20.6641 1.96094 20.9766 2 21.5625V27.1875C2.03906 27.7734 2.35156 28.0859 2.9375 28.125H8.5625ZM32 21.5625C32.0391 20.9766 32.3516 20.6641 32.9375 20.625C33.5234 20.6641 33.8359 20.9766 33.875 21.5625V27.1875C33.8359 27.9688 33.5625 28.6328 33.0547 29.1797C32.5078 29.6875 31.8438 29.9609 31.0625 30H25.4375C24.8516 29.9609 24.5391 29.6484 24.5 29.0625C24.5391 28.4766 24.8516 28.1641 25.4375 28.125H31.0625C31.6484 28.0859 31.9609 27.7734 32 27.1875V21.5625Z" fill="#2B2E33"/>
</svg>
