<svg width="44" height="50" viewBox="0 0 44 50" fill="none" xmlns="http://www.w3.org/2000/svg">
<path d="M12.625 6.25H31.375V0.78125C31.4401 0.325521 31.7005 0.0651042 32.1562 0C32.612 0.0651042 32.8724 0.325521 32.9375 0.78125V6.25H37.625C39.3828 6.3151 40.8477 6.93359 42.0195 8.10547C43.1914 9.27734 43.8099 10.7422 43.875 12.5V43.75C43.8099 45.5078 43.1914 46.9727 42.0195 48.1445C40.8477 49.3164 39.3828 49.9349 37.625 50H6.375C4.61719 49.9349 3.15234 49.3164 1.98047 48.1445C0.808594 46.9727 0.190104 45.5078 0.125 43.75V12.5C0.190104 10.7422 0.808594 9.27734 1.98047 8.10547C3.15234 6.93359 4.61719 6.3151 6.375 6.25H11.0625V0.78125C11.1276 0.325521 11.388 0.0651042 11.8438 0C12.2995 0.0651042 12.5599 0.325521 12.625 0.78125V6.25ZM42.3125 28.125V18.75H29.8125V28.125H42.3125ZM28.25 18.75H15.75V28.125H28.25V18.75ZM14.1875 18.75H1.6875V28.125H14.1875V18.75ZM1.6875 29.6875V39.0625H14.1875V29.6875H1.6875ZM1.6875 40.625V43.75C1.7526 45.0521 2.20833 46.1589 3.05469 47.0703C3.96615 47.9167 5.07292 48.3724 6.375 48.4375H14.1875V40.625H1.6875ZM15.75 48.4375H28.25V40.625H15.75V48.4375ZM29.8125 48.4375H37.625C38.9271 48.3724 40.0339 47.9167 40.9453 47.0703C41.7917 46.1589 42.2474 45.0521 42.3125 43.75V40.625H29.8125V48.4375ZM42.3125 39.0625V29.6875H29.8125V39.0625H42.3125ZM6.375 7.8125C5.07292 7.8776 3.96615 8.33333 3.05469 9.17969C2.20833 10.0911 1.7526 11.1979 1.6875 12.5V17.1875H42.3125V12.5C42.2474 11.1979 41.7917 10.0911 40.9453 9.17969C40.0339 8.33333 38.9271 7.8776 37.625 7.8125H32.9375V11.7188C32.8724 12.1745 32.612 12.4349 32.1562 12.5C31.7005 12.4349 31.4401 12.1745 31.375 11.7188V7.8125H12.625V11.7188C12.5599 12.1745 12.2995 12.4349 11.8438 12.5C11.388 12.4349 11.1276 12.1745 11.0625 11.7188V7.8125H6.375ZM28.25 29.6875H15.75V39.0625H28.25V29.6875Z" fill="#366CD9"/>
</svg>
