<svg width="34" height="30" viewBox="0 0 34 30" fill="none" xmlns="http://www.w3.org/2000/svg">
<path d="M30.8867 11.3672C30.7695 10.3125 30.2227 9.57031 29.2461 9.14062L8.91406 0.234375C8.5625 0.078125 8.23047 0 7.91797 0C7.33203 0 6.84375 0.136719 6.45312 0.410156C6.0625 0.683594 5.78906 0.996094 5.63281 1.34766L0.476562 10.3125C0.0859375 11.0156 0.0273438 11.7773 0.300781 12.5977C0.574219 13.3398 1.10156 13.8477 1.88281 14.1211L11.1992 17.9883L8.85547 24.375H2V21.5625C1.96094 20.9766 1.64844 20.6641 1.0625 20.625C0.476562 20.6641 0.164062 20.9766 0.125 21.5625V29.0039C0.203125 29.6289 0.496094 29.9609 1.00391 30C1.62891 29.9609 1.96094 29.6484 2 29.0625V26.25H9.5C9.92969 26.25 10.2227 26.0547 10.3789 25.6641L12.8984 18.6914L17.1172 20.4492C17.3906 20.5664 17.7031 20.625 18.0547 20.625C18.6016 20.625 19.0898 20.4883 19.5195 20.2148L29.6562 13.8867C30.5156 13.2617 30.9258 12.4219 30.8867 11.3672ZM28.6602 12.3047L18.5234 18.6328C18.3672 18.75 18.1328 18.7695 17.8203 18.6914L2.52734 12.3633C2.25391 12.2461 2.09766 12.0703 2.05859 11.8359C1.98047 11.6016 2 11.4062 2.11719 11.25L7.21484 2.28516C7.25391 2.16797 7.37109 2.07031 7.56641 1.99219C7.72266 1.875 7.91797 1.85547 8.15234 1.93359L28.543 10.8984C28.8555 11.0156 29.0117 11.2305 29.0117 11.543C29.0508 11.8555 28.9336 12.1094 28.6602 12.3047ZM33.3477 16.1133L30.5352 14.8242C29.9883 14.6289 29.5586 14.7852 29.2461 15.293C29.0898 15.8398 29.2461 16.25 29.7148 16.5234L31.707 17.4023L30.0078 21.2109L24.8516 18.9258C24.3047 18.7305 23.8945 18.8867 23.6211 19.3945C23.4648 19.9414 23.6406 20.3516 24.1484 20.625L30.125 23.2617C30.2422 23.3398 30.3594 23.3789 30.4766 23.3789C30.8672 23.3398 31.1602 23.1445 31.3555 22.793L33.8164 17.3438C33.9727 16.7969 33.8164 16.3867 33.3477 16.1133Z" fill="#2B2E33"/>
</svg>
