<svg width="62" height="62" viewBox="0 0 62 62" fill="none" xmlns="http://www.w3.org/2000/svg">
<path d="M53.1739 31C53.1739 43.2463 43.2463 53.1739 31 53.1739M53.1739 31C53.1739 18.7537 43.2463 8.82609 31 8.82609M53.1739 31C53.1739 31 48.7174 34.8043 38.7065 33.1152M31 53.1739C18.7537 53.1739 8.82609 43.2463 8.82609 31M31 53.1739C31 53.1739 27.1957 48.7174 28.8848 38.7065M8.82609 31C8.82609 18.7537 18.7537 8.82609 31 8.82609M8.82609 31C8.82609 31 13.2826 27.1957 23.2935 28.8848M31 8.82609C31 8.82609 34.8043 13.2826 33.1152 23.2935M27.0457 24.0543C21.1609 15.7804 15.3196 15.3196 15.3196 15.3196M46.6783 46.6783C46.6783 46.6783 40.837 46.2174 34.9522 37.9435M24.0565 34.9543C15.7826 40.8391 15.3217 46.6804 15.3217 46.6804M46.6783 15.3217C46.6783 15.3217 46.2174 21.163 37.9435 27.0478M11.4348 53.1739C11.4348 54.6147 10.2668 55.7826 8.82609 55.7826C7.38534 55.7826 6.21739 54.6147 6.21739 53.1739C6.21739 51.7332 7.38534 50.5652 8.82609 50.5652C10.2668 50.5652 11.4348 51.7332 11.4348 53.1739ZM55.7826 53.1739C55.7826 54.6147 54.6147 55.7826 53.1739 55.7826C51.7332 55.7826 50.5652 54.6147 50.5652 53.1739C50.5652 51.7332 51.7332 50.5652 53.1739 50.5652C54.6147 50.5652 55.7826 51.7332 55.7826 53.1739ZM53.1739 6.21739C51.7326 6.21739 50.5652 7.38478 50.5652 8.82609C50.5652 10.2674 51.7326 11.4348 53.1739 11.4348C54.6152 11.4348 55.7826 10.2674 55.7826 8.82609C55.7826 7.38478 54.6152 6.21739 53.1739 6.21739ZM4.91304 1H57.087C59.2481 1 61 2.75193 61 4.91304V57.087C61 59.2481 59.2481 61 57.087 61H4.91304C2.75193 61 1 59.2481 1 57.087V4.91304C1 2.75193 2.75193 1 4.91304 1ZM38.9283 31C38.9283 35.3783 35.3783 38.9283 31 38.9283C26.6217 38.9283 23.0717 35.3783 23.0717 31C23.0717 26.6217 26.6217 23.0717 31 23.0717C35.3783 23.0717 38.9283 26.6217 38.9283 31ZM8.82609 6.21739C10.2674 6.21739 11.4348 7.38478 11.4348 8.82609C11.4348 10.2674 10.2674 11.4348 8.82609 11.4348C7.38478 11.4348 6.21739 10.2674 6.21739 8.82609C6.21739 7.38478 7.38478 6.21739 8.82609 6.21739Z" stroke="#454545" stroke-width="2" stroke-linecap="round" stroke-linejoin="round"/>
</svg>
