<svg width="62" height="62" viewBox="0 0 62 62" fill="none" xmlns="http://www.w3.org/2000/svg">
<path d="M3.6087 7.52174V1H61V61H3.6087V32.3M7.52174 16V32.3043H1V16M10.1304 50.5652H25.7826M17.9565 23.1739H15.3478M17.9565 16.6522H15.3478M36.2174 23.1739H33.6087M36.2174 16.6522H33.6087M20.5652 12.7391V8.82609M25.7826 12.7391V8.82609M31 12.7391V8.82609M31 27.087V31M25.7826 27.087V31M20.5652 27.087V31M47.9565 10.1304V31M50.5652 33.6087V34.913M24.4783 55.7826H25.7826M10.1304 55.7826H11.4348M61 28.3913H58.3913M61 21.8696H58.3913M61 15.3478H58.3913M53.1739 10.1304V31M42.7391 10.1304V31M45.3478 33.6087V34.913M10.1304 42.7391H25.7826M10.1304 37.5217H25.7826M45.3478 7.52174V6.21739M50.5652 7.52174V6.21739M1 7.52174H7.52174V16.6522H1V7.52174ZM33.6087 12.7391V27.087H17.9565V12.7391H33.6087ZM38.8261 42.7391H53.1739V53.1739H38.8261V42.7391Z" stroke="#454545" stroke-width="2" stroke-linecap="round" stroke-linejoin="round"/>
</svg>
