<svg width="24" height="30" viewBox="0 0 24 30" fill="none" xmlns="http://www.w3.org/2000/svg">
<path d="M13.875 0H10.125C7.46875 0.078125 5.26172 0.996094 3.50391 2.75391C1.74609 4.51172 0.828125 6.71875 0.75 9.375V20.625C0.828125 23.2812 1.74609 25.4883 3.50391 27.2461C5.26172 29.0039 7.46875 29.9219 10.125 30H13.875C16.5312 29.9219 18.7383 29.0039 20.4961 27.2461C22.2539 25.4883 23.1719 23.2812 23.25 20.625V9.375C23.1719 6.71875 22.2539 4.51172 20.4961 2.75391C18.7383 0.996094 16.5312 0.078125 13.875 0ZM2.625 9.375C2.66406 7.26562 3.40625 5.50781 4.85156 4.10156C6.25781 2.65625 8.01562 1.91406 10.125 1.875H11.0625V11.25H2.625V9.375ZM21.375 20.625C21.3359 22.7344 20.5938 24.4922 19.1484 25.8984C17.7422 27.3438 15.9844 28.0859 13.875 28.125H10.125C8.01562 28.0859 6.25781 27.3438 4.85156 25.8984C3.40625 24.4922 2.66406 22.7344 2.625 20.625V13.125H21.375V20.625ZM21.375 11.25H12.9375V1.875H13.875C15.9844 1.91406 17.7422 2.65625 19.1484 4.10156C20.5938 5.50781 21.3359 7.26562 21.375 9.375V11.25Z" fill="#2B2E33"/>
</svg>
