<svg width="38" height="28" viewBox="0 0 38 28" fill="none" xmlns="http://www.w3.org/2000/svg">
<path d="M36.8125 21.4707H1.1875C0.601562 21.5488 0.289062 21.8613 0.25 22.4082V23.3457C0.289062 24.4004 0.660156 25.2793 1.36328 25.9824C2.06641 26.6855 2.94531 27.0566 4 27.0957H34C35.0547 27.0566 35.9336 26.6855 36.6367 25.9824C37.3398 25.2793 37.7109 24.4004 37.75 23.3457V22.4082C37.7109 21.8613 37.3984 21.5488 36.8125 21.4707ZM34 25.2793H4C3.45312 25.2793 3.00391 25.1035 2.65234 24.752C2.30078 24.4004 2.125 23.9512 2.125 23.4043H35.875C35.875 23.9512 35.6992 24.4004 35.3477 24.752C34.9961 25.1035 34.5469 25.2793 34 25.2793ZM4.9375 19.6543C5.52344 19.6152 5.83594 19.3027 5.875 18.7168V4.6543C5.875 4.10742 6.05078 3.6582 6.40234 3.30664C6.75391 2.95508 7.20312 2.7793 7.75 2.7793H30.25C30.7969 2.7793 31.2461 2.95508 31.5977 3.30664C31.9492 3.6582 32.125 4.10742 32.125 4.6543V18.7168C32.1641 19.3027 32.4766 19.6152 33.0625 19.6543C33.6484 19.6152 33.9609 19.3027 34 18.7168V4.6543C33.9609 3.59961 33.5898 2.7207 32.8867 2.01758C32.1836 1.31445 31.3047 0.943359 30.25 0.904297H7.75C6.69531 0.943359 5.81641 1.31445 5.11328 2.01758C4.41016 2.7207 4.03906 3.59961 4 4.6543V18.7168C4.03906 19.3027 4.35156 19.6152 4.9375 19.6543Z" fill="#2B2E33"/>
</svg>
