<svg width="62" height="60" viewBox="0 0 62 60" fill="none" xmlns="http://www.w3.org/2000/svg">
<path d="M54.4783 31.9565V27.3913M47.9565 31.9565V27.3913M41.4348 31.9565V27.3913M7.52174 31.9565V27.3913M14.0435 31.9565V27.3913M20.5652 31.9565V27.3913M37.5217 39.7826V42.3913C37.5217 43.1109 38.1065 43.6956 38.8261 43.6956H51.8696C52.5891 43.6956 53.1739 43.1109 53.1739 42.3913V39.7826M54.4783 56.7391V52.1739M47.9565 56.7391V52.1739M41.4348 56.7391V52.1739M61 39.7826V56.7391H34.913V54.1304C34.913 51.9696 33.1609 50.2174 31 50.2174C28.8391 50.2174 27.087 51.9696 27.087 54.1304V56.7391H1V39.7826M24.4783 39.7826V42.3913C24.4783 43.1109 23.8935 43.6956 23.1739 43.6956H10.1304C9.41087 43.6956 8.82609 43.1109 8.82609 42.3913V39.7826M7.52174 56.7391V52.1739M14.0435 56.7391V52.1739M20.5652 56.7391V52.1739M51.8696 18.913H38.8261C38.1057 18.913 37.5217 18.3291 37.5217 17.6087V12.3913C37.5217 11.6709 38.1057 11.087 38.8261 11.087H51.8696C52.5899 11.087 53.1739 11.6709 53.1739 12.3913V17.6087C53.1739 18.3291 52.5899 18.913 51.8696 18.913ZM34.913 31.9565V29.3478C34.913 27.187 33.1609 25.4348 31 25.4348C28.8391 25.4348 27.087 27.187 27.087 29.3478V31.9565H1V3.26086H61V31.9565H34.913ZM10.1304 11.087H23.1739C23.8943 11.087 24.4783 11.6709 24.4783 12.3913V17.6087C24.4783 18.3291 23.8943 18.913 23.1739 18.913H10.1304C9.41006 18.913 8.82609 18.3291 8.82609 17.6087V12.3913C8.82609 11.6709 9.41006 11.087 10.1304 11.087Z" stroke="#454545" stroke-width="2" stroke-linecap="round" stroke-linejoin="round"/>
</svg>
