<svg width="58" height="50" viewBox="0 0 58 50" fill="none" xmlns="http://www.w3.org/2000/svg">
<path d="M7.125 28.125H50.875V6.25H7.125V28.125ZM8.6875 7.8125H49.3125V26.5625H8.6875V7.8125ZM52.4375 0H5.5625C4.26042 0.0651042 3.15365 0.520833 2.24219 1.36719C1.39583 2.27865 0.940104 3.38542 0.875 4.6875V35.9375C0.940104 37.2396 1.39583 38.3464 2.24219 39.2578C3.15365 40.1042 4.26042 40.5599 5.5625 40.625H23.2383L20.6016 48.4375H14.1562C13.7005 48.5026 13.4401 48.763 13.375 49.2188C13.4401 49.6745 13.7005 49.9349 14.1562 50H43.8438C44.2995 49.9349 44.5599 49.6745 44.625 49.2188C44.5599 48.763 44.2995 48.5026 43.8438 48.4375H37.3984L34.7617 40.625H52.4375C53.7396 40.5599 54.8464 40.1042 55.7578 39.2578C56.6042 38.3464 57.0599 37.2396 57.125 35.9375V4.6875C57.0599 3.38542 56.6042 2.27865 55.7578 1.36719C54.8464 0.520833 53.7396 0.0651042 52.4375 0ZM35.7383 48.4375H22.2617L24.8984 40.625H33.1016L35.7383 48.4375ZM55.5625 35.9375C55.5625 36.849 55.2695 37.5977 54.6836 38.1836C54.0977 38.7695 53.349 39.0625 52.4375 39.0625H5.5625C4.65104 39.0625 3.90234 38.7695 3.31641 38.1836C2.73047 37.5977 2.4375 36.849 2.4375 35.9375V4.6875C2.4375 3.77604 2.73047 3.02734 3.31641 2.44141C3.90234 1.85547 4.65104 1.5625 5.5625 1.5625H52.4375C53.349 1.5625 54.0977 1.85547 54.6836 2.44141C55.2695 3.02734 55.5625 3.77604 55.5625 4.6875V35.9375Z" fill="#366CD9"/>
</svg>
