<svg width="30" height="30" viewBox="0 0 30 30" fill="none" xmlns="http://www.w3.org/2000/svg">
<path d="M24.375 18.75H5.625C5.07812 18.75 4.62891 18.9258 4.27734 19.2773C3.92578 19.6289 3.75 20.0781 3.75 20.625V28.125C3.75 28.6719 3.92578 29.1211 4.27734 29.4727C4.62891 29.8242 5.07812 30 5.625 30H24.375C24.9219 30 25.3711 29.8242 25.7227 29.4727C26.0742 29.1211 26.25 28.6719 26.25 28.125V20.625C26.25 20.0781 26.0742 19.6289 25.7227 19.2773C25.3711 18.9258 24.9219 18.75 24.375 18.75ZM24.375 28.125H5.625V20.625H24.375V28.125ZM26.25 11.25V4.16016C26.25 3.61328 26.0742 3.16406 25.7227 2.8125L23.4375 0.527344C23.0469 0.175781 22.5977 0 22.0898 0H7.5C6.44531 0.0390625 5.56641 0.410156 4.86328 1.11328C4.16016 1.81641 3.78906 2.69531 3.75 3.75V11.25C2.69531 11.2891 1.81641 11.6602 1.11328 12.3633C0.410156 13.0664 0.0390625 13.9453 0 15V21.5625C0.0390625 22.1484 0.351562 22.4609 0.9375 22.5C1.52344 22.4609 1.83594 22.1484 1.875 21.5625V15C1.875 14.4531 2.05078 14.0039 2.40234 13.6523C2.75391 13.3008 3.20312 13.125 3.75 13.125H26.25C26.7969 13.125 27.2461 13.3008 27.5977 13.6523C27.9492 14.0039 28.125 14.4531 28.125 15V21.5625C28.1641 22.1484 28.4766 22.4609 29.0625 22.5C29.6484 22.4609 29.9609 22.1484 30 21.5625V15C29.9609 13.9453 29.5898 13.0664 28.8867 12.3633C28.1836 11.6602 27.3047 11.2891 26.25 11.25ZM24.375 11.25H5.625V3.75C5.625 3.20312 5.80078 2.75391 6.15234 2.40234C6.50391 2.05078 6.95312 1.875 7.5 1.875H22.0898L24.375 4.16016V11.25ZM25.3125 14.5312C24.4531 14.6094 23.9844 15.0781 23.9062 15.9375C23.9844 16.7969 24.4531 17.2656 25.3125 17.3438C26.1719 17.2656 26.6406 16.7969 26.7188 15.9375C26.6406 15.0781 26.1719 14.6094 25.3125 14.5312Z" fill="#2B2E33"/>
</svg>
