<svg width="60" height="62" viewBox="0 0 60 62" fill="none" xmlns="http://www.w3.org/2000/svg">
<path d="M56.086 33.8261V1H3.91211V33.8261M56.086 33.8261H3.91211M56.086 33.8261V49.2609H52.3252M3.91211 33.8261V49.2609H7.67298M35.2165 42.7391C35.2165 45.6196 32.8817 47.9565 29.9991 47.9565C27.1165 47.9565 24.7817 45.6196 24.7817 42.7391M26.3099 55.4652C23.2056 54.6674 20.5969 52.6391 19.0295 49.9304M48.2599 42.7391C48.2599 52.8239 40.0838 61 29.9991 61C19.9143 61 11.7382 52.8239 11.7382 42.7391M52.173 41.4652H7.82515M49.5643 37.5217H45.6512" stroke="#454545" stroke-width="2" stroke-linecap="round" stroke-linejoin="round"/>
</svg>
