<svg width="64" height="52" viewBox="0 0 64 52" fill="none" xmlns="http://www.w3.org/2000/svg">
<path d="M21.0625 23.7469C20.4115 23.8121 20.0534 24.2027 19.9883 24.9188C20.0534 25.5699 20.4115 25.9279 21.0625 25.993C21.7135 25.9279 22.0716 25.5699 22.1367 24.9188C22.0716 24.2027 21.7135 23.8121 21.0625 23.7469ZM23.1133 8.02429H18.6211C17.4492 8.02429 16.4727 8.44747 15.6914 9.29382C14.8451 10.0751 14.4219 11.0516 14.4219 12.2235C14.487 12.7443 14.7474 13.0048 15.2031 13.0048C15.6589 13.0048 15.9193 12.7443 15.9844 12.2235C15.9844 11.5074 16.2448 10.8889 16.7656 10.368C17.2865 9.84721 17.9049 9.58679 18.6211 9.58679H23.1133C23.8945 9.58679 24.6107 9.87976 25.2617 10.4657C25.8477 10.9865 26.1406 11.7027 26.1406 12.6141C26.0755 13.8511 25.5221 14.7626 24.4805 15.3485L20.6719 17.3016C20.4115 17.4318 20.2812 17.6597 20.2812 17.9852V20.5243C20.3464 20.98 20.6068 21.2404 21.0625 21.3055C21.5182 21.2404 21.7786 20.98 21.8438 20.5243V18.4735L25.1641 16.7157C26.7266 15.8693 27.5729 14.5022 27.7031 12.6141C27.638 11.3121 27.1823 10.2378 26.3359 9.39148C25.4896 8.54513 24.4154 8.0894 23.1133 8.02429ZM57 13.493H46.8438C46.388 13.5581 46.1276 13.8186 46.0625 14.2743C46.1276 14.73 46.388 14.9904 46.8438 15.0555H57C58.3021 15.1206 59.4089 15.5764 60.3203 16.4227C61.1667 17.3342 61.6224 18.441 61.6875 19.743V38.3954C61.6224 39.6975 61.1667 40.8042 60.3203 41.7157C59.4089 42.5621 58.3021 42.9852 57 42.9852H52.3125V48.6493L44.793 42.9852H32C30.6979 42.9852 29.5911 42.5295 28.6797 41.618C27.8333 40.7717 27.3776 39.6649 27.3125 38.2977V37.5165C27.2474 37.0607 26.987 36.8003 26.5312 36.7352C26.0755 36.8003 25.8151 37.0607 25.75 37.5165V38.2977C25.8151 40.0555 26.4336 41.5204 27.6055 42.6923C28.7773 43.8641 30.2096 44.4501 31.9023 44.4501H44.207L52.3125 50.5048C52.5078 50.8954 52.7031 51.0581 52.8984 50.993C53.4844 50.9279 53.8099 50.6024 53.875 50.0165V44.743H57C58.7578 44.6779 60.2227 44.0594 61.3945 42.8876C62.5664 41.7157 63.1849 40.2834 63.25 38.5907V19.6454C63.1849 17.9527 62.5664 16.5204 61.3945 15.3485C60.2227 14.1766 58.7578 13.5581 57 13.493ZM35.125 32.243C36.8828 32.1779 38.3477 31.5594 39.5195 30.3876C40.6914 29.2157 41.3099 27.7509 41.375 25.993V7.14539C41.3099 5.45268 40.6914 4.02039 39.5195 2.84851C38.3477 1.67664 36.8828 1.05815 35.125 0.993042H7C5.24219 1.05815 3.77734 1.67664 2.60547 2.84851C1.43359 4.02039 0.815104 5.45268 0.75 7.14539V25.8954C0.815104 27.7183 1.43359 29.2157 2.60547 30.3876C3.77734 31.5594 5.24219 32.1779 7 32.243H10.125V37.5165C10.1901 38.1024 10.5156 38.4279 11.1016 38.493C11.2969 38.493 11.4596 38.4279 11.5898 38.2977L19.6953 32.243H35.125ZM19.207 30.6805L11.6875 36.3446V30.6805H7C5.69792 30.6154 4.59115 30.1597 3.67969 29.3134C2.83333 28.467 2.3776 27.3928 2.3125 26.0907V7.24304C2.3776 5.94096 2.83333 4.83419 3.67969 3.92273C4.59115 3.07638 5.69792 2.62065 7 2.55554H35.125C36.4271 2.62065 37.5339 3.07638 38.4453 3.92273C39.2917 4.83419 39.7474 5.94096 39.8125 7.24304V25.993C39.7474 27.2951 39.2917 28.4019 38.4453 29.3134C37.5339 30.1597 36.4271 30.6154 35.125 30.6805H19.207Z" fill="#366CD9"/>
</svg>
