<svg width="30" height="30" viewBox="0 0 30 30" fill="none" xmlns="http://www.w3.org/2000/svg">
<path d="M11.3662 19.9219L12.8311 18.457C13.2217 18.6523 13.6319 18.75 14.0616 18.75C14.8428 18.7109 15.5069 18.4375 16.0537 17.9297C16.5616 17.3828 16.835 16.7188 16.8741 15.9375C16.835 15.1562 16.5616 14.4922 16.0537 13.9453C15.5069 13.4375 14.8428 13.1641 14.0616 13.125C13.2803 13.1641 12.6162 13.4375 12.0694 13.9453C11.5616 14.4922 11.2881 15.1562 11.2491 15.9375C11.2491 16.3672 11.3467 16.7773 11.542 17.168L10.0772 18.6328L2.98734 11.543C2.79203 11.3477 2.55765 11.25 2.28422 11.25C1.93265 11.25 1.65922 11.4062 1.4639 11.7188C0.213903 14.1406 -0.235316 16.6797 0.116247 19.3359C0.467809 21.9531 1.63968 24.2969 3.63187 26.3672C6.17093 28.7891 9.10062 30 12.4209 30C14.4522 30 16.4053 29.5117 18.2803 28.5352C18.5537 28.3789 18.71 28.1445 18.7491 27.832C18.7881 27.5195 18.6905 27.2461 18.4561 27.0117L11.3662 19.9219ZM14.0616 15C14.6475 15.0391 14.96 15.3516 14.9991 15.9375C14.96 16.5234 14.6475 16.8359 14.0616 16.875C13.4756 16.8359 13.1631 16.5234 13.1241 15.9375C13.1631 15.3516 13.4756 15.0391 14.0616 15ZM12.4209 28.125C9.53031 28.0859 7.04984 27.0508 4.97953 25.0195C3.45609 23.4961 2.47953 21.7383 2.04984 19.7461C1.65922 17.7539 1.835 15.7617 2.57718 13.7695L16.2295 27.4219C14.9795 27.8906 13.71 28.125 12.4209 28.125ZM12.1866 0C11.6006 0.0390625 11.2881 0.351562 11.2491 0.9375C11.2881 1.52344 11.6006 1.83594 12.1866 1.875C15.1162 1.91406 17.792 2.63672 20.2139 4.04297C22.5967 5.48828 24.5108 7.40234 25.9561 9.78516C27.3623 12.168 28.085 14.8438 28.1241 17.8125C28.1631 18.3984 28.4756 18.7109 29.0616 18.75C29.6475 18.7109 29.96 18.3984 29.9991 17.8125C29.96 14.4922 29.1397 11.5039 27.5381 8.84766C25.9756 6.15234 23.8467 4.02344 21.1514 2.46094C18.4952 0.859375 15.5069 0.0390625 12.1866 0ZM12.1866 5.625C11.6006 5.66406 11.2881 5.97656 11.2491 6.5625C11.2881 7.14844 11.6006 7.46094 12.1866 7.5C15.1162 7.57812 17.5381 8.57422 19.4522 10.4883C21.4053 12.4414 22.4209 14.8828 22.4991 17.8125C22.5381 18.3984 22.8506 18.7109 23.4366 18.75C24.0225 18.7109 24.335 18.3984 24.3741 17.8125C24.2959 14.375 23.1045 11.5039 20.7998 9.19922C18.4952 6.89453 15.6241 5.70312 12.1866 5.625Z" fill="#2B2E33"/>
</svg>
