<svg width="30" height="30" viewBox="0 0 30 30" fill="none" xmlns="http://www.w3.org/2000/svg">
<path d="M12.1875 20.625C11.6016 20.6641 11.2891 20.9766 11.25 21.5625V29.0625C11.2891 29.6484 11.6016 29.9609 12.1875 30C12.7734 29.9609 13.0859 29.6484 13.125 29.0625V21.5625C13.0859 20.9766 12.7734 20.6641 12.1875 20.625ZM17.8125 20.625C17.2266 20.6641 16.9141 20.9766 16.875 21.5625V29.0625C16.9141 29.6484 17.2266 29.9609 17.8125 30C18.3984 29.9609 18.7109 29.6484 18.75 29.0625V21.5625C18.7109 20.9766 18.3984 20.6641 17.8125 20.625ZM6.5625 20.625C5.97656 20.6641 5.66406 20.9766 5.625 21.5625V29.0625C5.66406 29.6484 5.97656 29.9609 6.5625 30C7.14844 29.9609 7.46094 29.6484 7.5 29.0625V21.5625C7.46094 20.9766 7.14844 20.6641 6.5625 20.625ZM26.25 11.25V4.16016C26.25 3.61328 26.0742 3.16406 25.7227 2.8125L23.4375 0.527344C23.0469 0.175781 22.5977 0 22.0898 0H7.5C6.44531 0.0390625 5.56641 0.410156 4.86328 1.11328C4.16016 1.81641 3.78906 2.69531 3.75 3.75V11.25C2.69531 11.2891 1.81641 11.6602 1.11328 12.3633C0.410156 13.0664 0.0390625 13.9453 0 15V21.5625C0.0390625 22.1484 0.351562 22.4609 0.9375 22.5C1.52344 22.4609 1.83594 22.1484 1.875 21.5625V15C1.875 14.4531 2.05078 14.0039 2.40234 13.6523C2.75391 13.3008 3.20312 13.125 3.75 13.125H26.25C26.7969 13.125 27.2461 13.3008 27.5977 13.6523C27.9492 14.0039 28.125 14.4531 28.125 15V21.5625C28.1641 22.1484 28.4766 22.4609 29.0625 22.5C29.6484 22.4609 29.9609 22.1484 30 21.5625V15C29.9609 13.9453 29.5898 13.0664 28.8867 12.3633C28.1836 11.6602 27.3047 11.2891 26.25 11.25ZM24.375 11.25H5.625V3.75C5.625 3.20312 5.80078 2.75391 6.15234 2.40234C6.50391 2.05078 6.95312 1.875 7.5 1.875H22.0898L24.375 4.16016V11.25ZM23.4375 20.625C22.8516 20.6641 22.5391 20.9766 22.5 21.5625V29.0625C22.5391 29.6484 22.8516 29.9609 23.4375 30C24.0234 29.9609 24.3359 29.6484 24.375 29.0625V21.5625C24.3359 20.9766 24.0234 20.6641 23.4375 20.625ZM25.3125 14.5312C24.4531 14.6094 23.9844 15.0781 23.9062 15.9375C23.9844 16.7969 24.4531 17.2656 25.3125 17.3438C26.1719 17.2656 26.6406 16.7969 26.7188 15.9375C26.6406 15.0781 26.1719 14.6094 25.3125 14.5312Z" fill="#2B2E33"/>
</svg>
