<svg width="60" height="62" viewBox="0 0 60 62" fill="none" xmlns="http://www.w3.org/2000/svg">
<path d="M53.478 49.4152V57.087C53.478 59.2478 51.7258 61 49.565 61H10.4345C8.27366 61 6.52148 59.2478 6.52148 57.087V49.4152M22.1737 54.4783V49.2609M31.3041 54.4783V49.2609M37.8258 54.4783V49.2609M15.6519 54.4783V49.2609H44.3476V54.4783M13.0432 33.6087C13.0432 35.0239 14.2019 36.1717 15.6302 36.1717H18.2606C19.6954 36.1717 20.8693 34.9978 20.8693 33.5631V29.6957C20.8693 28.2543 19.7019 27.087 18.2606 27.087H15.6519C14.2171 27.087 13.0432 25.913 13.0432 24.4783V20.5652C13.0432 19.1239 14.2106 17.9565 15.6519 17.9565H18.2823C19.7106 17.9565 20.8693 19.1043 20.8693 20.5196M26.0867 33.6087C26.0867 35.0239 27.2454 36.1717 28.6737 36.1717H31.3041C32.7389 36.1717 33.9128 34.9978 33.9128 33.5631V29.6957C33.9128 28.2543 32.7454 27.087 31.3041 27.087H28.6954C27.2606 27.087 26.0867 25.913 26.0867 24.4783V20.5652C26.0867 19.1239 27.2541 17.9565 28.6954 17.9565H31.3258C32.7541 17.9565 33.9128 19.1043 33.9128 20.5196M10.4345 1H49.565C51.7261 1 53.478 2.75193 53.478 4.91304V50.5652C53.478 52.7263 51.7261 54.4783 49.565 54.4783H10.4345C8.27341 54.4783 6.52148 52.7263 6.52148 50.5652V4.91304C6.52148 2.75193 8.27341 1 10.4345 1ZM39.1302 17.9565V36.1957H44.2976C45.7389 36.1957 46.9063 35.0283 46.9063 33.587V20.5652C46.9063 19.1239 45.7389 17.9565 44.2976 17.9565H39.1302Z" stroke="#454545" stroke-width="2" stroke-linecap="round" stroke-linejoin="round"/>
</svg>
