<svg width="30" height="21" viewBox="0 0 30 21" fill="none" xmlns="http://www.w3.org/2000/svg">
<path d="M17.4844 12.5156C17.6406 12.6719 17.8125 12.75 18 12.75C18.1875 12.75 18.3594 12.6719 18.5156 12.5156L21.5156 9.51562C21.8281 9.17188 21.8281 8.82812 21.5156 8.48438L18.5156 5.48438C18.1719 5.17188 17.8281 5.17188 17.4844 5.48438C17.1719 5.82812 17.1719 6.17188 17.4844 6.51562L19.9219 9L17.4844 11.4844C17.1719 11.8281 17.1719 12.1719 17.4844 12.5156ZM12.5156 5.48438C12.1719 5.17188 11.8281 5.17188 11.4844 5.48438L8.48438 8.48438C8.17188 8.82812 8.17188 9.17188 8.48438 9.51562L11.4844 12.5156C11.6406 12.6719 11.8125 12.75 12 12.75C12.1875 12.75 12.3594 12.6719 12.5156 12.5156C12.8281 12.1719 12.8281 11.8281 12.5156 11.4844L10.0781 9L12.5156 6.51562C12.8281 6.17188 12.8281 5.82812 12.5156 5.48438ZM3.75 15C4.21875 14.9688 4.46875 14.7188 4.5 14.25V3C4.5 2.5625 4.64062 2.20312 4.92188 1.92188C5.20312 1.64062 5.5625 1.5 6 1.5H24C24.4375 1.5 24.7969 1.64062 25.0781 1.92188C25.3594 2.20312 25.5 2.5625 25.5 3V14.25C25.5312 14.7188 25.7812 14.9688 26.25 15C26.7188 14.9688 26.9688 14.7188 27 14.25V3C26.9688 2.15625 26.6719 1.45312 26.1094 0.890625C25.5469 0.328125 24.8438 0.03125 24 0H6C5.15625 0.03125 4.45312 0.328125 3.89062 0.890625C3.32812 1.45312 3.03125 2.15625 3 3V14.25C3.03125 14.7188 3.28125 14.9688 3.75 15ZM29.25 16.5H0.75C0.28125 16.5312 0.03125 16.7812 0 17.25V18C0.03125 18.8438 0.328125 19.5469 0.890625 20.1094C1.45312 20.6719 2.15625 20.9688 3 21H27C27.8438 20.9688 28.5469 20.6719 29.1094 20.1094C29.6719 19.5469 29.9688 18.8438 30 18V17.25C29.9688 16.7812 29.7188 16.5312 29.25 16.5ZM27 19.5H3C2.5625 19.5 2.20312 19.3594 1.92188 19.0781C1.64062 18.7969 1.5 18.4375 1.5 18H28.5C28.5 18.4375 28.3594 18.7969 28.0781 19.0781C27.7969 19.3594 27.4375 19.5 27 19.5Z" fill="#2B2E33"/>
</svg>
