<svg width="38" height="30" viewBox="0 0 38 30" fill="none" xmlns="http://www.w3.org/2000/svg">
<path d="M27.4375 11.25C28.4922 11.2109 29.3711 10.8398 30.0742 10.1367C30.7773 9.43359 31.1484 8.55469 31.1875 7.5C31.1484 6.44531 30.7773 5.56641 30.0742 4.86328C29.3711 4.16016 28.4922 3.78906 27.4375 3.75C26.3828 3.78906 25.5039 4.16016 24.8008 4.86328C24.0977 5.56641 23.7266 6.44531 23.6875 7.5C23.7266 8.55469 24.0977 9.43359 24.8008 10.1367C25.5039 10.8398 26.3828 11.2109 27.4375 11.25ZM27.4375 5.625C27.9844 5.625 28.4336 5.80078 28.7852 6.15234C29.1367 6.50391 29.3125 6.95312 29.3125 7.5C29.3125 8.04688 29.1367 8.49609 28.7852 8.84766C28.4336 9.19922 27.9844 9.375 27.4375 9.375C26.8906 9.375 26.4414 9.19922 26.0898 8.84766C25.7383 8.49609 25.5625 8.04688 25.5625 7.5C25.5625 6.95312 25.7383 6.50391 26.0898 6.15234C26.4414 5.80078 26.8906 5.625 27.4375 5.625ZM27.4375 18.2812C26.5781 18.3594 26.1094 18.8281 26.0312 19.6875C26.1094 20.5469 26.5781 21.0156 27.4375 21.0938C28.2969 21.0156 28.7656 20.5469 28.8438 19.6875C28.7656 18.8281 28.2969 18.3594 27.4375 18.2812ZM34 0H20.875C19.8203 0.0390625 18.9414 0.410156 18.2383 1.11328C17.5352 1.81641 17.1641 2.69531 17.125 3.75V26.25C17.1641 27.3047 17.5352 28.1836 18.2383 28.8867C18.9414 29.5898 19.8203 29.9609 20.875 30H34C35.0547 29.9609 35.9336 29.5898 36.6367 28.8867C37.3398 28.1836 37.7109 27.3047 37.75 26.25V3.75C37.7109 2.69531 37.3398 1.81641 36.6367 1.11328C35.9336 0.410156 35.0547 0.0390625 34 0ZM35.875 26.25C35.875 26.7969 35.6992 27.2461 35.3477 27.5977C34.9961 27.9492 34.5469 28.125 34 28.125H20.875C20.3281 28.125 19.8789 27.9492 19.5273 27.5977C19.1758 27.2461 19 26.7969 19 26.25V3.75C19 3.20312 19.1758 2.75391 19.5273 2.40234C19.8789 2.05078 20.3281 1.875 20.875 1.875H34C34.5469 1.875 34.9961 2.05078 35.3477 2.40234C35.6992 2.75391 35.875 3.20312 35.875 3.75V26.25ZM27.4375 13.125C25.5625 13.1641 24.0195 13.8086 22.8086 15.0586C21.5586 16.2695 20.9141 17.8125 20.875 19.6875C20.9141 21.5625 21.5586 23.1055 22.8086 24.3164C24.0195 25.5664 25.5625 26.2109 27.4375 26.25C29.3125 26.2109 30.8555 25.5664 32.0664 24.3164C33.3164 23.1055 33.9609 21.5625 34 19.6875C33.9609 17.8125 33.3164 16.2695 32.0664 15.0586C30.8555 13.8086 29.3125 13.1641 27.4375 13.125ZM27.4375 24.375C26.1094 24.3359 24.9961 23.8867 24.0977 23.0273C23.2383 22.1289 22.7891 21.0156 22.75 19.6875C22.7891 18.3594 23.2383 17.2461 24.0977 16.3477C24.9961 15.4883 26.1094 15.0391 27.4375 15C28.7656 15.0391 29.8789 15.4883 30.7773 16.3477C31.6367 17.2461 32.0859 18.3594 32.125 19.6875C32.0859 21.0156 31.6367 22.1289 30.7773 23.0273C29.8789 23.8867 28.7656 24.3359 27.4375 24.375ZM9.15625 19.6875C9.23438 20.5469 9.70312 21.0156 10.5625 21.0938C11.4219 21.0156 11.8906 20.5469 11.9688 19.6875C11.8906 18.8281 11.4219 18.3594 10.5625 18.2812C9.70312 18.3594 9.23438 18.8281 9.15625 19.6875ZM14.3125 7.5C14.2734 6.44531 13.9023 5.56641 13.1992 4.86328C12.4961 4.16016 11.6172 3.78906 10.5625 3.75C9.50781 3.78906 8.62891 4.16016 7.92578 4.86328C7.22266 5.56641 6.85156 6.44531 6.8125 7.5C6.85156 8.55469 7.22266 9.43359 7.92578 10.1367C8.62891 10.8398 9.50781 11.2109 10.5625 11.25C11.6172 11.2109 12.4961 10.8398 13.1992 10.1367C13.9023 9.43359 14.2734 8.55469 14.3125 7.5ZM8.6875 7.5C8.6875 6.95312 8.86328 6.50391 9.21484 6.15234C9.56641 5.80078 10.0156 5.625 10.5625 5.625C11.1094 5.625 11.5586 5.80078 11.9102 6.15234C12.2617 6.50391 12.4375 6.95312 12.4375 7.5C12.4375 8.04688 12.2617 8.49609 11.9102 8.84766C11.5586 9.19922 11.1094 9.375 10.5625 9.375C10.0156 9.375 9.56641 9.19922 9.21484 8.84766C8.86328 8.49609 8.6875 8.04688 8.6875 7.5ZM15.25 0.9375C15.2109 0.351562 14.8984 0.0390625 14.3125 0H4C2.94531 0.0390625 2.06641 0.410156 1.36328 1.11328C0.660156 1.81641 0.289062 2.69531 0.25 3.75V26.25C0.289062 27.3047 0.660156 28.1836 1.36328 28.8867C2.06641 29.5898 2.94531 29.9609 4 30H14.3125C14.8984 29.9609 15.2109 29.6484 15.25 29.0625C15.2109 28.4766 14.8984 28.1641 14.3125 28.125H4C3.45312 28.125 3.00391 27.9492 2.65234 27.5977C2.30078 27.2461 2.125 26.7969 2.125 26.25V3.75C2.125 3.20312 2.30078 2.75391 2.65234 2.40234C3.00391 2.05078 3.45312 1.875 4 1.875H14.3125C14.8984 1.83594 15.2109 1.52344 15.25 0.9375ZM14.4297 15.5273C14.7031 15.0195 14.625 14.5898 14.1953 14.2383C13.1016 13.4961 11.8906 13.125 10.5625 13.125C8.6875 13.1641 7.14453 13.8086 5.93359 15.0586C4.68359 16.2695 4.03906 17.8125 4 19.6875C4.03906 21.5625 4.68359 23.1055 5.93359 24.3164C7.14453 25.5664 8.6875 26.2109 10.5625 26.25C11.8906 26.25 13.1016 25.8789 14.1953 25.1367C14.625 24.7852 14.7031 24.3555 14.4297 23.8477C14.0781 23.418 13.6484 23.3398 13.1406 23.6133C12.3594 24.1211 11.5 24.375 10.5625 24.375C9.23438 24.3359 8.12109 23.8867 7.22266 23.0273C6.36328 22.1289 5.91406 21.0156 5.875 19.6875C5.91406 18.3594 6.36328 17.2461 7.22266 16.3477C8.12109 15.4883 9.23438 15.0391 10.5625 15C11.5 15 12.3594 15.2539 13.1406 15.7617C13.6484 16.0352 14.0781 15.957 14.4297 15.5273Z" fill="#2B2E33"/>
</svg>
