<svg width="62" height="62" viewBox="0 0 62 62" fill="none" xmlns="http://www.w3.org/2000/svg">
<path d="M1 47.3043V61H45.3478V47.3043M21.8696 61V54.4783H12.7391V61M19.9217 27.7304L9.69783 37.9543M19.9217 27.7304C21.7196 29.5261 24.6326 29.5261 26.4283 27.7304C28.2239 25.9348 28.2239 23.0217 26.4283 21.2261M19.9217 27.7304C18.1261 25.9348 18.1261 23.0217 19.9217 21.2261M36.65 11.0022L26.4283 21.2261M26.4283 21.2261C24.6304 19.4304 21.7174 19.4304 19.9217 21.2261M26.4261 27.7304L36.65 37.9543M9.69783 11.0022L19.9217 21.2261M45.8674 8.82609H49.2609C51.4217 8.82609 53.1739 10.5783 53.1739 12.7391V57.087C53.1739 59.2478 54.9261 61 57.087 61C59.2478 61 61 59.2478 61 57.087V8.82609M1 1H45.3478V47.9565H1V1ZM34.0174 24.4783C34.0174 30.4669 29.1626 35.3217 23.1739 35.3217C17.1852 35.3217 12.3304 30.4669 12.3304 24.4783C12.3304 18.4896 17.1852 13.6348 23.1739 13.6348C29.1626 13.6348 34.0174 18.4896 34.0174 24.4783ZM40.1304 24.4783C40.1304 33.8431 32.5387 41.4348 23.1739 41.4348C13.8091 41.4348 6.21739 33.8431 6.21739 24.4783C6.21739 15.1134 13.8091 7.52174 23.1739 7.52174C32.5387 7.52174 40.1304 15.1134 40.1304 24.4783Z" stroke="#454545" stroke-width="2" stroke-linecap="round" stroke-linejoin="round"/>
</svg>
