<svg width="30" height="30" viewBox="0 0 30 30" fill="none" xmlns="http://www.w3.org/2000/svg">
<path d="M7.96875 15C7.89062 15.8594 7.42188 16.3281 6.5625 16.4062C5.70312 16.3281 5.23438 15.8594 5.15625 15C5.23438 14.1406 5.70312 13.6719 6.5625 13.5938C7.42188 13.6719 7.89062 14.1406 7.96875 15ZM10.7812 15C10.8594 14.1406 11.3281 13.6719 12.1875 13.5938C13.0469 13.6719 13.5156 14.1406 13.5938 15C13.5156 15.8594 13.0469 16.3281 12.1875 16.4062C11.3281 16.3281 10.8594 15.8594 10.7812 15ZM10.7812 19.6875C10.7031 20.5469 10.2344 21.0156 9.375 21.0938C8.51562 21.0156 8.04688 20.5469 7.96875 19.6875C8.04688 18.8281 8.51562 18.3594 9.375 18.2812C10.2344 18.3594 10.7031 18.8281 10.7812 19.6875ZM16.4062 15C16.4844 14.1406 16.9531 13.6719 17.8125 13.5938C18.6719 13.6719 19.1406 14.1406 19.2188 15C19.1406 15.8594 18.6719 16.3281 17.8125 16.4062C16.9531 16.3281 16.4844 15.8594 16.4062 15ZM16.4062 19.6875C16.3281 20.5469 15.8594 21.0156 15 21.0938C14.1406 21.0156 13.6719 20.5469 13.5938 19.6875C13.6719 18.8281 14.1406 18.3594 15 18.2812C15.8594 18.3594 16.3281 18.8281 16.4062 19.6875ZM22.0312 15C22.1094 14.1406 22.5781 13.6719 23.4375 13.5938C24.2969 13.6719 24.7656 14.1406 24.8438 15C24.7656 15.8594 24.2969 16.3281 23.4375 16.4062C22.5781 16.3281 22.1094 15.8594 22.0312 15ZM22.0312 19.6875C21.9531 20.5469 21.4844 21.0156 20.625 21.0938C19.7656 21.0156 19.2969 20.5469 19.2188 19.6875C19.2969 18.8281 19.7656 18.3594 20.625 18.2812C21.4844 18.3594 21.9531 18.8281 22.0312 19.6875ZM15.9375 0C16.7188 0.0390625 17.3828 0.3125 17.9297 0.820312C18.4375 1.36719 18.7109 2.03125 18.75 2.8125V4.6875C18.7109 5.46875 18.4375 6.13281 17.9297 6.67969C17.3828 7.1875 16.7188 7.46094 15.9375 7.5H11.25V9.375H24.9023C25.8398 9.375 26.6406 9.6875 27.3047 10.3125C28.0078 10.8984 28.4375 11.6602 28.5938 12.5977L29.9414 22.2656C29.9805 22.3438 30 22.4219 30 22.5C30 22.5781 30 22.6758 30 22.793V26.25C29.9609 27.3047 29.5898 28.1836 28.8867 28.8867C28.1836 29.5898 27.3047 29.9609 26.25 30H3.75C2.69531 29.9609 1.81641 29.5898 1.11328 28.8867C0.410156 28.1836 0.0390625 27.3047 0 26.25V22.793C0 22.6758 0 22.5781 0 22.5C0 22.4219 0.0195312 22.3438 0.0585938 22.2656L1.40625 12.5977C1.5625 11.6602 1.99219 10.8984 2.69531 10.3125C3.35938 9.6875 4.17969 9.375 5.15625 9.375H9.375V7.5H4.6875C3.90625 7.46094 3.24219 7.1875 2.69531 6.67969C2.1875 6.13281 1.91406 5.46875 1.875 4.6875V2.8125C1.91406 2.03125 2.1875 1.36719 2.69531 0.820312C3.24219 0.3125 3.90625 0.0390625 4.6875 0H15.9375ZM15.9375 1.875H4.6875C4.10156 1.91406 3.78906 2.22656 3.75 2.8125V4.6875C3.78906 5.27344 4.10156 5.58594 4.6875 5.625H15.9375C16.5234 5.58594 16.8359 5.27344 16.875 4.6875V2.8125C16.8359 2.22656 16.5234 1.91406 15.9375 1.875ZM3.75 28.125H26.25C26.7969 28.125 27.2461 27.9492 27.5977 27.5977C27.9492 27.2461 28.125 26.7969 28.125 26.25V24.375H1.875V26.25C1.875 26.7969 2.05078 27.2461 2.40234 27.5977C2.75391 27.9492 3.20312 28.125 3.75 28.125ZM24.9023 11.25H5.15625C4.10156 11.3281 3.47656 11.875 3.28125 12.8906L1.875 22.5H28.125L26.7188 12.8906C26.5234 11.875 25.918 11.3281 24.9023 11.25Z" fill="#2B2E33"/>
</svg>
