<svg width="62" height="62" viewBox="0 0 62 62" fill="none" xmlns="http://www.w3.org/2000/svg">
<path d="M55.7826 1H1V55.7826H55.7826M55.7826 1V55.7826M55.7826 1L61 6.21739V50.5652L55.7826 55.7826M4.91304 55.7826V59.6957C4.91304 60.4152 5.49783 61 6.21739 61H11.4348C12.1543 61 12.7391 60.4152 12.7391 59.6957V55.7826M44.0435 55.7826V59.6957C44.0435 60.4152 44.6283 61 45.3478 61H50.5652C51.2848 61 51.8696 60.4152 51.8696 59.6957V55.7826M37.5217 6.21739V25.7826H49.2609M37.5217 17.9565H49.2609M37.5217 10.1304H49.2609M6.21739 41.4348H23.1739V50.5652M27.087 4.91304V29.6957H6.21739M49.2609 41.4348H36.2174M49.2609 47.9565H36.2174" stroke="#454545" stroke-width="2" stroke-linecap="round" stroke-linejoin="round"/>
</svg>
