<svg width="60" height="62" viewBox="0 0 60 62" fill="none" xmlns="http://www.w3.org/2000/svg">
<path d="M16.4671 32.3478C15.1193 30.0348 14.3476 27.3478 14.3476 24.4783C14.3476 15.8348 21.3563 8.82609 29.9997 8.82609C38.6432 8.82609 45.6519 15.8348 45.6519 24.4783C45.6519 33.1217 38.6432 40.1304 29.9997 40.1304C29.1084 40.1304 28.2367 40.0565 27.3867 39.913M53.478 46.6522V4.91304C53.478 2.75193 51.7261 1 49.565 1H10.4345C8.27341 1 6.52148 2.75193 6.52148 4.91304V46.6522M53.478 46.6522C53.478 48.8133 51.7261 50.5652 49.565 50.5652H10.4345C8.27341 50.5652 6.52148 48.8133 6.52148 46.6522M53.478 46.6522V57.087C53.478 59.2478 51.7258 61 49.565 61H10.4345C8.27366 61 6.52148 59.2478 6.52148 57.087V46.6522M15.6519 55.7826H28.6954M43.0432 55.7826H37.8258M35.2171 24.4783C35.2171 27.3597 32.8812 29.6957 29.9997 29.6957C27.1183 29.6957 24.7824 27.3597 24.7824 24.4783C24.7824 21.5968 27.1183 19.2609 29.9997 19.2609C32.8812 19.2609 35.2171 21.5968 35.2171 24.4783ZM23.2476 32.7739L14.4997 40.5478C13.5671 41.5565 13.6258 43.1283 14.6345 44.063C15.1389 44.5304 15.7845 44.7478 16.4193 44.7239C17.0563 44.7 17.6824 44.4326 18.1497 43.9283L25.2345 34.613C26.2302 33.3022 24.478 31.6804 23.2476 32.7739Z" stroke="#454545" stroke-width="2" stroke-linecap="round" stroke-linejoin="round"/>
</svg>
