<svg width="1217" height="319" viewBox="0 0 1217 319" fill="none" xmlns="http://www.w3.org/2000/svg">
<path d="M90.39 318.06C60.46 318.06 30.72 318.06 0 318.06C78.08 211.39 155.51 105.62 232.82 0H290.23C291.22 4.03 291.62 67.63 290.74 84.81C276.43 96.77 261.86 108.97 246.69 121.65V58.38C243.76 60.64 227.86 82.34 219.76 93.98C211.24 106.22 202.13 118.05 193.31 130.09C184.39 142.25 175.53 154.44 166.62 166.61C157.8 178.65 148.92 190.66 140.12 202.71C131.34 214.75 122.62 226.83 113.93 238.81C114.1 239.15 114.14 239.32 114.25 239.41C114.32 239.47 114.53 239.45 114.61 239.38C210.8 159.73 306.98 80.06 403.55 0.06H474.39C421.45 43.89 369.17 87.16 316.78 130.54C317.76 133.07 319.88 134.49 321.69 136.08C329.17 142.62 336.74 149.06 344.28 155.54C355.45 165.13 366.67 174.65 377.77 184.31C389.72 194.71 401.53 205.28 413.47 215.69C421.2 222.42 429.07 228.99 436.85 235.66C440.62 238.9 444.32 242.23 448.08 245.48C454.24 250.79 460.45 256.04 466.59 261.37C472.86 266.8 479.05 272.32 485.31 277.75C494.33 285.57 503.39 293.34 512.43 301.15C518.05 306 523.65 310.87 529.24 315.75C529.83 316.27 530.3 316.92 531.15 317.86H461.86C401.96 265.59 341.48 212.82 280.88 159.94C217.32 212.7 153.83 265.4 90.4 318.06H90.39Z" fill="url(#paint0_linear_218_9261)"/>
<path d="M830.79 109.92C853.28 143.86 875.74 177.74 898.76 212.47C899.65 207.39 900.36 203.16 901.13 198.94C901.89 194.75 902.71 190.57 903.57 186.05C906.03 185.68 908.6 184.99 911.17 184.97C923.45 184.87 935.4 182.72 947.14 179.33C956.65 176.59 965.6 172.51 973.71 166.81C986.41 157.88 995.39 146.17 999.59 131.04C1001.26 125.01 1002.18 118.85 1003.11 112.68C1003.79 108.16 1005.08 103.74 1005.88 99.24C1006.74 94.4 1007.33 89.51 1008.09 84.65C1008.32 83.2 1008.77 81.78 1009 80.33C1010.05 73.86 1010.95 67.36 1012.1 60.91C1013.59 52.58 1015.28 44.28 1016.87 35.96C1016.89 35.83 1016.76 35.67 1016.5 35.08H960.47C958.82 29.26 961.86 24.38 962.17 19.17C962.47 14.05 964.11 9.01 965.15 4H1054.16C1054.16 5.69 1054.38 7.31 1054.12 8.85C1053.35 13.37 1052.31 17.84 1051.52 22.35C1050.64 27.36 1049.95 32.41 1049.13 37.43C1048.41 41.81 1047.65 46.18 1046.88 50.55C1045.94 55.87 1045 61.19 1044.03 66.51C1042.97 72.3 1041.86 78.08 1040.82 83.87C1039.9 89.02 1039.04 94.19 1038.16 99.35C1037.41 103.72 1036.71 108.09 1035.9 112.45C1035.06 116.96 1034.16 121.45 1033.19 125.93C1032.19 130.57 1031.34 135.28 1029.95 139.81C1025.92 152.91 1019.41 164.81 1010.38 175.04C1002.07 184.46 992.38 192.28 981.11 198.34C972.22 203.12 963.06 206.99 953.54 210.05C947.94 211.86 942.03 212.68 936.32 214.18C929.92 215.85 923.3 215.74 916.83 216.93C912.8 217.68 908.62 217.82 904.5 217.85C889.67 217.95 874.84 217.89 859.99 217.89C854.58 209.65 849.15 201.49 843.83 193.24C834.43 178.67 825.15 164.02 815.74 149.46C809.86 140.37 803.9 131.33 797.82 122.36C796.1 119.83 795.61 117.24 796.1 114.37C796.71 110.8 797.29 107.22 798.11 103.7C798.39 102.5 799.22 101.3 800.08 100.38C806.54 93.45 813.09 86.61 819.58 79.7C822.52 76.57 825.37 73.36 828.27 70.19C832.19 65.91 836.07 61.6 840.05 57.37C847.33 49.64 854.74 42.03 861.96 34.24C866.34 29.52 870.44 24.53 874.76 19.75C877.32 16.92 879.99 14.17 882.76 11.54C885.28 9.14 887.99 6.95 891.25 4.11H930.47C929.62 5.3 929.19 6.11 928.57 6.75C924.05 11.41 919.44 15.98 914.98 20.69C904.71 31.52 894.49 42.4 884.29 53.3C877.5 60.56 870.82 67.94 864.01 75.19C859.82 79.66 855.47 83.97 851.23 88.39C845.02 94.86 838.84 101.35 832.66 107.84C832.1 108.43 831.57 109.05 830.79 109.91V109.92Z" fill="url(#paint1_linear_218_9261)"/>
<path d="M730.99 217.75H697.36C696.95 216.7 696.28 215.42 695.94 214.05C694.55 208.48 693.24 202.89 691.95 197.3C690.18 189.64 688.47 181.96 686.71 174.29C685.28 168.07 683.83 161.86 682.37 155.57C678.12 154.74 637.19 154.46 607.78 155.1C605.34 157.42 595.01 174.84 588.83 186C582.93 196.66 576.49 207.02 570.25 217.58C564.54 218.24 539.76 218.09 535.62 217.24C537.26 214.11 538.76 211.06 540.43 208.12C546.62 197.22 552.85 186.35 559.11 175.49C562.48 169.64 565.95 163.85 569.31 157.99C573.54 150.62 577.68 143.2 581.89 135.82C584.25 131.68 586.67 127.58 589.04 123.44C595.69 111.87 602.3 100.28 608.97 88.71C614.22 79.6 619.56 70.53 624.8 61.41C631.09 50.46 637.31 39.46 643.59 28.5C648.83 19.34 654.1 10.19 659.4 0.96H683.69C684.82 6.07 685.93 11.17 687.07 16.26C688.57 22.95 690.12 29.64 691.6 36.33C692.87 42.09 694.07 47.87 695.32 53.64C696.97 61.3 698.7 68.94 700.26 76.62C702.14 85.89 704.31 95.11 706.32 104.34C708.33 113.58 710.29 122.86 712.53 132.06C714.23 139.06 715.52 146.15 717.11 153.18C718.55 159.57 720.21 165.91 721.66 172.29C722.57 176.27 723.23 180.31 724.08 184.31C724.93 188.31 725.88 192.28 726.78 196.27C728.19 202.46 729.61 208.64 730.97 214.84C731.14 215.61 730.99 216.45 730.99 217.75ZM674.87 124.73C674.87 123.51 675 122.67 674.85 121.88C673.93 117.25 672.81 112.66 672 108.01C670.63 100.09 669.45 92.14 668.18 84.21C667.1 77.44 666.07 70.66 664.89 63.9C664.33 60.68 663.49 57.52 662.56 53.36C649.56 77.75 637.09 101.17 624.54 124.72H674.87V124.73Z" fill="url(#paint2_linear_218_9261)"/>
<path d="M1055.31 217.69H1020.87C1021.31 216.34 1021.47 215.26 1021.98 214.37C1026.95 205.65 1032.01 196.99 1036.99 188.27C1042.07 179.38 1047.04 170.43 1052.13 161.55C1055.5 155.67 1059.06 149.91 1062.41 144.02C1066.39 137.01 1070.17 129.88 1074.15 122.86C1077.03 117.77 1080.13 112.8 1083.05 107.73C1089.88 95.88 1096.62 83.99 1103.46 72.15C1110.05 60.73 1116.81 49.41 1123.34 37.95C1129.49 27.16 1135.43 16.24 1141.49 5.41C1142.29 3.98 1143.32 2.67 1144.44 1.03H1167.97C1168.6 2.47 1169.6 4.04 1169.96 5.73C1171.28 11.95 1172.28 18.24 1173.61 24.47C1174.53 28.79 1175.88 33.02 1176.85 37.33C1177.75 41.32 1178.34 45.37 1179.18 49.37C1179.92 52.89 1180.9 56.37 1181.64 59.89C1183.2 67.26 1184.63 74.65 1186.2 82.02C1187.12 86.34 1188.31 90.61 1189.24 94.93C1190.65 101.5 1191.83 108.12 1193.31 114.67C1194.71 120.91 1196.46 127.06 1197.87 133.3C1199.42 140.19 1200.68 147.15 1202.21 154.04C1203.66 160.57 1205.35 167.05 1206.83 173.57C1208.28 179.97 1209.56 186.41 1210.99 192.82C1212.65 200.32 1214.39 207.79 1216.07 215.29C1216.21 215.91 1216.09 216.59 1216.09 217.59C1212.18 218.1 1208.39 217.86 1204.61 217.88C1200.61 217.91 1196.6 218.02 1192.61 217.85C1188.89 217.69 1185.04 218.63 1181.6 217.22C1179.84 209.58 1178.15 202.38 1176.53 195.17C1174.98 188.29 1173.55 181.38 1171.97 174.5C1171.09 170.67 1170.02 166.89 1169.06 163.08C1168.7 161.65 1168.32 160.21 1168.12 158.75C1167.66 155.35 1167.49 155.04 1164.23 155.04C1140.4 155.01 1116.56 155.02 1092.86 155.02C1089.74 158.1 1066.34 197.23 1055.33 217.68L1055.31 217.69ZM1160.14 124.69C1156 100.74 1151.9 77.07 1147.72 52.92C1134.86 77.04 1122.22 100.77 1109.47 124.69H1160.14Z" fill="url(#paint3_linear_218_9261)"/>
<path d="M773.79 217.75H742.28C742.16 216.98 741.88 216.32 742 215.73C742.88 211.24 743.96 206.78 744.75 202.27C745.63 197.27 746.21 192.21 747.02 187.2C747.73 182.83 748.58 178.49 749.35 174.14C750.24 169.15 751.1 164.15 751.99 159.15C752.28 157.54 752.67 155.94 752.95 154.33C754.63 144.64 756.36 134.95 757.94 125.24C758.94 119.1 760.51 113.07 761.12 106.84C761.62 101.82 763.05 96.9 763.99 91.91C764.75 87.89 765.4 83.84 766.1 79.81C767.16 73.68 768.2 67.54 769.28 61.41C770.16 56.4 771.08 51.41 771.96 46.4C772.72 42.03 773.42 37.64 774.18 33.27C775.11 27.94 776.06 22.62 777.03 17.3C777.82 12.96 778.64 8.62 779.48 4.09H810.94C810.94 6.26 811.33 8.31 810.87 10.16C809.11 17.18 808.25 24.35 807.03 31.46C805.62 39.67 803.7 47.79 802.21 55.99C801.3 60.99 800.91 66.07 800.06 71.08C799.3 75.57 798.14 80 797.34 84.49C796.45 89.49 795.81 94.53 794.98 99.53C794.01 105.35 792.98 111.16 791.9 116.96C790.46 124.71 788.9 132.42 787.93 140.26C787.27 145.6 785.78 150.84 784.65 156.12C784.58 156.44 784.25 156.74 784.28 157.02C784.78 161.68 782.8 165.98 782.27 170.5C781.64 175.83 780.28 181.07 779.35 186.38C778.5 191.25 777.89 196.15 777.03 201.02C776.06 206.5 774.92 211.96 773.8 217.76L773.79 217.75Z" fill="url(#paint4_linear_218_9261)"/>
<path d="M1016.47 290.85C1019.32 274.66 1022.11 258.87 1024.91 242.96H1036.04C1036.26 243.86 1036.82 244.82 1036.66 245.64C1034.46 256.59 1032.78 267.61 1031.02 278.63C1029.73 286.73 1027.77 294.72 1026.24 302.78C1025.38 307.29 1024.79 311.85 1024 316.85C1022.39 316.92 1020.79 317.01 1019.19 317.05C1017.7 317.08 1016.21 317.05 1014.67 317.05C1006.26 300.76 997.9 284.57 989.16 267.64C987.71 276.32 986.45 284.25 985.05 292.15C984.22 296.84 983.09 301.48 982.23 306.16C981.73 308.86 981.45 311.6 981.15 314.34C980.95 316.13 980.04 317.04 978.25 317.04C975.42 317.05 972.59 317.04 969.58 317.04C968.13 313.36 969.52 309.86 970.07 306.38C970.97 300.7 971.98 295.03 973.02 289.37C973.85 284.86 974.85 280.37 975.64 275.85C976.52 270.83 977.25 265.79 978.04 260.75C978.12 260.26 978 259.74 978.1 259.26C979.25 253.66 980.43 248.06 981.6 242.5C981.93 242.32 982.2 242.04 982.49 242.02C990.84 241.57 990.77 241.62 994.67 249.24C1001.51 262.6 1008.44 275.9 1015.35 289.23C1015.57 289.66 1015.91 290.02 1016.49 290.84L1016.47 290.85Z" fill="url(#paint5_linear_218_9261)"/>
<path d="M921.95 317.03C916.32 317.88 910.98 316.43 905.92 313.8C902.21 311.87 899.1 309.22 896.87 305.59C895.34 303.11 893.67 300.79 892.74 297.9C889.31 287.29 890.25 277.15 895.18 267.25C900.91 255.75 910.03 248.11 921.88 243.5C932.32 239.44 942.65 240.1 952.4 245.22C958.34 248.34 962.71 253.45 965.06 259.93C968.79 270.21 968.18 280.31 963.52 290.2C957.99 301.95 949.09 310.12 937.17 315.06C932.35 317.06 927.28 317.58 921.94 317.01L921.95 317.03ZM923.93 305.07C926.08 304.97 928.32 305.22 930.38 304.71C944.57 301.22 956.27 286.93 955.06 273.43C954.44 266.43 951.57 260.92 945.78 256.94C937.79 251.45 929.5 252.39 921.44 256.37C914.8 259.65 909.61 264.74 906.13 271.44C903.03 277.4 902.33 283.63 903.67 290.14C904.7 295.14 908.1 298.68 911.84 301.6C915.23 304.25 919.35 305.83 923.93 305.07Z" fill="url(#paint6_linear_218_9261)"/>
<path d="M867.75 289.57C870.77 294.13 873.66 298.52 876.57 302.9C879.37 307.12 882.18 311.34 884.99 315.56C882.2 317.31 879.09 317.55 869.76 316.8C863.42 307 857.15 297.08 850.6 287.34C848.42 284.09 848.43 281.31 850.67 278.02C854.78 278.02 858.93 278.13 863.08 277.99C870.49 277.74 877 271.69 877.82 264.45C878.25 260.66 874.46 255.69 870.64 255.02C868.88 254.71 867.13 254.13 865.36 254.08C861.05 253.94 856.73 254.03 851.93 254.03C847.9 274.9 844.56 295.72 840.65 316.75H829.23C829.15 315.7 828.81 314.55 829.01 313.5C830.56 305.31 832.3 297.16 833.79 288.96C834.7 283.96 835.12 278.88 836 273.87C836.81 269.2 838.06 264.61 838.87 259.94C839.77 254.76 840.37 249.52 841.13 244.32C841.22 243.69 841.52 243.09 841.66 242.66C842.15 242.35 842.43 242.02 842.71 242.02C851.2 241.96 859.72 241.49 868.17 242.08C872.25 242.36 876.63 242.22 880.52 244.74C885.06 247.67 888.03 251.22 889.21 256.66C890.86 264.27 888.95 271.05 884.96 277.23C882.19 281.52 878.49 285.16 873.44 287.03C871.6 287.71 869.85 288.61 867.75 289.55V289.57Z" fill="url(#paint7_linear_218_9261)"/>
<path d="M760.09 288.1H771.75C768 297.28 762.53 304.68 754.39 309.96C749.68 313.02 744.74 315.62 739.12 316.49C728.41 318.15 718.47 317.19 710.18 308.96C703.82 302.64 700.98 295.18 700.91 286.37C700.81 274.3 705.56 264.33 713.7 255.74C719.02 250.12 725.23 245.81 732.69 243.68C738.74 241.95 744.87 241.5 751.26 242.45C760.28 243.8 766.25 249.04 770.78 256.28C773.24 260.21 774.41 264.71 773.94 269.77H762.51C762.08 268.68 761.63 267.65 761.26 266.58C758.54 258.76 752.27 254.4 744.21 254C731.41 253.36 719.26 262.85 715 274.28C712.51 280.97 711.88 287.47 715.12 293.93C718.67 301.02 724.49 304.58 732.54 305.01C740.95 305.46 747.61 301.83 753.56 296.65C756.09 294.45 757.75 291.25 760.11 288.1H760.09Z" fill="url(#paint8_linear_218_9261)"/>
<path d="M1153.32 269.84H1141.51C1141.08 268.72 1140.57 267.37 1140.04 266.03C1137.79 260.33 1133.99 256.59 1127.82 254.95C1116.09 251.85 1106.94 256.47 1099.4 264.6C1093.19 271.29 1090.54 279.67 1092.12 288.94C1093.69 298.1 1101.68 304.69 1110.2 305.01C1122.16 305.46 1130.81 299.98 1137.11 290.19C1137.55 289.5 1137.97 288.81 1138.36 288.19H1150.2C1149.96 289.26 1149.95 290.09 1149.61 290.75C1145.35 299.01 1139.37 305.81 1131.65 310.96C1123.47 316.42 1114.13 318.34 1104.65 316.89C1092.79 315.08 1084.73 307.96 1081.1 296.26C1076.72 282.17 1081.32 270.13 1089.57 258.88C1095.39 250.95 1103.53 246.29 1112.54 243.34C1117.99 241.55 1123.79 241.51 1129.69 242.61C1136.16 243.82 1141.68 246.29 1145.89 251.24C1149.33 255.29 1152.11 259.77 1152.3 265.39C1152.34 266.67 1152.86 267.94 1153.31 269.84H1153.32Z" fill="url(#paint9_linear_218_9261)"/>
<path d="M1212.77 262.02H1201.49C1201.03 259.3 1200.06 256.64 1197.61 255.43C1193.91 253.6 1189.91 252.29 1185.67 253.43C1183.61 253.98 1181.68 254.98 1179.64 255.63C1175.11 257.08 1173.5 260.86 1172.28 264.87C1171.66 266.9 1173.36 269.8 1175.85 270.84C1177.97 271.72 1180.25 272.74 1182.47 272.74C1187 272.74 1191.22 273.99 1195.57 274.83C1199.61 275.62 1203.04 277.35 1205.91 280.2C1209.57 283.84 1210.81 288.2 1209.52 293.25C1209.11 294.84 1209.01 296.51 1208.52 298.06C1206.48 304.56 1201.79 308.66 1196.18 312.2C1188.97 316.75 1181.11 317.97 1173.02 316.91C1166.42 316.05 1160.4 313.4 1156.65 307.16C1154.21 303.1 1153.57 298.94 1154.49 294.17H1165.8C1165.95 294.92 1166.1 295.84 1166.32 296.74C1167.49 301.58 1171.16 304.03 1175.52 304.73C1180.21 305.49 1185.05 305.43 1189.55 302.9C1194.73 299.99 1198.48 296.49 1196.75 289.54C1193.76 286.54 1189.56 285.75 1185.3 285.19C1181.56 284.7 1177.71 284.74 1174.07 283.85C1165.04 281.65 1158.45 275.77 1160.64 263.42C1161.99 255.82 1166.73 251.04 1172.18 246.81C1174.89 244.71 1178.75 244.09 1182.11 242.83C1182.56 242.66 1183.13 242.78 1183.56 242.58C1189.56 239.74 1195.6 241.23 1201.3 243.1C1208.72 245.54 1214.97 252.93 1212.78 262.01L1212.77 262.02Z" fill="url(#paint10_linear_218_9261)"/>
<path d="M540.12 316.39C541.82 308.5 543.04 301.58 544.02 294.61C544.68 289.92 545.99 285.32 546.81 280.65C547.95 274.19 548.83 267.68 549.96 261.21C551 255.26 552.24 249.35 553.4 243.36C557.08 242.57 587.12 242.31 598.7 243.01C599.92 246.63 597.49 249.92 597.82 253.91C592.1 254.2 586.66 254.02 581.22 254.05C575.73 254.08 570.23 254.05 564.43 254.05C561.72 259.91 562.29 266.51 560.27 272.83H592.68C592.78 274.17 593.02 275.28 592.92 276.35C592.75 278.14 592.27 279.89 592.07 281.68C591.75 284.47 590.74 285.49 588.04 285.46C580.06 285.38 572.07 285.24 564.09 285.21C562.29 285.21 560.49 285.52 558.31 285.73C557.13 292.05 555.98 298.18 554.73 304.91H588.76C587.99 309.08 587.31 312.73 586.53 316.9C583.71 317.3 580.58 317.01 577.48 317.06C574.32 317.11 571.15 317.07 567.99 317.07H559C555.84 317.07 552.67 317.16 549.51 317.05C546.5 316.95 543.35 317.61 540.14 316.4L540.12 316.39Z" fill="url(#paint11_linear_218_9261)"/>
<path d="M644.19 315.73C648.49 291.38 652.76 267.23 657.07 242.8H702.99C701.89 246.35 702.76 250.43 700.41 254.14H667.48C666.37 260.35 665.31 266.3 664.19 272.6C667.73 273.28 671.33 272.85 674.88 272.91C678.55 272.98 682.21 272.91 685.88 272.93C689.5 272.95 693.12 273.01 697.14 273.06C696.32 277.24 695.61 280.9 694.79 285.08C684.07 285.36 673.31 285.01 662.12 285.26C660.92 291.76 659.75 298.14 658.52 304.82H691.62C692.7 309.17 690.5 312.73 689.92 316.5C687.13 317.01 647.33 317.4 645.53 316.83C644.95 316.65 644.52 316.02 644.17 315.73H644.19Z" fill="url(#paint12_linear_218_9261)"/>
<path d="M1058.1 304.7H1070.84C1070.91 306.24 1071.1 307.49 1070.99 308.72C1070.84 310.36 1070.37 311.97 1070.17 313.6C1069.8 316.57 1069.49 317.01 1066.5 317.04C1059 317.1 1051.5 317.06 1044 317.06C1039.86 317.06 1035.71 317.06 1031.3 317.06C1030.63 312.84 1031.26 309.03 1032.49 304.98H1045.8C1048.81 288.03 1051.79 271.28 1054.86 254.03H1042.37C1041.3 249.88 1042.72 246.5 1043.49 242.91H1081.72C1082.9 246.6 1080.18 249.94 1081.2 253.94H1067.29C1063.54 270.87 1061.41 287.7 1058.09 304.71L1058.1 304.7Z" fill="url(#paint13_linear_218_9261)"/>
<path d="M777.14 253.97C777.91 249.88 778.63 246.1 779.38 242.14H835.21C834.71 246.08 834.24 249.75 833.7 253.96C826.37 254.19 818.95 253.95 811.38 254.1C809.91 263.14 808.6 271.91 807.03 280.63C805.55 288.84 803.53 296.95 802.27 305.18C801.67 309.07 801.48 312.99 799.84 316.85H788.27C791.89 296.02 795.49 275.32 799.21 253.97H777.14Z" fill="url(#paint14_linear_218_9261)"/>
<path d="M605.22 242.96H617.02C617.02 244.48 617.33 245.86 616.96 247.03C615.68 251.08 615.41 255.27 614.83 259.43C614.08 264.76 612.96 270.03 611.97 275.32C610.89 281.12 609.74 286.9 608.69 292.7C608 296.55 607.44 300.42 606.75 304.69H639.51C641.31 309 638.81 312.64 638.86 316.39C636.26 316.94 596.57 317.48 593.9 316.96C593.33 316.85 592.85 316.25 592.35 315.88C596.65 291.54 600.92 267.35 605.23 242.96H605.22Z" fill="url(#paint15_linear_218_9261)"/>
<defs>
<linearGradient id="paint0_linear_218_9261" x1="469" y1="-51" x2="634.5" y2="370.5" gradientUnits="userSpaceOnUse">
<stop stop-color="#0A5ADF"/>
<stop offset="0.515625" stop-color="#0029BD"/>
<stop offset="0.990761" stop-color="#0A5ADF"/>
</linearGradient>
<linearGradient id="paint1_linear_218_9261" x1="469" y1="-51" x2="634.5" y2="370.5" gradientUnits="userSpaceOnUse">
<stop stop-color="#0A5ADF"/>
<stop offset="0.515625" stop-color="#0029BD"/>
<stop offset="0.990761" stop-color="#0A5ADF"/>
</linearGradient>
<linearGradient id="paint2_linear_218_9261" x1="469" y1="-51" x2="634.5" y2="370.5" gradientUnits="userSpaceOnUse">
<stop stop-color="#0A5ADF"/>
<stop offset="0.515625" stop-color="#0029BD"/>
<stop offset="0.990761" stop-color="#0A5ADF"/>
</linearGradient>
<linearGradient id="paint3_linear_218_9261" x1="469" y1="-51" x2="634.5" y2="370.5" gradientUnits="userSpaceOnUse">
<stop stop-color="#0A5ADF"/>
<stop offset="0.515625" stop-color="#0029BD"/>
<stop offset="0.990761" stop-color="#0A5ADF"/>
</linearGradient>
<linearGradient id="paint4_linear_218_9261" x1="469" y1="-51" x2="634.5" y2="370.5" gradientUnits="userSpaceOnUse">
<stop stop-color="#0A5ADF"/>
<stop offset="0.515625" stop-color="#0029BD"/>
<stop offset="0.990761" stop-color="#0A5ADF"/>
</linearGradient>
<linearGradient id="paint5_linear_218_9261" x1="469" y1="-51" x2="634.5" y2="370.5" gradientUnits="userSpaceOnUse">
<stop stop-color="#0A5ADF"/>
<stop offset="0.515625" stop-color="#0029BD"/>
<stop offset="0.990761" stop-color="#0A5ADF"/>
</linearGradient>
<linearGradient id="paint6_linear_218_9261" x1="469" y1="-51" x2="634.5" y2="370.5" gradientUnits="userSpaceOnUse">
<stop stop-color="#0A5ADF"/>
<stop offset="0.515625" stop-color="#0029BD"/>
<stop offset="0.990761" stop-color="#0A5ADF"/>
</linearGradient>
<linearGradient id="paint7_linear_218_9261" x1="469" y1="-51" x2="634.5" y2="370.5" gradientUnits="userSpaceOnUse">
<stop stop-color="#0A5ADF"/>
<stop offset="0.515625" stop-color="#0029BD"/>
<stop offset="0.990761" stop-color="#0A5ADF"/>
</linearGradient>
<linearGradient id="paint8_linear_218_9261" x1="469" y1="-51" x2="634.5" y2="370.5" gradientUnits="userSpaceOnUse">
<stop stop-color="#0A5ADF"/>
<stop offset="0.515625" stop-color="#0029BD"/>
<stop offset="0.990761" stop-color="#0A5ADF"/>
</linearGradient>
<linearGradient id="paint9_linear_218_9261" x1="469" y1="-51" x2="634.5" y2="370.5" gradientUnits="userSpaceOnUse">
<stop stop-color="#0A5ADF"/>
<stop offset="0.515625" stop-color="#0029BD"/>
<stop offset="0.990761" stop-color="#0A5ADF"/>
</linearGradient>
<linearGradient id="paint10_linear_218_9261" x1="469" y1="-51" x2="634.5" y2="370.5" gradientUnits="userSpaceOnUse">
<stop stop-color="#0A5ADF"/>
<stop offset="0.515625" stop-color="#0029BD"/>
<stop offset="0.990761" stop-color="#0A5ADF"/>
</linearGradient>
<linearGradient id="paint11_linear_218_9261" x1="469" y1="-51" x2="634.5" y2="370.5" gradientUnits="userSpaceOnUse">
<stop stop-color="#0A5ADF"/>
<stop offset="0.515625" stop-color="#0029BD"/>
<stop offset="0.990761" stop-color="#0A5ADF"/>
</linearGradient>
<linearGradient id="paint12_linear_218_9261" x1="469" y1="-51" x2="634.5" y2="370.5" gradientUnits="userSpaceOnUse">
<stop stop-color="#0A5ADF"/>
<stop offset="0.515625" stop-color="#0029BD"/>
<stop offset="0.990761" stop-color="#0A5ADF"/>
</linearGradient>
<linearGradient id="paint13_linear_218_9261" x1="469" y1="-51" x2="634.5" y2="370.5" gradientUnits="userSpaceOnUse">
<stop stop-color="#0A5ADF"/>
<stop offset="0.515625" stop-color="#0029BD"/>
<stop offset="0.990761" stop-color="#0A5ADF"/>
</linearGradient>
<linearGradient id="paint14_linear_218_9261" x1="469" y1="-51" x2="634.5" y2="370.5" gradientUnits="userSpaceOnUse">
<stop stop-color="#0A5ADF"/>
<stop offset="0.515625" stop-color="#0029BD"/>
<stop offset="0.990761" stop-color="#0A5ADF"/>
</linearGradient>
<linearGradient id="paint15_linear_218_9261" x1="469" y1="-51" x2="634.5" y2="370.5" gradientUnits="userSpaceOnUse">
<stop stop-color="#0A5ADF"/>
<stop offset="0.515625" stop-color="#0029BD"/>
<stop offset="0.990761" stop-color="#0A5ADF"/>
</linearGradient>
</defs>
</svg>
