<svg width="38" height="28" viewBox="0 0 38 28" fill="none" xmlns="http://www.w3.org/2000/svg">
<path d="M0.25 17.75V4.625C0.289062 3.57031 0.660156 2.69141 1.36328 1.98828C2.06641 1.28516 2.94531 0.914062 4 0.875H22.75C23.8047 0.914062 24.6836 1.28516 25.3867 1.98828C26.0898 2.69141 26.4609 3.57031 26.5 4.625V17.75C26.4609 18.8047 26.0898 19.6836 25.3867 20.3867C24.6836 21.0898 23.8047 21.4609 22.75 21.5H17.0078L18.2969 25.25H21.8125C22.3984 25.2891 22.7109 25.6016 22.75 26.1875C22.7109 26.7734 22.3984 27.0859 21.8125 27.125H4.9375C4.35156 27.0859 4.03906 26.7734 4 26.1875C4.03906 25.6016 4.35156 25.2891 4.9375 25.25H8.51172L9.74219 21.5H4C2.94531 21.4609 2.06641 21.0898 1.36328 20.3867C0.660156 19.6836 0.289062 18.8047 0.25 17.75ZM22.75 2.75H4C3.45312 2.75 3.00391 2.92578 2.65234 3.27734C2.30078 3.62891 2.125 4.07812 2.125 4.625V17.75C2.125 18.2969 2.30078 18.7461 2.65234 19.0977C3.00391 19.4492 3.45312 19.625 4 19.625H22.75C23.2969 19.625 23.7461 19.4492 24.0977 19.0977C24.4492 18.7461 24.625 18.2969 24.625 17.75V4.625C24.625 4.07812 24.4492 3.62891 24.0977 3.27734C23.7461 2.92578 23.2969 2.75 22.75 2.75ZM16.3047 25.25L15.0742 21.5H11.7344L10.4453 25.25H16.3047ZM31.6562 18.6875C31.7344 17.8281 32.2031 17.3594 33.0625 17.2812C33.9219 17.3594 34.3906 17.8281 34.4688 18.6875C34.3906 19.5469 33.9219 20.0156 33.0625 20.0938C32.2031 20.0156 31.7344 19.5469 31.6562 18.6875ZM28.375 3.6875C28.4141 2.90625 28.6875 2.24219 29.1953 1.69531C29.7422 1.1875 30.4062 0.914062 31.1875 0.875H34.9375C35.7188 0.914062 36.3828 1.1875 36.9297 1.69531C37.4375 2.24219 37.7109 2.90625 37.75 3.6875V24.3125C37.7109 25.0938 37.4375 25.7578 36.9297 26.3047C36.3828 26.8125 35.7188 27.0859 34.9375 27.125H31.1875C30.4062 27.0859 29.7422 26.8125 29.1953 26.3047C28.6875 25.7578 28.4141 25.0938 28.375 24.3125V3.6875ZM30.25 3.6875V6.5H35.875V3.6875C35.8359 3.10156 35.5234 2.78906 34.9375 2.75H31.1875C30.6016 2.78906 30.2891 3.10156 30.25 3.6875ZM30.25 8.375V10.25H35.875V8.375H30.25ZM31.1875 25.25H34.9375C35.5234 25.2109 35.8359 24.8984 35.875 24.3125V12.125H30.25V24.3125C30.2891 24.8984 30.6016 25.2109 31.1875 25.25Z" fill="#2B2E33"/>
</svg>
