<svg width="30" height="30" viewBox="0 0 30 30" fill="none" xmlns="http://www.w3.org/2000/svg">
<path d="M13.0664 10.8984C12.8711 10.5469 12.5781 10.3711 12.1875 10.3711C11.7969 10.3711 11.5039 10.5469 11.3086 10.8984L8.02734 18.3984C7.87109 18.9453 8.04688 19.3555 8.55469 19.6289C9.10156 19.7852 9.51172 19.6094 9.78516 19.1016L10.3711 17.8125H14.0625L14.5898 19.1016C14.7461 19.4922 15.0391 19.6875 15.4688 19.6875C15.5859 19.6875 15.7031 19.668 15.8203 19.6289C16.3281 19.3555 16.5039 18.9453 16.3477 18.3984L13.0664 10.8984ZM11.1914 15.9375L12.1875 13.5938L13.2422 15.9375H11.1914ZM19.6875 10.3125C19.1016 10.3516 18.7891 10.6641 18.75 11.25V18.75C18.7891 19.3359 19.1016 19.6484 19.6875 19.6875C20.2734 19.6484 20.5859 19.3359 20.625 18.75V11.25C20.5859 10.6641 20.2734 10.3516 19.6875 10.3125ZM29.0625 15.9375C29.6484 15.8984 29.9609 15.5859 30 15C29.9609 14.4141 29.6484 14.1016 29.0625 14.0625H26.25V10.3125H29.0625C29.6484 10.2734 29.9609 9.96094 30 9.375C29.9609 8.78906 29.6484 8.47656 29.0625 8.4375H26.25V7.5C26.2109 6.44531 25.8398 5.56641 25.1367 4.86328C24.4336 4.16016 23.5547 3.78906 22.5 3.75H21.5625V0.9375C21.5234 0.351562 21.2109 0.0390625 20.625 0C20.0391 0.0390625 19.7266 0.351562 19.6875 0.9375V3.75H15.9375V0.9375C15.8984 0.351562 15.5859 0.0390625 15 0C14.4141 0.0390625 14.1016 0.351562 14.0625 0.9375V3.75H10.3125V0.9375C10.2734 0.351562 9.96094 0.0390625 9.375 0C8.78906 0.0390625 8.47656 0.351562 8.4375 0.9375V3.75H7.5C6.44531 3.78906 5.56641 4.16016 4.86328 4.86328C4.16016 5.56641 3.78906 6.44531 3.75 7.5V8.4375H0.9375C0.351562 8.47656 0.0390625 8.78906 0 9.375C0.0390625 9.96094 0.351562 10.2734 0.9375 10.3125H3.75V14.0625H0.9375C0.351562 14.1016 0.0390625 14.4141 0 15C0.0390625 15.5859 0.351562 15.8984 0.9375 15.9375H3.75V19.6875H0.9375C0.351562 19.7266 0.0390625 20.0391 0 20.625C0.0390625 21.2109 0.351562 21.5234 0.9375 21.5625H3.75V22.5C3.78906 23.5547 4.16016 24.4336 4.86328 25.1367C5.56641 25.8398 6.44531 26.2109 7.5 26.25H8.4375V29.0625C8.47656 29.6484 8.78906 29.9609 9.375 30C9.96094 29.9609 10.2734 29.6484 10.3125 29.0625V26.25H14.0625V29.0625C14.1016 29.6484 14.4141 29.9609 15 30C15.5859 29.9609 15.8984 29.6484 15.9375 29.0625V26.25H19.6875V29.0625C19.7266 29.6484 20.0391 29.9609 20.625 30C21.2109 29.9609 21.5234 29.6484 21.5625 29.0625V26.25H22.5C23.5547 26.2109 24.4336 25.8398 25.1367 25.1367C25.8398 24.4336 26.2109 23.5547 26.25 22.5V21.5625H29.0625C29.6484 21.5234 29.9609 21.2109 30 20.625C29.9609 20.0391 29.6484 19.7266 29.0625 19.6875H26.25V15.9375H29.0625ZM24.375 22.5C24.375 23.0469 24.1992 23.4961 23.8477 23.8477C23.4961 24.1992 23.0469 24.375 22.5 24.375H7.5C6.95312 24.375 6.50391 24.1992 6.15234 23.8477C5.80078 23.4961 5.625 23.0469 5.625 22.5V7.5C5.625 6.95312 5.80078 6.50391 6.15234 6.15234C6.50391 5.80078 6.95312 5.625 7.5 5.625H22.5C23.0469 5.625 23.4961 5.80078 23.8477 6.15234C24.1992 6.50391 24.375 6.95312 24.375 7.5V22.5Z" fill="#2B2E33"/>
</svg>
