<svg width="28" height="21" viewBox="0 0 28 21" fill="none" xmlns="http://www.w3.org/2000/svg">
<path d="M8.08335 2.20833C7.72224 2.875 7.54169 3.45833 7.54169 3.95833V8.125L1.95835 11.4167V13.7917L7.54169 12.125V16.7917L5.37502 18.5V19.6667L9.04169 18.4167L12.125 19.7083C12.4861 19.875 12.5972 20.1528 12.4584 20.5417C12.2639 20.9028 11.9861 21.0278 11.625 20.9167L9.00002 19.8333L5.75002 20.9167C5.33335 21.0556 4.94446 21 4.58335 20.75C4.25002 20.5 4.06946 20.1528 4.04169 19.7083V18.5C4.06946 18.0833 4.23613 17.75 4.54169 17.5L6.20835 16.1667V13.9167L2.33335 15.0417C1.91669 15.1806 1.5278 15.125 1.16669 14.875C0.833354 14.625 0.666687 14.2917 0.666687 13.875V11.4167C0.694465 10.9167 0.902798 10.5417 1.29169 10.2917L6.20835 7.33333V3.95833C6.23613 3.15278 6.47224 2.34722 6.91669 1.54167C7.13891 1.15278 7.41669 0.805556 7.75002 0.5C8.08335 0.194444 8.51391 0.0277778 9.04169 0C9.54169 0.0277778 9.95835 0.194444 10.2917 0.5C10.5972 0.777778 10.875 1.11111 11.125 1.5C11.125 1.52778 11.125 1.54167 11.125 1.54167C11.5972 2.34722 11.8334 3.15278 11.8334 3.95833V5.04167C11.8056 5.43056 11.5834 5.65278 11.1667 5.70833C10.7778 5.65278 10.5556 5.43056 10.5 5.04167V3.95833C10.5 3.43056 10.3334 2.84722 10 2.20833C9.80558 1.90278 9.62502 1.68056 9.45835 1.54167C9.26391 1.40278 9.12502 1.33333 9.04169 1.33333C8.93058 1.33333 8.79169 1.40278 8.62502 1.54167C8.43058 1.68056 8.25002 1.90278 8.08335 2.20833ZM15.3334 15.6667C15.3889 15.0556 15.7222 14.7222 16.3334 14.6667C16.9445 14.7222 17.2778 15.0556 17.3334 15.6667C17.2778 16.2778 16.9445 16.6111 16.3334 16.6667C15.7222 16.6111 15.3889 16.2778 15.3334 15.6667ZM24.6667 15.6667C24.6111 16.2778 24.2778 16.6111 23.6667 16.6667C23.0556 16.6111 22.7222 16.2778 22.6667 15.6667C22.7222 15.0556 23.0556 14.7222 23.6667 14.6667C24.2778 14.7222 24.6111 15.0556 24.6667 15.6667ZM27.3334 17C27.2778 17.9167 26.8334 18.5417 26 18.875V20.3333C25.9722 20.75 25.75 20.9722 25.3334 21C24.9167 20.9722 24.6945 20.75 24.6667 20.3333V19H15.3334V20.3333C15.3056 20.75 15.0834 20.9722 14.6667 21C14.25 20.9722 14.0139 20.75 13.9584 20.3333V18.875C13.5695 18.7361 13.25 18.5 13 18.1667C12.75 17.8333 12.625 17.4444 12.625 17V7C12.6528 6.44444 12.8611 5.97222 13.25 5.58333C13.6389 5.22222 14.1111 5.02778 14.6667 5H25.3334C25.8889 5.02778 26.3611 5.22222 26.75 5.58333C27.1111 5.97222 27.3056 6.44444 27.3334 7V17ZM25.3334 6.33333H14.6667C14.25 6.36111 14.0139 6.58333 13.9584 7V12.7083C14.1806 12.5972 14.3889 12.5139 14.5834 12.4583L15.25 10.25C15.4167 9.66667 15.7361 9.20833 16.2084 8.875C16.6528 8.51389 17.1806 8.33333 17.7917 8.33333H22.1667C22.7778 8.33333 23.3195 8.51389 23.7917 8.875C24.2639 9.20833 24.5834 9.66667 24.75 10.25L25.4167 12.4583C25.6389 12.5139 25.8334 12.5972 26 12.7083V7C25.9722 6.58333 25.75 6.36111 25.3334 6.33333ZM26 15C26 14.6111 25.875 14.2917 25.625 14.0417C25.375 13.7917 25.0556 13.6667 24.6667 13.6667H15.3334C14.9445 13.6667 14.625 13.7917 14.375 14.0417C14.0972 14.2917 13.9584 14.6111 13.9584 15V17C14.0139 17.4167 14.25 17.6389 14.6667 17.6667H25.3334C25.75 17.6389 25.9722 17.4167 26 17V15ZM24 12.3333L23.5 10.625C23.2778 10.0139 22.8334 9.69444 22.1667 9.66667H17.7917C17.1528 9.69444 16.7222 10.0139 16.5 10.625L16 12.3333H24Z" fill="#2B2E33"/>
</svg>
