<svg width="24" height="30" viewBox="0 0 24 30" fill="none" xmlns="http://www.w3.org/2000/svg">
<path d="M6.375 0C6.96094 0.0390625 7.27344 0.351562 7.3125 0.9375V6.5625H5.4375V0.9375C5.47656 0.351562 5.78906 0.0390625 6.375 0ZM17.625 0C18.2109 0.0390625 18.5234 0.351562 18.5625 0.9375V6.5625H16.6875V0.9375C16.7266 0.351562 17.0391 0.0390625 17.625 0ZM22.3125 8.4375C22.8984 8.47656 23.2109 8.78906 23.25 9.375C23.2109 9.96094 22.8984 10.2734 22.3125 10.3125H21.375V14.0625C21.3359 16.5234 20.5156 18.6133 18.9141 20.332C17.3516 22.0898 15.3594 23.1055 12.9375 23.3789V29.0625C12.8984 29.6484 12.5859 29.9609 12 30C11.4141 29.9609 11.1016 29.6484 11.0625 29.0625V23.3789C8.64062 23.1055 6.64844 22.0898 5.08594 20.332C3.48438 18.6133 2.66406 16.5234 2.625 14.0625V10.3125H1.6875C1.10156 10.2734 0.789062 9.96094 0.75 9.375C0.789062 8.78906 1.10156 8.47656 1.6875 8.4375H22.3125ZM12 21.5625C14.1094 21.5234 15.8867 20.8008 17.332 19.3945C18.7383 17.9492 19.4609 16.1719 19.5 14.0625V10.3125H4.5V14.0625C4.53906 16.1719 5.26172 17.9492 6.66797 19.3945C8.11328 20.8008 9.89062 21.5234 12 21.5625Z" fill="#2B2E33"/>
</svg>
