<svg width="62" height="62" viewBox="0 0 62 62" fill="none" xmlns="http://www.w3.org/2000/svg">
<path d="M1 25.7826H6.21739M1 36.2174H6.21739M1 15.3478H6.21739M1 46.6522H6.21739M55.7826 25.7826H61M55.7826 36.2174H61M55.7826 15.3478H61M55.7826 46.6522H61M25.7826 61V55.7826M36.2174 61V55.7826M15.3478 61V55.7826M46.6522 61V55.7826M25.7826 6.21739V1M36.2174 6.21739V1M15.3478 6.21739V1M46.6522 6.21739V1M50.5652 55.7826H11.4348C8.55435 55.7826 6.21739 53.4457 6.21739 50.5652V11.4348C6.21739 8.55217 8.55435 6.21739 11.4348 6.21739H50.5652C53.4457 6.21739 55.7826 8.55217 55.7826 11.4348V50.5652C55.7826 53.4457 53.4457 55.7826 50.5652 55.7826ZM22.1957 19.2609H39.8043C41.4252 19.2609 42.7391 20.5748 42.7391 22.1957V39.8043C42.7391 41.4252 41.4252 42.7391 39.8043 42.7391H22.1957C20.5748 42.7391 19.2609 41.4252 19.2609 39.8043V22.1957C19.2609 20.5748 20.5748 19.2609 22.1957 19.2609Z" stroke="#454545" stroke-width="2" stroke-linecap="round" stroke-linejoin="round"/>
</svg>
