<svg width="52" height="50" viewBox="0 0 52 50" fill="none" xmlns="http://www.w3.org/2000/svg">
<path d="M23.17 36.9141C22.8445 36.3932 22.4539 36.3281 21.9981 36.7188L11.9395 46.6797C10.8328 47.7214 9.56325 48.2747 8.13095 48.3398C6.63356 48.4049 5.33148 47.9492 4.2247 46.9727C3.05283 45.8659 2.46689 44.5638 2.46689 43.0664C2.46689 41.569 2.98773 40.2344 4.02939 39.0625L18.7755 24.4141C19.101 24.0885 19.101 23.7305 18.7755 23.3398C18.3849 23.0143 18.0268 23.0143 17.7013 23.3398L3.15049 37.793C1.7833 39.2904 1.06715 41.0156 1.00205 42.9688C0.936944 44.8568 1.62054 46.5495 3.05283 48.0469C4.48512 49.349 6.11273 50 7.93564 50C9.82366 50 11.4513 49.3164 12.8185 47.9492L22.9747 37.793C23.3002 37.5326 23.3653 37.2396 23.17 36.9141ZM22.7794 7.42188C23.17 7.8125 23.5606 7.8125 23.9513 7.42188C25.9044 4.6875 28.5737 2.86458 31.9591 1.95312C33.6518 1.43229 35.8653 1.43229 38.5997 1.95312L30.6895 9.86328V20.3125H41.0411L49.0489 12.4023C49.5698 14.5508 49.5698 16.7643 49.0489 19.043C48.2677 22.1029 46.6726 24.6094 44.2638 26.5625C43.8731 26.888 43.8406 27.2461 44.1661 27.6367C44.4916 27.9622 44.8497 27.9948 45.2403 27.7344C47.9096 25.5859 49.6674 22.819 50.5138 19.4336C51.0997 16.8294 51.1323 14.3555 50.6114 12.0117C50.351 11.2305 49.8302 10.8398 49.0489 10.8398C48.6583 10.8398 48.2677 10.9701 47.877 11.2305L40.4552 18.75H32.252V10.5469L39.6739 3.02734C40.1297 2.57161 40.2924 2.08333 40.1622 1.5625C39.9669 0.976562 39.5763 0.585938 38.9903 0.390625C37.8185 0.130208 36.614 0 35.377 0C34.1401 0 32.8705 0.16276 31.5685 0.488281C27.8575 1.39974 24.8953 3.38542 22.6817 6.44531C22.4864 6.77083 22.4864 7.09635 22.6817 7.42188C22.6817 7.42188 22.7143 7.42188 22.7794 7.42188ZM7.15439 42.1875C7.2846 43.1641 7.80543 43.6849 8.71689 43.75C9.69345 43.6849 10.2143 43.1641 10.2794 42.1875C10.2143 41.2109 9.69345 40.6901 8.71689 40.625C7.80543 40.6901 7.2846 41.2109 7.15439 42.1875ZM38.5997 26.5625C37.1023 25.1302 35.377 24.349 33.4239 24.2188C31.4708 24.1536 29.713 24.7721 28.1505 26.0742L20.5333 18.457V9.86328C20.5333 9.60286 20.4356 9.40755 20.2403 9.27734L8.32627 0.292969C7.93564 0.0325521 7.57757 0.0325521 7.25205 0.292969L1.19736 6.25C0.936944 6.57552 0.936944 6.93359 1.19736 7.32422L10.2794 19.1406C10.4096 19.3359 10.6049 19.4336 10.8653 19.4336H19.4591L26.9786 27.0508C25.7416 28.6784 25.1557 30.4362 25.2208 32.3242C25.351 34.2773 26.1323 36.0026 27.5645 37.5L38.5997 48.6328C39.5112 49.5443 40.5528 50 41.7247 50C42.8315 50 43.8406 49.5768 44.752 48.7305L49.7325 43.75C50.5789 42.8385 51.002 41.8294 51.002 40.7227C51.002 39.5508 50.5789 38.5091 49.7325 37.5977L38.5997 26.5625ZM18.9708 17.9688H11.1583L2.85752 6.93359L7.93564 1.85547L18.9708 10.2539V17.9688ZM48.6583 42.6758L43.6778 47.6562C43.0919 48.1771 42.4408 48.4375 41.7247 48.4375C40.9435 48.4375 40.2924 48.1771 39.7716 47.6562L28.6388 36.5234C27.4018 35.2214 26.7833 33.724 26.7833 32.0312C26.7833 30.4036 27.4018 28.9388 28.6388 27.6367C29.9409 26.3997 31.4057 25.7812 33.0333 25.7812C34.726 25.7812 36.2234 26.3997 37.5255 27.6367L48.6583 38.7695C49.1791 39.2904 49.4395 39.9414 49.4395 40.7227C49.4395 41.4388 49.1791 42.0898 48.6583 42.6758Z" fill="#366CD9"/>
</svg>
