<svg width="32" height="30" viewBox="0 0 32 30" fill="none" xmlns="http://www.w3.org/2000/svg">
<path d="M14.2129 22.1484C13.7832 21.6016 13.2949 21.5234 12.748 21.9141L7.35742 27.3047C6.92773 27.7344 6.40039 27.9883 5.77539 28.0664C5.15039 28.1445 4.58398 28.0273 4.07617 27.7148C3.37305 27.207 2.98242 26.5625 2.9043 25.7812C2.82617 25 3.08008 24.3164 3.66602 23.7305L11.5762 15.8203C11.9277 15.3906 11.9277 14.9414 11.5762 14.4727C11.1074 14.1211 10.6387 14.1211 10.1699 14.4727L2.25977 22.3828C1.40039 23.2812 0.970703 24.3359 0.970703 25.5469C0.970703 26.7188 1.40039 27.7734 2.25977 28.7109C3.31445 29.6875 4.56445 30.0977 6.00977 29.9414C7.06445 29.7852 7.96289 29.3164 8.70508 28.5352L14.0371 23.2617C14.3105 22.9102 14.3496 22.5391 14.1543 22.1484C14.1934 22.1484 14.2129 22.1484 14.2129 22.1484ZM16.2637 5.21484C16.5371 4.74609 16.8691 4.31641 17.2598 3.92578C18.627 2.55859 20.2676 1.875 22.1816 1.875C22.5723 1.875 22.9629 1.91406 23.3535 1.99219L19.3105 6.03516L20.1309 10.8984L24.9941 11.7188L29.0371 7.67578C29.3887 10.0195 28.7441 12.0508 27.1035 13.7695C26.8301 14.043 26.5566 14.2773 26.2832 14.4727C25.8145 14.9023 25.7754 15.3711 26.166 15.8789C26.5566 16.1914 26.9863 16.2305 27.4551 15.9961C27.8066 15.7227 28.1387 15.4297 28.4512 15.1172C29.5449 13.9844 30.3066 12.6758 30.7363 11.1914C31.127 9.74609 31.127 8.26172 30.7363 6.73828C30.5801 6.15234 30.209 5.76172 29.623 5.56641C29.0371 5.41016 28.5293 5.54688 28.0996 5.97656L24.3496 9.72656L21.7715 9.25781L21.3027 6.67969L25.0527 2.92969C25.4824 2.5 25.6191 1.99219 25.4629 1.40625C25.2676 0.820312 24.877 0.449219 24.291 0.292969C22.7676 -0.0976562 21.2832 -0.0976562 19.8379 0.292969C18.3535 0.722656 17.0449 1.48438 15.9121 2.57812C15.4434 3.08594 15.0332 3.63281 14.6816 4.21875C14.4473 4.60938 14.4863 4.98047 14.7988 5.33203C15.3457 5.76172 15.834 5.72266 16.2637 5.21484ZM4.7207 25.3125C4.79883 25.8594 5.11133 26.1523 5.6582 26.1914C6.20508 26.1133 6.49805 25.8203 6.53711 25.3125C6.49805 24.7656 6.20508 24.4727 5.6582 24.4336C5.11133 24.4727 4.79883 24.7656 4.7207 25.3125ZM30.502 22.793L23.1777 15.5273C22.2402 14.6289 21.1465 14.1797 19.8965 14.1797C18.959 14.1406 18.0801 14.3945 17.2598 14.9414L12.2207 9.90234V5.625L4.7793 0L1.0293 3.69141L6.6543 11.1328H10.9316L15.9707 16.1719C15.3457 17.1094 15.0918 18.1055 15.209 19.1602C15.3262 20.2539 15.7754 21.2109 16.5566 22.0312L23.8809 29.3555C24.2324 29.7852 24.6621 30 25.1699 30C25.6777 30 26.127 29.8242 26.5176 29.4727L30.4434 25.4883C30.834 25.0977 31.0293 24.6484 31.0293 24.1406C31.0293 23.6328 30.8535 23.1836 30.502 22.793ZM10.3457 9.31641H7.5918L3.49023 3.92578L4.89648 2.46094L10.2871 6.5625V9.31641H10.3457ZM25.1699 28.125L17.9043 20.8008C17.3574 20.2539 17.084 19.6094 17.084 18.8672C17.084 18.0859 17.3574 17.4219 17.9043 16.875C18.4512 16.3281 19.1152 16.0547 19.8965 16.0547C20.6387 16.0547 21.2832 16.3281 21.8301 16.875L29.1543 24.1406L25.1699 28.125Z" fill="#2B2E33"/>
</svg>
