<svg width="30" height="28" viewBox="0 0 30 28" fill="none" xmlns="http://www.w3.org/2000/svg">
<path d="M26.25 0.875H3.75C2.69531 0.914062 1.81641 1.28516 1.11328 1.98828C0.410156 2.69141 0.0390625 3.57031 0 4.625V8.375C0.0390625 9.42969 0.410156 10.3086 1.11328 11.0117C1.81641 11.7148 2.69531 12.0859 3.75 12.125H26.25C27.3047 12.0859 28.1836 11.7148 28.8867 11.0117C29.5898 10.3086 29.9609 9.42969 30 8.375V4.625C29.9609 3.57031 29.5898 2.69141 28.8867 1.98828C28.1836 1.28516 27.3047 0.914062 26.25 0.875ZM28.125 8.375C28.125 8.92188 27.9492 9.37109 27.5977 9.72266C27.2461 10.0742 26.7969 10.25 26.25 10.25H3.75C3.20312 10.25 2.75391 10.0742 2.40234 9.72266C2.05078 9.37109 1.875 8.92188 1.875 8.375V4.625C1.875 4.07812 2.05078 3.62891 2.40234 3.27734C2.75391 2.92578 3.20312 2.75 3.75 2.75H26.25C26.7969 2.75 27.2461 2.92578 27.5977 3.27734C27.9492 3.62891 28.125 4.07812 28.125 4.625V8.375ZM24.375 5.09375C23.5156 5.17188 23.0469 5.64062 22.9688 6.5C23.0469 7.35938 23.5156 7.82812 24.375 7.90625C25.2344 7.82812 25.7031 7.35938 25.7812 6.5C25.7031 5.64062 25.2344 5.17188 24.375 5.09375ZM18.75 5.09375C17.8906 5.17188 17.4219 5.64062 17.3438 6.5C17.4219 7.35938 17.8906 7.82812 18.75 7.90625C19.6094 7.82812 20.0781 7.35938 20.1562 6.5C20.0781 5.64062 19.6094 5.17188 18.75 5.09375ZM26.25 15.875H3.75C2.69531 15.9141 1.81641 16.2852 1.11328 16.9883C0.410156 17.6914 0.0390625 18.5703 0 19.625V23.375C0.0390625 24.4297 0.410156 25.3086 1.11328 26.0117C1.81641 26.7148 2.69531 27.0859 3.75 27.125H26.25C27.3047 27.0859 28.1836 26.7148 28.8867 26.0117C29.5898 25.3086 29.9609 24.4297 30 23.375V19.625C29.9609 18.5703 29.5898 17.6914 28.8867 16.9883C28.1836 16.2852 27.3047 15.9141 26.25 15.875ZM28.125 23.375C28.125 23.9219 27.9492 24.3711 27.5977 24.7227C27.2461 25.0742 26.7969 25.25 26.25 25.25H3.75C3.20312 25.25 2.75391 25.0742 2.40234 24.7227C2.05078 24.3711 1.875 23.9219 1.875 23.375V19.625C1.875 19.0781 2.05078 18.6289 2.40234 18.2773C2.75391 17.9258 3.20312 17.75 3.75 17.75H26.25C26.7969 17.75 27.2461 17.9258 27.5977 18.2773C27.9492 18.6289 28.125 19.0781 28.125 19.625V23.375ZM24.375 20.0938C23.5156 20.1719 23.0469 20.6406 22.9688 21.5C23.0469 22.3594 23.5156 22.8281 24.375 22.9062C25.2344 22.8281 25.7031 22.3594 25.7812 21.5C25.7031 20.6406 25.2344 20.1719 24.375 20.0938ZM18.75 20.0938C17.8906 20.1719 17.4219 20.6406 17.3438 21.5C17.4219 22.3594 17.8906 22.8281 18.75 22.9062C19.6094 22.8281 20.0781 22.3594 20.1562 21.5C20.0781 20.6406 19.6094 20.1719 18.75 20.0938Z" fill="#2B2E33"/>
</svg>
