<svg width="62" height="60" viewBox="0 0 62 60" fill="none" xmlns="http://www.w3.org/2000/svg">
<path d="M7.66667 52.6666V7.33325H1M7.70222 44.6555L61 44.6666V16.6666H7.66667M30.3333 44.6666V51.3332H41.0044V44.6666M17 44.6666V51.3332H23.6667V44.6666M35.6667 20.6666V23.3088H42.3333V20.6666M47.6667 20.6666V23.3088H53V20.6666M7.70222 27.3333H13V35.3333H7.70222M19.6667 27.3333H22.3333M19.6667 33.9999H22.3333M30.3333 27.3333H32.56M30.3333 33.9999H32.56M42.3333 32.0444V35.7888M46.3333 32.0444V35.7888M50.3333 32.0444V35.7888M22.3333 24.6666H30.3333V36.6666H22.3333V24.6666Z" stroke="#454545" stroke-width="2" stroke-linecap="round" stroke-linejoin="round"/>
</svg>
