<svg width="38" height="20" viewBox="0 0 38 20" fill="none" xmlns="http://www.w3.org/2000/svg">
<path d="M24.625 0.625H4C2.94531 0.664062 2.06641 1.03516 1.36328 1.73828C0.660156 2.44141 0.289062 3.32031 0.25 4.375V15.625C0.289062 16.6797 0.660156 17.5586 1.36328 18.2617C2.06641 18.9648 2.94531 19.3359 4 19.375H24.625C25.1719 19.375 25.6211 19.1992 25.9727 18.8477C26.3242 18.4961 26.5 18.0469 26.5 17.5V2.5C26.5 1.95312 26.3242 1.50391 25.9727 1.15234C25.6211 0.800781 25.1719 0.625 24.625 0.625ZM24.625 17.5H4C3.45312 17.5 3.00391 17.3242 2.65234 16.9727C2.30078 16.6211 2.125 16.1719 2.125 15.625V4.375C2.125 3.82812 2.30078 3.37891 2.65234 3.02734C3.00391 2.67578 3.45312 2.5 4 2.5H24.625V17.5ZM34.9375 2.5H29.3125C28.7266 2.53906 28.4141 2.85156 28.375 3.4375C28.4141 4.02344 28.7266 4.33594 29.3125 4.375H34.9375C35.5234 4.41406 35.8359 4.72656 35.875 5.3125V14.6875C35.8359 15.2734 35.5234 15.5859 34.9375 15.625H29.3125C28.7266 15.6641 28.4141 15.9766 28.375 16.5625C28.4141 17.1484 28.7266 17.4609 29.3125 17.5H34.9375C35.7188 17.4609 36.3828 17.1875 36.9297 16.6797C37.4375 16.1328 37.7109 15.4688 37.75 14.6875V5.3125C37.7109 4.53125 37.4375 3.86719 36.9297 3.32031C36.3828 2.8125 35.7188 2.53906 34.9375 2.5ZM32.5938 8.125H33.5312C33.8047 8.08594 33.9609 7.92969 34 7.65625V6.71875C33.9609 6.44531 33.8047 6.28906 33.5312 6.25H32.5938C32.3203 6.28906 32.1641 6.44531 32.125 6.71875V7.65625C32.1641 7.92969 32.3203 8.08594 32.5938 8.125ZM32.125 13.2812C32.1641 13.5547 32.3203 13.7109 32.5938 13.75H33.5312C33.8047 13.7109 33.9609 13.5547 34 13.2812V12.3438C33.9609 12.0703 33.8047 11.9141 33.5312 11.875H32.5938C32.3203 11.9141 32.1641 12.0703 32.125 12.3438V13.2812Z" fill="#2B2E33"/>
</svg>
