<svg width="62" height="60" viewBox="0 0 62 60" fill="none" xmlns="http://www.w3.org/2000/svg">
<path d="M4.91304 51.5218V8.47827H1M4.91304 45H58.3913C59.8326 45 61 43.8326 61 42.3913V15C61 13.5587 59.8326 12.3913 58.3913 12.3913H4.91304M15.3478 45V51.5218H36.2174V45M16.4913 30.4696C13.3826 32.6957 13.0152 35.2652 12.9783 35.5957M26.8478 21.7957C26.813 22.1283 26.4435 24.6957 23.3348 26.9218M21.687 32.1174C23.913 35.2261 26.4826 35.5935 26.813 35.6305M13.013 21.7631C13.3457 21.7978 15.913 22.1674 18.1391 25.2739M42.5783 30.4696C39.4696 32.6957 39.1022 35.2652 39.0652 35.5957M52.9348 21.7957C52.9 22.1283 52.5304 24.6957 49.4239 26.9218M47.7739 32.1174C50 35.2261 52.5696 35.5935 52.9 35.6305M39.1 21.7631C39.4326 21.7978 42 22.1674 44.2261 25.2739M29.6957 28.6957C29.6957 34.0984 25.3158 38.4783 19.913 38.4783C14.5103 38.4783 10.1304 34.0984 10.1304 28.6957C10.1304 23.2929 14.5103 18.9131 19.913 18.9131C25.3158 18.9131 29.6957 23.2929 29.6957 28.6957ZM22.6391 25.9696C24.1435 27.4739 24.1435 29.9152 22.6391 31.4196C21.1348 32.9239 18.6935 32.9239 17.1891 31.4196C15.6848 29.9152 15.6848 27.4739 17.1891 25.9696C18.6935 24.4652 21.1348 24.4652 22.6391 25.9696ZM55.7826 28.6957C55.7826 34.0984 51.4028 38.4783 46 38.4783C40.5972 38.4783 36.2174 34.0984 36.2174 28.6957C36.2174 23.2929 40.5972 18.9131 46 18.9131C51.4028 18.9131 55.7826 23.2929 55.7826 28.6957ZM48.7261 25.9696C50.2304 27.4739 50.2304 29.9152 48.7261 31.4196C47.2217 32.9239 44.7804 32.9239 43.2761 31.4196C41.7717 29.9152 41.7717 27.4739 43.2761 25.9696C44.7804 24.4652 47.2217 24.4652 48.7261 25.9696Z" stroke="#454545" stroke-width="2" stroke-linecap="round" stroke-linejoin="round"/>
</svg>
